<?xml version="1.0" encoding="UTF-8" standalone="no"?>
<!-- Created with Inkscape (http://www.inkscape.org/) -->

<svg
   xmlns:dc="http://purl.org/dc/elements/1.1/"
   xmlns:cc="http://creativecommons.org/ns#"
   xmlns:rdf="http://www.w3.org/1999/02/22-rdf-syntax-ns#"
   xmlns:svg="http://www.w3.org/2000/svg"
   xmlns="http://www.w3.org/2000/svg"
   xmlns:xlink="http://www.w3.org/1999/xlink"
   xmlns:sodipodi="http://sodipodi.sourceforge.net/DTD/sodipodi-0.dtd"
   xmlns:inkscape="http://www.inkscape.org/namespaces/inkscape"
   width="1920"
   height="1080"
   id="svg2"
   version="1.1"
   inkscape:version="0.48.4 r9939"
   sodipodi:docname="IngenuityBulb06.svg">
  <defs
     id="defs4">
    <linearGradient
       inkscape:collect="always"
       id="linearGradient3904">
      <stop
         style="stop-color:#ad32ad;stop-opacity:1;"
         offset="0"
         id="stop3906" />
      <stop
         style="stop-color:#ad32ad;stop-opacity:0;"
         offset="1"
         id="stop3908" />
    </linearGradient>
    <linearGradient
       inkscape:collect="always"
       id="linearGradient3896">
      <stop
         style="stop-color:#ad32ad;stop-opacity:1;"
         offset="0"
         id="stop3898" />
      <stop
         style="stop-color:#ad32ad;stop-opacity:0;"
         offset="1"
         id="stop3900" />
    </linearGradient>
    <linearGradient
       id="linearGradient3834">
      <stop
         style="stop-color:#feffe8;stop-opacity:1;"
         offset="0"
         id="stop3836" />
      <stop
         style="stop-color:#fbff75;stop-opacity:1;"
         offset="1"
         id="stop3838" />
    </linearGradient>
    <linearGradient
       id="linearGradient3858">
      <stop
         style="stop-color:#eaeaea;stop-opacity:1;"
         offset="0"
         id="stop3860" />
      <stop
         style="stop-color:#b3b3b3;stop-opacity:1;"
         offset="1"
         id="stop3862" />
    </linearGradient>
    <linearGradient
       id="linearGradient3850">
      <stop
         style="stop-color:#c1c24e;stop-opacity:1;"
         offset="0"
         id="stop3852" />
      <stop
         style="stop-color:#808000;stop-opacity:1"
         offset="1"
         id="stop3854" />
    </linearGradient>
    <linearGradient
       id="linearGradient3046">
      <stop
         style="stop-color:#666600;stop-opacity:1;"
         offset="0"
         id="stop3048" />
      <stop
         id="stop3054"
         offset="0.5"
         style="stop-color:#d8d8d8;stop-opacity:1;" />
      <stop
         style="stop-color:#666600;stop-opacity:1;"
         offset="1"
         id="stop3050" />
    </linearGradient>
    <linearGradient
       id="linearGradient3022">
      <stop
         style="stop-color:#ffffff;stop-opacity:1;"
         offset="0"
         id="stop3024" />
      <stop
         id="stop3866"
         offset="0.34722221"
         style="stop-color:#f0fafc;stop-opacity:1;" />
      <stop
         style="stop-color:#6cd6e8;stop-opacity:1;"
         offset="1"
         id="stop3026" />
    </linearGradient>
    <linearGradient
       id="linearGradient4028">
      <stop
         style="stop-color:#ffffff;stop-opacity:1;"
         offset="0"
         id="stop4030" />
      <stop
         id="stop3868"
         offset="0.81944442"
         style="stop-color:#ffff7e;stop-opacity:1;" />
      <stop
         style="stop-color:#ffff79;stop-opacity:1;"
         offset="1"
         id="stop4032" />
    </linearGradient>
    <radialGradient
       inkscape:collect="always"
       xlink:href="#linearGradient4028"
       id="radialGradient4034"
       cx="356.68561"
       cy="385.71692"
       fx="356.68561"
       fy="385.71692"
       r="565.0625"
       gradientUnits="userSpaceOnUse"
       gradientTransform="matrix(0.01760019,-1.5576142,1.5852997,0.01791302,336.82842,1036.4577)" />
    <filter
       id="filter4053"
       inkscape:label="Glow"
       inkscape:menu="Shadows and Glows"
       inkscape:menu-tooltip="Glow of object's own color at the edges"
       color-interpolation-filters="sRGB">
      <feGaussianBlur
         id="feGaussianBlur4055"
         stdDeviation="5"
         result="result91" />
      <feComposite
         id="feComposite4057"
         in2="result91"
         in="SourceGraphic"
         operator="over" />
    </filter>
    <radialGradient
       inkscape:collect="always"
       xlink:href="#linearGradient3022"
       id="radialGradient3028"
       cx="400.69946"
       cy="510.15778"
       fx="400.69946"
       fy="510.15778"
       r="373.22147"
       gradientTransform="matrix(-0.00363955,-2.042709,3.0199573,6.6557027e-5,-579.1758,1292.0902)"
       gradientUnits="userSpaceOnUse" />
    <linearGradient
       inkscape:collect="always"
       xlink:href="#linearGradient3850"
       id="linearGradient3856"
       x1="338.89752"
       y1="723.55945"
       x2="426.1456"
       y2="723.55945"
       gradientUnits="userSpaceOnUse"
       gradientTransform="matrix(1.2218916,0,0,1.2218916,489.36999,-135.67836)" />
    <linearGradient
       inkscape:collect="always"
       xlink:href="#linearGradient3858"
       id="linearGradient3864"
       x1="339.57034"
       y1="782.13354"
       x2="424.20801"
       y2="781.11377"
       gradientUnits="userSpaceOnUse"
       gradientTransform="matrix(1.2218916,0,0,1.3170814,497.36999,-204.4881)" />
    <filter
       id="filter3073"
       inkscape:label="Noise fill"
       inkscape:menu="ABCs"
       inkscape:menu-tooltip="Basic noise fill texture; adjust color in Flood"
       color-interpolation-filters="sRGB">
      <feTurbulence
         id="feTurbulence3075"
         numOctaves="5"
         baseFrequency="0.010727969348659005"
         type="fractalNoise" />
      <feColorMatrix
         id="feColorMatrix3077"
         result="result0"
         values="1 0 0 0 0 0 1 0 0 0 0 0 1 0 0 0 0 0 3 -1 " />
      <feFlood
         id="feFlood3079"
         flood-opacity="1"
         flood-color="rgb(255,255,255)"
         result="result1" />
      <feBlend
         id="feBlend3081"
         in2="SourceGraphic"
         mode="normal"
         in="result1"
         result="result2" />
      <feComposite
         id="feComposite3083"
         in2="result0"
         operator="out"
         result="result3" />
      <feComposite
         id="feComposite3085"
         in2="SourceGraphic"
         operator="atop" />
    </filter>
    <radialGradient
       inkscape:collect="always"
       xlink:href="#linearGradient3834"
       id="radialGradient3840"
       cx="935.59125"
       cy="522.44141"
       fx="935.59125"
       fy="522.44141"
       r="135.90658"
       gradientTransform="matrix(-0.01516675,2.1253538,-1.4790552,-0.01055736,1679.3301,-1573.0532)"
       gradientUnits="userSpaceOnUse" />
    <linearGradient
       inkscape:collect="always"
       xlink:href="#linearGradient3896"
       id="linearGradient3902"
       x1="475.83414"
       y1="906.09412"
       x2="599.88428"
       y2="906.09412"
       gradientUnits="userSpaceOnUse" />
    <linearGradient
       inkscape:collect="always"
       xlink:href="#linearGradient3904"
       id="linearGradient3910"
       x1="1446.0173"
       y1="907.94562"
       x2="1307.1553"
       y2="906.09412"
       gradientUnits="userSpaceOnUse" />
    <filter
       id="filter3912"
       inkscape:label="Simple blur"
       inkscape:menu="ABCs"
       inkscape:menu-tooltip="Simple Gaussian blur, same as the blur slider in Fill and Stroke dialog"
       color-interpolation-filters="sRGB">
      <feGaussianBlur
         id="feGaussianBlur3914"
         stdDeviation="3" />
    </filter>
    <filter
       id="filter3918"
       inkscape:label="Simple blur"
       inkscape:menu="ABCs"
       inkscape:menu-tooltip="Simple Gaussian blur, same as the blur slider in Fill and Stroke dialog"
       color-interpolation-filters="sRGB">
      <feGaussianBlur
         id="feGaussianBlur3920"
         stdDeviation="3" />
    </filter>
    <linearGradient
       inkscape:collect="always"
       xlink:href="#linearGradient3858"
       id="linearGradient3952"
       gradientUnits="userSpaceOnUse"
       gradientTransform="matrix(1.2218916,0,0,1.3170814,497.36999,-204.4881)"
       x1="339.57034"
       y1="782.13354"
       x2="424.20801"
       y2="781.11377" />
    <linearGradient
       inkscape:collect="always"
       xlink:href="#linearGradient3850"
       id="linearGradient3954"
       gradientUnits="userSpaceOnUse"
       gradientTransform="matrix(1.2218916,0,0,1.2218916,489.36999,-135.67836)"
       x1="338.89752"
       y1="723.55945"
       x2="426.1456"
       y2="723.55945" />
    <radialGradient
       inkscape:collect="always"
       xlink:href="#linearGradient3834"
       id="radialGradient3956"
       gradientUnits="userSpaceOnUse"
       gradientTransform="matrix(-0.01516675,2.1253538,-1.4790552,-0.01055736,1679.3301,-1573.0532)"
       cx="935.59125"
       cy="522.44141"
       fx="935.59125"
       fy="522.44141"
       r="135.90658" />
    <radialGradient
       inkscape:collect="always"
       xlink:href="#linearGradient3834"
       id="radialGradient3964"
       gradientUnits="userSpaceOnUse"
       gradientTransform="matrix(-0.01516675,2.1253538,-1.4790552,-0.01055736,1679.3301,-1545.4154)"
       cx="935.59125"
       cy="522.44141"
       fx="935.59125"
       fy="522.44141"
       r="135.90658" />
    <linearGradient
       inkscape:collect="always"
       xlink:href="#linearGradient3850"
       id="linearGradient3970"
       gradientUnits="userSpaceOnUse"
       gradientTransform="matrix(1.2218916,0,0,1.2218916,489.36999,-108.04054)"
       x1="338.89752"
       y1="723.55945"
       x2="426.1456"
       y2="723.55945" />
    <linearGradient
       inkscape:collect="always"
       xlink:href="#linearGradient3858"
       id="linearGradient3973"
       gradientUnits="userSpaceOnUse"
       gradientTransform="matrix(1.2218916,0,0,1.3170814,489.36999,-180.85028)"
       x1="339.57034"
       y1="782.13354"
       x2="424.20801"
       y2="781.11377" />
    <filter
       id="filter3974"
       inkscape:label="Simple blur"
       inkscape:menu="ABCs"
       inkscape:menu-tooltip="Simple Gaussian blur, same as the blur slider in Fill and Stroke dialog"
       color-interpolation-filters="sRGB">
      <feGaussianBlur
         id="feGaussianBlur3976"
         stdDeviation="3" />
    </filter>
    <filter
       id="filter4013"
       inkscape:label="Simple blur"
       inkscape:menu="ABCs"
       inkscape:menu-tooltip="Simple Gaussian blur, same as the blur slider in Fill and Stroke dialog"
       color-interpolation-filters="sRGB">
      <feGaussianBlur
         id="feGaussianBlur4015"
         stdDeviation="3" />
    </filter>
    <filter
       id="filter4054"
       inkscape:label="Noise fill"
       inkscape:menu="ABCs"
       inkscape:menu-tooltip="Basic noise fill texture; adjust color in Flood"
       color-interpolation-filters="sRGB">
      <feTurbulence
         id="feTurbulence4056"
         numOctaves="5"
         baseFrequency="0.02"
         type="fractalNoise" />
      <feColorMatrix
         id="feColorMatrix4058"
         result="result0"
         values="1 0 0 0 0 0 1 0 0 0 0 0 1 0 0 0 0 0 3 -1 " />
      <feFlood
         id="feFlood4060"
         flood-opacity="1"
         flood-color="rgb(145,199,195)"
         result="result1" />
      <feBlend
         id="feBlend4062"
         in2="SourceGraphic"
         mode="normal"
         in="result1"
         result="result2" />
      <feComposite
         id="feComposite4064"
         in2="result0"
         operator="out"
         result="result3" />
      <feComposite
         id="feComposite4066"
         in2="SourceGraphic"
         operator="atop" />
    </filter>
    <filter
       id="filter4211"
       inkscape:label="Simple blur"
       inkscape:menu="ABCs"
       inkscape:menu-tooltip="Simple Gaussian blur, same as the blur slider in Fill and Stroke dialog"
       color-interpolation-filters="sRGB">
      <feGaussianBlur
         id="feGaussianBlur4213"
         stdDeviation="3" />
    </filter>
  </defs>
  <sodipodi:namedview
     id="base"
     pagecolor="#ffffff"
     bordercolor="#666666"
     borderopacity="1.0"
     inkscape:pageopacity="0.0"
     inkscape:pageshadow="2"
     inkscape:zoom="0.45520833"
     inkscape:cx="960"
     inkscape:cy="540"
     inkscape:document-units="px"
     inkscape:current-layer="layer2"
     showgrid="false"
     inkscape:window-width="1366"
     inkscape:window-height="705"
     inkscape:window-x="-8"
     inkscape:window-y="-8"
     inkscape:window-maximized="1"
     width="1960px"
     borderlayer="true"
     showguides="true"
     inkscape:guide-bbox="true" />
  <metadata
     id="metadata7">
    <rdf:RDF>
      <cc:Work
         rdf:about="">
        <dc:format>image/svg+xml</dc:format>
        <dc:type
           rdf:resource="http://purl.org/dc/dcmitype/StillImage" />
        <dc:title></dc:title>
      </cc:Work>
    </rdf:RDF>
  </metadata>
  <g
     inkscape:groupmode="layer"
     id="layer4"
     inkscape:label="Dump"
     style="display:none"
     sodipodi:insensitive="true">
    <g
       transform="translate(0,27.637818)"
       id="g3832"
       style="stroke:none;display:inline">
      <path
         inkscape:transform-center-y="-127.71581"
         inkscape:transform-center-x="-646.36491"
         inkscape:connector-curvature="0"
         id="path3023"
         d="m 2195.5848,221.45609 37.3641,254.43163 -1272.15813,0 1291.72983,-227.743"
         style="fill:#ffffff;fill-opacity:0.64361704;stroke:none" />
      <path
         style="fill:#ffffff;fill-opacity:0.64361704;stroke:none"
         d="M 2033.8957,-185.66509 2156.0272,40.643159 960.58961,475.74687 2096.5259,-180.05917"
         id="path3793"
         inkscape:connector-curvature="0"
         inkscape:transform-center-x="-598.01763"
         inkscape:transform-center-y="-331.34682" />
      <path
         inkscape:transform-center-y="-503.08899"
         inkscape:transform-center-x="-487.32648"
         inkscape:connector-curvature="0"
         id="path3795"
         d="M 1742.714,-512.93293 1934.8821,-342.04417 960.35241,475.68331 1803.4845,-529.08588"
         style="fill:#ffffff;fill-opacity:0.64361704;stroke:none" />
      <path
         style="fill:#ffffff;fill-opacity:0.64361704;stroke:none"
         d="m 1357.1605,-720.8741 239.0264,94.85755 L 960.10778,475.70471 1408.7415,-756.83764"
         id="path3797"
         inkscape:connector-curvature="0"
         inkscape:transform-center-x="-317.85657"
         inkscape:transform-center-y="-616.95417" />
      <path
         inkscape:transform-center-y="-656.40557"
         inkscape:transform-center-x="-91.975165"
         inkscape:connector-curvature="0"
         id="path3799"
         d="m 923.73867,-784.40782 257.05453,7.3851 -220.90798,1252.83121 0.0235,-1311.65272"
         style="fill:#ffffff;fill-opacity:0.64361704;stroke:none" />
      <path
         style="fill:#ffffff;fill-opacity:0.64361704;stroke:none"
         d="M 494.72557,-695.87099 738.80366,-776.8491 959.71158,475.98213 511.12201,-756.57629"
         id="path3801"
         inkscape:connector-curvature="0"
         inkscape:transform-center-x="233.0722"
         inkscape:transform-center-y="-626.82119" />
      <path
         inkscape:transform-center-y="-551.04367"
         inkscape:transform-center-x="422.23104"
         inkscape:connector-curvature="0"
         id="path3803"
         d="M 121.8665,-465.94246 323.52874,-625.51662 959.60779,476.20469 116.51168,-528.5947"
         style="fill:#ffffff;fill-opacity:0.64361704;stroke:none" />
      <path
         style="fill:#ffffff;fill-opacity:0.64361704;stroke:none"
         d="M -149.86623,-122.35501 -14.943286,-341.27822 959.58638,476.44932 -176.32644,-179.3974"
         id="path3805"
         inkscape:connector-curvature="0"
         inkscape:transform-center-x="568.66081"
         inkscape:transform-center-y="-408.80215" />
      <path
         inkscape:transform-center-y="-217.25306"
         inkscape:transform-center-x="646.50168"
         inkscape:connector-curvature="0"
         id="path3807"
         d="M -287.69764,293.44965 -235.78769,41.582764 959.64994,476.68652 -332.07175,248.89727"
         style="fill:#ffffff;fill-opacity:0.64361704;stroke:none" />
      <path
         style="fill:#ffffff;fill-opacity:0.64361704;stroke:none"
         d="m -275.00323,731.31934 -37.36415,-254.4317 1272.15817,4e-5 -1291.72985,227.74296"
         id="path3809"
         inkscape:connector-curvature="0"
         inkscape:transform-center-x="646.36491"
         inkscape:transform-center-y="127.71579" />
      <path
         inkscape:transform-center-y="331.34681"
         inkscape:transform-center-x="598.01766"
         inkscape:connector-curvature="0"
         id="path3811"
         d="M -113.31413,1138.4405 -235.44571,912.13221 959.99195,477.02853 -175.94438,1132.8345"
         style="fill:#ffffff;fill-opacity:0.64361704;stroke:none" />
      <path
         style="fill:#ffffff;fill-opacity:0.64361704;stroke:none"
         d="M 177.86756,1465.7083 -14.300578,1294.8196 960.22915,477.09209 117.09701,1481.8612"
         id="path3813"
         inkscape:connector-curvature="0"
         inkscape:transform-center-x="487.32649"
         inkscape:transform-center-y="503.08894" />
      <path
         inkscape:transform-center-y="616.95414"
         inkscape:transform-center-x="317.85655"
         inkscape:connector-curvature="0"
         id="path3815"
         d="M 563.42103,1673.6495 324.39467,1578.792 960.47378,477.07069 511.84001,1709.613"
         style="fill:#ffffff;fill-opacity:0.64361704;stroke:none" />
      <path
         style="fill:#ffffff;fill-opacity:0.64361704;stroke:none"
         d="m 996.84285,1737.1832 -257.05448,-7.385 220.90797,-1252.83129 -0.0236,1311.65269"
         id="path3817"
         inkscape:connector-curvature="0"
         inkscape:transform-center-x="91.975165"
         inkscape:transform-center-y="656.40555" />
      <path
         inkscape:transform-center-y="626.82123"
         inkscape:transform-center-x="-233.07217"
         inkscape:connector-curvature="0"
         id="path3819"
         d="m 1425.8559,1648.6464 -244.078,80.9782 L 960.86998,476.79327 1409.4594,1709.3517"
         style="fill:#ffffff;fill-opacity:0.64361704;stroke:none" />
      <path
         style="fill:#ffffff;fill-opacity:0.64361704;stroke:none"
         d="M 1798.715,1418.7179 1597.0529,1578.2921 960.97376,476.57071 1804.0697,1481.3702"
         id="path3821"
         inkscape:connector-curvature="0"
         inkscape:transform-center-x="-422.23096"
         inkscape:transform-center-y="551.0437" />
      <path
         inkscape:transform-center-y="408.80219"
         inkscape:transform-center-x="-568.66076"
         inkscape:connector-curvature="0"
         id="path3823"
         d="M 2070.4477,1075.1305 1935.5249,1294.0537 960.99516,476.32608 2096.9079,1132.1729"
         style="fill:#ffffff;fill-opacity:0.64361704;stroke:none" />
      <path
         style="fill:#ffffff;fill-opacity:0.64361704;stroke:none"
         d="M 2208.2791,659.32586 2156.3693,911.19269 960.9316,476.08888 2252.6532,703.87826"
         id="path3825"
         inkscape:connector-curvature="0"
         inkscape:transform-center-x="-646.50163"
         inkscape:transform-center-y="217.25308" />
    </g>
  </g>
  <g
     inkscape:groupmode="layer"
     id="layer3"
     inkscape:label="Background"
     transform="translate(0,27.637818)"
     sodipodi:insensitive="true">
    <rect
       style="fill:url(#radialGradient3028);fill-opacity:1"
       id="rect3012"
       width="2026.443"
       height="1196.4097"
       x="-50.134453"
       y="-77.960541" />
  </g>
  <g
     inkscape:groupmode="layer"
     id="layer2"
     inkscape:label="Shine"
     style="display:inline"
     transform="translate(0,27.637818)">
    <rect
       style="fill:#00a5a5;fill-opacity:1;stroke:none;display:inline"
       id="rect4017"
       width="858.5788"
       height="858.5788"
       x="611.32233"
       y="-741.32574"
       transform="matrix(0.7063213,0.70789139,-0.70789139,0.7063213,0,-27.637818)" />
    <rect
       transform="matrix(0.7063213,0.70789139,-0.70789139,0.7063213,0,0)"
       y="-702.18097"
       x="652.73145"
       height="742.46259"
       width="742.46259"
       id="rect4052"
       style="fill:#00baba;fill-opacity:1;stroke:none;display:inline;" />
    <g
       id="g3913"
       style="fill:#ffffff;fill-opacity:0.41176471;stroke:none"
       transform="matrix(0.99999391,-0.00349065,0.00349065,0.99999391,0.22091634,3.218184)">
      <path
         style="fill:#ffffff;fill-opacity:0.41176471;stroke:none"
         d="m 2269.2625,-33.183541 109.4986,511.622421 -1423.48087,0 1400.82597,-509.734515"
         id="path3893"
         inkscape:connector-curvature="0"
         inkscape:transform-center-x="-712.24044"
         inkscape:transform-center-y="-256.31121" />
      <path
         inkscape:transform-center-y="-646.16085"
         inkscape:transform-center-x="-545.28646"
         inkscape:connector-curvature="0"
         id="path3895"
         d="M 1632.5461,-758.30257 2045.2915,-436.76141 954.84186,478.23446 1700.2858,-812.67841"
         style="fill:#ffffff;fill-opacity:0.41176471;stroke:none" />
      <path
         style="fill:#ffffff;fill-opacity:0.41176471;stroke:none"
         d="M 678.69554,-904.50257 1201.5595,-923.49538 954.37465,478.35964 695.63504,-989.69912"
         id="path3897"
         inkscape:connector-curvature="0"
         inkscape:transform-center-x="14.6527"
         inkscape:transform-center-y="-734.60862" />
      <path
         inkscape:transform-center-y="-616.56833"
         inkscape:transform-center-x="571.61102"
         inkscape:connector-curvature="0"
         id="path3899"
         d="M -145.97194,-403.37494 242.35675,-754.01476 954.09721,478.75585 -187.75881,-479.52779"
         style="fill:#ffffff;fill-opacity:0.41176471;stroke:none" />
      <path
         style="fill:#ffffff;fill-opacity:0.41176471;stroke:none"
         d="M -455.58524,510.59713 -383.49514,-7.6214263 954.13936,479.2377 -536.54595,479.12074"
         id="path3901"
         inkscape:connector-curvature="0"
         inkscape:transform-center-x="745.98352"
         inkscape:transform-center-y="-227.45102" />
      <path
         inkscape:transform-center-y="479.69309"
         inkscape:transform-center-x="669.11609"
         inkscape:connector-curvature="0"
         id="path3903"
         d="M -105.27287,1409.756 -383.15311,966.43888 954.48138,479.57973 -187.525,1437.6842"
         style="fill:#ffffff;fill-opacity:0.41176471;stroke:none" />
      <path
         style="fill:#ffffff;fill-opacity:0.41176471;stroke:none"
         d="M 741.05016,1873.3752 243.22279,1712.3925 954.96323,479.62189 695.99327,1947.64"
         id="path3905"
         inkscape:connector-curvature="0"
         inkscape:transform-center-x="355.68721"
         inkscape:transform-center-y="734.69207" />
      <path
         inkscape:transform-center-y="701.3331"
         inkscape:transform-center-x="-373.1999"
         inkscape:connector-curvature="0"
         id="path3907"
         d="M 1687.3799,1684.5221 1202.5443,1881.1995 955.35945,479.34446 1700.6008,1770.3743"
         style="fill:#ffffff;fill-opacity:0.41176471;stroke:none" />
      <path
         inkscape:transform-center-y="457.43634"
         inkscape:transform-center-x="-701.0774"
         inkscape:connector-curvature="0"
         id="path3911"
         d="M 2290.9181,931.56321 2045.9343,1393.8732 955.48464,478.87725 2356.2306,988.83158"
         style="fill:#ffffff;fill-opacity:0.41176471;stroke:none" />
    </g>
    <path
       style="fill:url(#radialGradient4034);fill-opacity:1;stroke:none;"
       d="M 957.52269,-418.29387 937.6563,257.65178 801.95528,-404.27298 897.42059,264.45259 651.24312,-363.44891 859.05352,277.80541 509.89472,-297.06024 823.69395,297.21263 382.22041,-207.13831 792.4222,322.1766 272.13413,-96.407968 766.23101,351.89562 182.90581,31.76179 746.02553,385.54029 117.30984,173.50654 732.06857,421.92192 77.328008,324.41689 725.06089,460.04519 64.14937,480.0339 725.14849,498.74904 78.170249,635.5518 732.41896,536.84466 118.99433,786.31354 746.43432,573.1986 185.38298,927.61237 767.04857,606.62215 275.30494,1055.2867 793.41496,636.23058 386.03529,1165.4225 824.74511,661.05633 514.20504,1254.6508 860.22148,680.32531 655.90023,1320.2468 898.67607,693.42933 806.86012,1360.2285 938.97022,700.06427 962.47708,1373.4071 979.8484,699.92603 1117.9951,1359.3864 1020.0844,693.12522 1268.7073,1318.5127 1058.4514,679.77239 1410.0557,1252.1241 1093.8109,660.33754 1537.73,1162.2021 1125.0242,635.31828 1647.8658,1051.4718 1151.2737,605.65456 1737.0447,923.35161 1171.567,572.0375 1802.6901,781.60686 1185.4655,535.6559 1842.672,630.64697 1192.5023,497.53262 1855.8507,475.07952 1192.3856,458.82878 1841.8297,319.5616 1185.0568,420.73316 1800.9562,168.79988 1170.9829,384.40684 1734.5676,27.451488 1150.5148,350.90039 l 494.1306,-451.12323 -520.5262,421.57007 409.796,-531.65633 -441.1846,506.85824 313.0148,-596.08657 -348.462,576.81758 206.7667,-642.41354 -245.2214,629.28189 94.2617,-669.26373 -134.55597,662.60113 z m 1.06903,896.64044 0.23359,0 0.17525,0.0554 0.14597,0.13823 0.0578,0.0828 0.0295,0.16589 -0.0295,0.11045 -0.0295,0.0553 -0.0874,0.13825 -0.0579,0.0554 -0.0874,0.0276 -0.14611,0.0554 -0.11697,0 -0.0874,-0.0276 -0.14596,-0.0828 -0.0295,-0.0554 -0.0874,-0.13827 -0.0295,-0.0828 0,-0.11057 0,-0.0276 0.0578,-0.16587 0.17514,-0.13824 0.0295,-0.0276 z"
       id="path3117"
       inkscape:connector-curvature="0"
       sodipodi:nodetypes="ccccccccccccccccccccccccccccccccccccccccccccccccccccccccccccccccccccccccccccccccccccccccccccccccc"
       transform="matrix(0.85,0,0,0.85,144.00001,71.633492)" />
  </g>
  <g
     inkscape:groupmode="layer"
     id="layer5"
     inkscape:label="Bulb"
     style="display:inline"
     sodipodi:insensitive="true">
    <path
       style="fill:url(#linearGradient3973);fill-opacity:1;stroke:none"
       d="m 904.41505,831.37546 31.99085,21.83926 44.7872,0 28.3849,-21.67272"
       id="path3067"
       inkscape:connector-curvature="0"
       sodipodi:nodetypes="cccc" />
    <path
       style="fill:url(#linearGradient3970);fill-opacity:1;stroke:none"
       d="m 903.38805,716.23718 106.55765,0 0,114.4014 -106.55765,0 z"
       id="rect2987"
       inkscape:connector-curvature="0" />
    <path
       style="fill:none;stroke:none"
       d="m 933.75759,717.70447 c 0.76489,-72.15445 -6.65043,-142.81839 -21.17903,-204.94621"
       id="path2993"
       inkscape:connector-curvature="0"
       sodipodi:nodetypes="cc" />
    <path
       style="fill:none;stroke:none"
       d="m 981.13173,717.12731 c -1.66478,-73.87066 7.34759,-145.04589 21.17897,-204.94621"
       id="path2993-1"
       inkscape:connector-curvature="0"
       sodipodi:nodetypes="cc" />
    <path
       style="fill:url(#radialGradient3964);fill-opacity:1;stroke:none"
       d="m 905.94946,715.6137 c 0.32957,-66.12457 -81.85913,-126.79622 -83.66061,-207.90738 -1.80147,-81.11116 56.37131,-145.65762 135.8026,-146.00804 79.43145,-0.35042 137.67225,64.23364 135.93185,144.7541 -1.7404,80.52046 -87.5696,142.92489 -87.2401,209.04945"
       id="path2989-7"
       inkscape:connector-curvature="0"
       sodipodi:nodetypes="czzzc" />
    <path
       style="fill:none;stroke:none"
       d="M 1016.2365,718.70991 897.87007,743.23623"
       id="path3033"
       inkscape:connector-curvature="0" />
    <path
       style="fill:none;stroke:none"
       d="M 1016.2365,746.96853 897.87007,771.49485"
       id="path3033-4"
       inkscape:connector-curvature="0" />
    <path
       style="fill:none;stroke:none"
       d="M 1024.2365,775.22712 905.87007,801.66414"
       id="path3033-0"
       inkscape:connector-curvature="0" />
    <path
       style="fill:none;stroke:none"
       d="M 1024.2365,805.68717 905.87007,832.1242"
       id="path3033-9"
       inkscape:connector-curvature="0" />
    <path
       style="font-size:medium;font-style:normal;font-variant:normal;font-weight:normal;font-stretch:normal;text-indent:0;text-align:start;text-decoration:none;line-height:normal;letter-spacing:normal;word-spacing:normal;text-transform:none;direction:ltr;block-progression:tb;writing-mode:lr-tb;text-anchor:start;baseline-shift:baseline;color:#000000;fill:#ffffff;fill-opacity:1;stroke:none;stroke-width:0.63538373;marker:none;visibility:visible;display:inline;overflow:visible;enable-background:accumulate;font-family:Sans;-inkscape-font-specification:Sans"
       d="m 964.9968,474.14132 a 4.6997701,4.8668693 0 0 0 -4.24177,3.32051 l -10.50963,32.48349 -3.05491,-31.02898 a 4.6997701,4.8668693 0 0 0 -9.08824,-1.21483 l -10.17638,28.4807 -2.87106,-19.81413 a 4.6997701,4.8668693 0 0 0 -8.97237,-1.17862 l -8.98662,21.87148 -7.75052,-7.84713 -6.58655,6.94888 12.69321,12.84405 a 4.6997701,4.8668693 0 0 0 7.60059,-1.56948 l 5.17317,-12.5918 3.1188,21.44035 a 4.6997701,4.8668693 0 0 0 9.04099,0.96889 l 9.4977,-26.53531 3.21034,32.74193 a 4.6997701,4.8668693 0 0 0 9.12608,1.03403 l 10.85257,-33.53212 3.70123,31.67022 a 4.6997701,4.8668693 0 0 0 9.1697,0.7317 l 7.73995,-28.57183 4.353,17.66522 a 4.6997701,4.8668693 0 0 0 8.81052,0.86604 l 8.0945,-17.86612 5.0126,7.28416 7.6437,-5.64767 -9.6667,-14.06324 a 4.6997701,4.8668693 0 0 0 -8.092,0.75325 l -5.93344,13.13241 -5.47109,-22.0754 a 4.6997701,4.8668693 0 0 0 -9.05121,-0.11689 l -6.13556,22.53142 -3.36342,-28.82149 a 4.6997701,4.8668693 0 0 0 -4.88718,-4.2938 z"
       id="path4039"
       inkscape:connector-curvature="0" />
  </g>
  <g
     inkscape:label="Overlays"
     inkscape:groupmode="layer"
     id="layer1"
     style="display:inline"
     transform="translate(0,27.637818)"
     sodipodi:insensitive="true">
    <path
       style="opacity:0.31858407;fill:#000000;fill-opacity:1;stroke:none;filter:url(#filter3912)"
       d="m 559.89103,776.88957 0,28.29497 -130.34375,0 62.3125,70.46795 -71.28125,73.23008 232.5625,0 0,-2.62739 1.1875,0.26947 0,-25.93705 594.18747,0 0,27.95812 0.9375,-0.23579 0,2.22318 232.5625,0 -71.2812,-73.23008 62.3124,-70.46795 -131.8124,0 0,-29.94551 -781.34377,0 z"
       id="path3881"
       inkscape:connector-curvature="0" />
    <path
       style="fill:#701070;fill-opacity:1;stroke:none"
       d="m 1258.5647,794.71401 0,143.69802 232.5625,0 -71.2812,-73.23008 62.3124,-70.46794 -223.5937,0 z"
       id="rect3848"
       inkscape:connector-curvature="0" />
    <path
       style="fill:url(#linearGradient3910);fill-opacity:1;stroke:none"
       d="m 1258.5647,806.672 0,117.76097 198.9687,0 -57.6874,-59.25102 51.7187,-58.50995 -193,0 z"
       id="rect3854"
       inkscape:connector-curvature="0" />
    <path
       inkscape:connector-curvature="0"
       id="path3866"
       d="m 662.2516,793.03842 0,143.69802 -232.5625,0 71.2812,-73.23008 -62.3124,-70.46794 223.5937,0 z"
       style="fill:#701070;fill-opacity:1;stroke:none" />
    <path
       inkscape:connector-curvature="0"
       id="path3868"
       d="m 662.2516,804.99641 0,117.76097 -198.9687,0 57.6874,-59.25102 -51.7187,-58.50995 193,0 z"
       style="fill:url(#linearGradient3902);fill-opacity:1;stroke:none" />
    <rect
       style="fill:#701070;fill-opacity:1;stroke:none"
       id="rect3842"
       width="781.33075"
       height="143.69276"
       x="569.00293"
       y="764.77075" />
    <path
       style="fill:#701070;fill-opacity:1;stroke:none"
       d="m 570.85443,768.76222 92.57474,21.95305 0,143.69277 -92.57474,-21.95306 z"
       id="rect3876"
       inkscape:connector-curvature="0"
       sodipodi:nodetypes="ccccc" />
    <path
       sodipodi:nodetypes="ccccc"
       inkscape:connector-curvature="0"
       id="path3879"
       d="m 1350.1852,770.75794 -92.5747,21.95306 0,143.69277 92.5747,-21.95306 z"
       style="fill:#701070;fill-opacity:1;stroke:none" />
    <rect
       y="776.74512"
       x="569.15143"
       height="117.74823"
       width="779.47925"
       id="rect3844"
       style="fill:#ad32ad;fill-opacity:1;stroke:none" />
    <g
       id="g3870"
       transform="matrix(1,0,0,1.0779036,4,-62.55152)"
       style="fill:#f4f4f4;fill-opacity:1">
      <text
         sodipodi:linespacing="125%"
         id="text3072"
         y="876.84821"
         x="955.80615"
         style="font-size:115.58229065px;font-style:normal;font-variant:normal;font-weight:normal;font-stretch:normal;text-align:center;line-height:125%;letter-spacing:0px;word-spacing:0px;text-anchor:middle;fill:#f4f4f4;fill-opacity:1;stroke:none;font-family:Sierra Madre;-inkscape-font-specification:Sierra Madre"
         xml:space="preserve"><tspan
           dx="0 33.753201 28.169388 32.760498 29.870815 31.572243 33.580429 32.18576 22.892334"
           style="font-size:115.58229065px;font-style:normal;font-variant:normal;font-weight:normal;font-stretch:normal;text-align:center;text-anchor:middle;fill:#f4f4f4;fill-opacity:1;font-family:Sierra Madre;-inkscape-font-specification:Sierra Madre"
           y="876.84821"
           x="955.80615"
           id="tspan3074"
           sodipodi:role="line">INGENUITY</tspan></text>
    </g>
    <path
       inkscape:connector-curvature="0"
       id="path3204"
       d="m 574.55333,123.71665 c -42.97817,-0.22824 -86.20598,30.82067 -95.81327,75.58038 -2.20563,11.15101 1.079,23.65035 5.60609,32.85378 -5.50807,3.89339 -6.68483,11.8114 -12.26333,15.87655 -5.00656,6.00069 -13.00387,11.8942 -13.18707,20.41271 2.31909,13.05416 16.19284,17.88382 27.01119,20.47941 16.34879,4.75294 36.0786,2.11374 47.55626,-11.90741 13.44642,-12.63423 23.56,-29.71118 34.56031,-43.76057 10.63794,13.63991 30.59629,16.6742 45.02467,8.02679 5.74898,-2.54499 11.28192,-5.84943 16.3557,-9.76121 -6.90836,16.45034 -7.17898,38.90428 6.84836,51.39866 13.11561,11.94877 32.63274,8.98216 47.1751,1.71925 5.95555,-3.0195 11.37414,-7.01545 16.18015,-11.69212 0.7407,11.17393 11.20884,19.99557 21.78732,18.14463 9.82351,-0.0944 18.82632,-4.93311 27.20231,-9.7394 5.7748,10.43343 18.95779,11.21816 29.01792,8.67207 20.70948,-3.08905 39.87544,-14.78684 53.7357,-30.85254 -0.17394,12.87931 8.31401,24.51138 20.00357,28.21756 21.0386,8.47307 44.84182,0.78418 62.7819,-11.70729 3.44688,11.65318 15.94646,16.81407 26.81981,15.45205 13.43199,-0.3104 25.73907,-6.00383 38.03257,-11.18272 16.60014,15.48051 42.01251,12.94472 60.80681,3.40212 3.7779,-1.52193 6.9883,-3.97613 10.7345,-5.53678 9.2834,11.16721 25.197,14.96722 38.5102,10.53989 14.4542,7.55874 30.8197,-0.87366 42.8737,-9.63933 11.8074,-8.14212 27.3188,-14.14594 33.2862,-28.58446 1.7593,-9.81828 -8.3856,-19.36712 -17.519,-16.6437 17.3889,-28.96431 35.8469,-57.36994 51.8882,-87.15425 1.4293,-6.18233 -6.0018,-8.12002 -10.3521,-6.63746 -11.7006,0 -23.4012,0 -35.1019,0 -9.5798,19.34201 -22.0778,36.80903 -32.9995,55.30109 -18.1701,-11.64582 -42.5848,-8.07605 -58.832,5.40336 -3.815,-10.35014 -15.5081,-14.51205 -25.3231,-12.07418 -13.8132,1.2477 -26.9242,6.92664 -37.90477,15.54301 -1.0943,-10.69485 -11.49184,-18.52674 -21.53244,-16.24345 -11.61944,0.70504 -22.45183,6.96905 -34.11444,6.87095 -2.13093,-13.05892 -16.90089,-24.40284 -28.98607,-17.17736 -4.32506,2.39529 -7.64959,6.57111 -9.93808,10.87343 -14.95438,-0.87636 -29.34326,5.32621 -41.72719,13.60847 1.17408,-14.28905 -12.56912,-29.69442 -26.5971,-24.88215 -5.74978,1.32827 -8.58114,7.69112 -12.39074,11.07356 -8.85886,0.50941 -17.796,-0.139 -26.5971,0.16677 -4.64843,2.38761 -1.31415,-1.8617 -6.72088,-0.58782 -14.41019,0.49916 -29.15241,-1.09558 -43.35175,0.85465 -5.23606,3.47695 -5.15947,13.51659 -12.48631,13.40835 -5.59027,2.26831 -11.72196,5.87861 -17.67831,5.20324 -7.12484,-16.57816 -27.61653,-23.93742 -43.4791,-17.24407 -6.3353,1.72882 -13.06975,5.2517 -18.09239,8.63871 8.46529,-18.89109 8.53264,-44.70744 -6.65724,-59.8706 -10.2446,-9.3803 -24.64638,-8.62258 -37.36335,-7.90492 -12.71294,-0.35093 -23.94296,-7.95052 -36.79001,-6.93765 z m 712.99347,0.36689 c -38.3483,2.71733 -76.4551,27.73222 -89.4075,66.65593 -3.7173,13.60889 -2.729,29.85443 4.01,41.84494 -4.8233,3.21002 -5.892,10.00161 -10.4477,13.74189 -4.9683,7.50159 -15.6404,13.28321 -14.6842,23.71476 1.554,11.14144 13.4313,15.78835 22.4563,18.77836 15.5056,4.73738 33.6854,4.87228 46.8873,-5.93703 14.2276,13.88077 38.6884,9.33276 50.9744,-5.30142 10.4404,-11.19468 17.2823,-26.08813 20.344,-40.99406 5.4456,-3.12527 11.3446,-6.034 15.8309,-10.80673 17.239,-16.5678 23.1011,-44.5943 15.4167,-67.37527 5.6436,-5.97595 9.4186,-17.70139 2.1024,-23.84818 -5.8498,-4.01756 -12.8121,0.41073 -18.5703,0.86721 -13.0205,-9.22612 -29.4147,-11.65655 -44.9123,-11.3404 z m -726.81759,39.4579 c 6.72741,-0.0854 13.27396,1.6424 19.84431,3.10193 -6.43411,7.44169 -13.37346,16.59233 -19.58949,22.88091 -0.76849,-8.89337 -3.57782,-17.5538 -7.93135,-25.24905 2.53653,-0.44842 5.10527,-0.65247 7.67653,-0.73379 z m 718.94979,0.63373 c 6.2969,0.22752 12.8343,0.23337 18.6021,2.80174 -3.2125,3.26669 -5.3787,9.80695 -10.0336,10.40648 -3.8578,-0.78113 -8.659,1.37254 -11.7855,0.46695 -1.208,-4.40332 -3.6078,-8.86599 -4.9055,-12.77461 2.7028,-0.59251 5.3627,-0.82376 8.1225,-0.90056 z m -666.4245,16.07667 c -2.72175,11.0419 -11.32847,20.17467 -21.5325,23.88153 7.36546,-7.95016 14.23912,-16.44887 21.62806,-24.4152 l -0.0955,0.53367 z m 780.4258,7.10442 c -11.2625,0.38174 -22.5309,-0.0122 -33.7958,0.13342 -7.4334,18.77358 -19.9301,34.77138 -30.3191,51.81925 -7.3817,9.77638 -15.4458,23.35822 -9.3377,35.90202 1.2191,2.58969 4.274,4.5548 0.8919,6.77088 -10.4186,13.74232 -8.5843,38.24706 7.8359,46.09536 12.7695,6.18773 27.0961,-1.30386 37.204,-9.60598 8.805,-7.83064 14.8509,-18.7805 22.8385,-27.45042 22.4927,-4.58868 39.0574,-22.97722 52.8655,-40.93254 1.8879,-3.15652 7.428,-7.26609 1.3799,-8.59829 -6.1794,-3.60192 -10.8613,-9.94067 -12.8686,-16.91053 6.6816,-11.04921 13.3406,-22.11341 20.0354,-33.15397 -14.7205,-6.19749 -30.8257,-2.72708 -46.2186,-3.73566 -1.0239,4.38073 -3.5088,-0.54296 -6.2431,-0.20012 -1.4133,-0.22442 -2.8444,-0.18352 -4.2682,-0.13342 z m -879.10582,3.96914 c -0.44756,7.12376 6.26277,13.43887 2.45267,20.44606 -0.71189,3.1765 -5.7889,7.95612 -7.42171,3.30205 -3.64567,-7.95814 0.51454,-17.25785 4.96904,-23.74811 z m 716.87942,0.63373 c 1.7861,6.08108 5.2682,12.29495 3.8223,19.07854 0.079,4.09115 -4.5994,8.89852 -7.8995,5.7369 -3.6952,-7.89481 -0.1765,-18.40223 4.0772,-24.81544 z m -404.56256,21.91364 c 1.7748,3.74875 -3.74788,5.39454 -4.65051,8.73877 -5.75776,7.9584 -3.48881,3.78513 0.56027,-2.29945 1.34959,-2.14175 2.76359,-4.43149 4.09024,-6.43932 z m 274.34816,9.0056 c -2.9876,11.09408 -9.0987,22.74359 -19.239,27.91738 -4.6715,-1.17367 -1.3827,-6.70679 -0.1275,-9.40586 4.0674,-8.79156 11.0185,-15.81597 19.6214,-19.64556 l -0.2334,1.03896 -0.021,0.0951 z m -170.38056,7.13778 c -0.3834,2.33702 -4.35191,7.00678 -5.95678,10.15469 -1.39008,3.76593 -4.99468,-0.9679 -7.93105,0.51862 -8.56979,1.5951 -13.94378,10.51086 -22.96588,11.10691 -3.45091,0.58756 4.35454,-3.23626 5.68023,-4.74261 4.70314,-3.32278 9.20518,-7.35041 13.43146,-11.06723 6.59827,2.87421 12.4765,-3.14141 17.74202,-5.97038 z m -249.59868,7.23784 c -0.60274,2.92488 2.61152,7.47612 -1.46523,8.1384 -0.53403,-2.77328 0.15132,-6.16646 1.46523,-8.1384 z m 597.08094,6.73752 c -2.3827,5.76909 -5.5886,11.68631 -10.9573,14.90928 3.5352,-4.85282 7.7384,-10.85035 10.9573,-14.90928 z m -239.151,3.13529 c 1.432,4.9543 -4.9025,3.69805 -7.4534,4.8697 2.4134,-1.33602 5.703,-4.30026 7.4534,-4.8697 z"
       style="font-size:159.54411316px;font-style:normal;font-variant:normal;font-weight:normal;font-stretch:normal;line-height:125%;letter-spacing:0px;word-spacing:0px;opacity:0.31415932;fill:#000000;fill-opacity:1;stroke:none;display:inline;filter:url(#filter3974);font-family:Alfaowner Script;-inkscape-font-specification:Alfaowner Script"
       transform="matrix(1,0,0,1.0966227,4,-38.776874)" />
    <path
       style="font-size:159.54411316px;font-style:normal;font-variant:normal;font-weight:normal;font-stretch:normal;line-height:125%;letter-spacing:0px;word-spacing:0px;fill:#782121;fill-opacity:1;stroke:none;display:inline;font-family:Alfaowner Script;-inkscape-font-specification:Alfaowner Script"
       d="m 584.8931,115.38585 c -42.97817,-0.25029 -86.20598,33.79865 -95.81327,82.88316 -2.20563,12.22846 1.079,25.93552 5.60609,36.02821 -5.50807,4.26958 -6.68483,12.95265 -12.26333,17.41058 -5.00656,6.58049 -13.00387,13.04345 -13.18707,22.38504 2.31909,14.31549 16.19284,19.61181 27.01119,22.45819 16.34879,5.21218 36.0786,2.31797 47.55626,-13.05794 13.44642,-13.85498 23.56,-32.58195 34.56031,-47.98883 10.63794,14.95783 30.59629,18.2853 45.02467,8.80236 5.74898,-2.7909 11.28192,-6.41462 16.3557,-10.70437 -6.90836,18.03982 -7.17898,42.66332 6.84836,56.36494 13.11561,13.10329 32.63274,9.85004 47.1751,1.88537 5.95555,-3.31125 11.37414,-7.6933 16.18015,-12.82184 0.7407,12.25358 11.20884,21.92759 21.78732,19.89781 9.82351,-0.10352 18.82632,-5.40976 27.20231,-10.68045 5.7748,11.44154 18.95779,12.30209 29.01792,9.50999 20.70948,-3.38752 39.87544,-16.21558 53.7357,-33.8336 -0.17394,14.12375 8.31401,26.87974 20.00357,30.94402 21.0386,9.29176 44.84182,0.85995 62.7819,-12.83848 3.44688,12.77914 15.94646,18.43869 26.81981,16.94507 13.43199,-0.34039 25.73907,-6.58394 38.03257,-12.26322 16.60014,16.97628 42.01254,14.19547 60.80684,3.73084 3.7779,-1.66898 6.9883,-4.36032 10.7345,-6.07176 9.2834,12.24622 25.197,16.41339 38.5102,11.55828 14.4542,8.28909 30.8197,-0.95807 42.8737,-10.57071 11.8074,-8.92883 27.3188,-15.51276 33.2862,-31.34636 1.7593,-10.76695 -8.3856,-21.23843 -17.519,-18.25186 17.3889,-31.76292 35.8469,-62.91318 51.8882,-95.57533 1.4293,-6.77969 -6.0018,-8.9046 -10.3521,-7.27879 -11.7006,0 -23.4012,0 -35.1019,0 -9.5798,21.21088 -22.0778,40.36561 -32.9995,60.64443 -18.1701,-12.77107 -42.5848,-8.85638 -58.832,5.92545 -3.815,-11.3502 -15.5081,-15.91425 -25.3231,-13.24083 -13.8132,1.36826 -26.9242,7.59592 -37.9048,17.04482 -1.0943,-11.72821 -11.49184,-20.31684 -21.53244,-17.81293 -11.61944,0.77316 -22.45183,7.64242 -34.11444,7.53484 -2.13093,-14.32071 -16.90089,-26.76071 -28.98607,-18.83709 -4.32506,2.62673 -7.64959,7.20603 -9.93808,11.92405 -14.95438,-0.96103 -29.34326,5.84085 -41.72719,14.92336 1.17408,-15.6697 -12.56912,-32.56357 -26.5971,-27.28633 -5.74978,1.45661 -8.58114,8.43426 -12.39074,12.14352 -8.85886,0.55863 -17.796,-0.15243 -26.5971,0.18288 -4.64843,2.61831 -1.31415,-2.04158 -6.72088,-0.64462 -14.41019,0.54739 -29.15241,-1.20143 -43.35175,0.93723 -5.23606,3.81291 -5.15947,14.8226 -12.48631,14.7039 -5.59027,2.48748 -11.72196,6.44662 -17.67831,5.706 -7.12484,-18.17999 -27.61653,-26.25032 -43.4791,-18.91024 -6.3353,1.89586 -13.06975,5.75913 -18.09239,9.4734 8.46529,-20.7164 8.53264,-49.02719 -6.65724,-65.65546 -10.2446,-10.28665 -24.64638,-9.45572 -37.36335,-8.66871 -12.71294,-0.38484 -23.94296,-8.71872 -36.79001,-7.60799 z m 712.9935,0.40234 c -38.3483,2.97989 -76.4551,30.41178 -89.4075,73.09641 -3.7173,14.92382 -2.729,32.73905 4.01,45.88811 -4.8233,3.52018 -5.892,10.96799 -10.4477,15.06967 -4.9683,8.22641 -15.6404,14.56667 -14.6842,26.00615 1.554,12.21795 13.4313,17.31386 22.4563,20.59277 15.5056,5.19512 33.6854,5.34305 46.8873,-6.51068 14.2276,15.22197 38.6884,10.23452 50.9744,-5.81366 10.4404,-12.27634 17.2823,-28.60883 20.344,-44.95502 5.4456,-3.42724 11.3446,-6.61702 15.8309,-11.8509 17.239,-18.16863 23.1011,-48.90312 15.4167,-73.88525 5.6436,-6.55337 9.4186,-19.41175 2.1024,-26.15246 -5.8498,-4.40575 -12.8121,0.45042 -18.5703,0.951 -13.0205,-10.11757 -29.4147,-12.78284 -44.9123,-12.43614 z m -726.81762,43.27043 c 6.72741,-0.0936 13.27396,1.8011 19.84431,3.40165 -6.43411,8.16073 -13.37346,18.19552 -19.58949,25.09172 -0.76849,-9.75267 -3.57782,-19.24989 -7.93135,-27.68868 2.53653,-0.49174 5.10527,-0.71551 7.67653,-0.80469 z m 718.94982,0.69496 c 6.2969,0.24951 12.8343,0.25592 18.6021,3.07246 -3.2125,3.58232 -5.3787,10.75452 -10.0336,11.41198 -3.8578,-0.85661 -8.659,1.50516 -11.7855,0.51207 -1.208,-4.82878 -3.6078,-9.72265 -4.9055,-14.00893 2.7028,-0.64976 5.3627,-0.90335 8.1225,-0.98758 z m -666.42453,17.63005 c -2.72175,12.10879 -11.32847,22.124 -21.5325,26.18902 7.36546,-8.71832 14.23912,-18.0382 21.62806,-26.77426 l -0.0955,0.58524 z m 780.42583,7.79086 c -11.2625,0.41863 -22.5309,-0.0134 -33.7958,0.14632 -7.4334,20.58753 -19.9301,38.13108 -30.3191,56.82616 -7.3817,10.721 -15.4458,25.61516 -9.3377,39.37097 1.2191,2.83992 4.274,4.9949 0.8919,7.4251 -10.4186,15.07015 -8.5843,41.9426 7.8359,50.54922 12.7695,6.78561 27.0961,-1.42984 37.204,-10.53413 8.805,-8.58726 14.8509,-20.59513 22.8385,-30.10276 22.4927,-5.03205 39.0574,-25.19734 52.8655,-44.88755 1.8879,-3.46151 7.428,-7.96816 1.3799,-9.42908 -6.1794,-3.94995 -10.8613,-10.90116 -12.8686,-18.54447 6.6816,-12.11682 13.3406,-24.25007 20.0354,-36.3574 -14.7205,-6.79631 -30.8257,-2.99058 -46.2186,-4.09661 -1.0239,4.80401 -3.5088,-0.59542 -6.2431,-0.21945 -1.4133,-0.24611 -2.8444,-0.20126 -4.2682,-0.14632 z m -879.10585,4.35265 c -0.44756,7.81208 6.26277,14.73737 2.45267,22.42162 -0.71189,3.48342 -5.7889,8.72486 -7.42171,3.6211 -3.64567,-8.72708 0.51454,-18.92535 4.96904,-26.04272 z m 716.87945,0.69497 c 1.7861,6.66865 5.2682,13.48292 3.8223,20.92196 0.079,4.48644 -4.5994,9.75832 -7.8995,6.29121 -3.6952,-8.65763 -0.1765,-20.1803 4.0772,-27.21317 z M 837.23111,214.2531 c 1.7748,4.11097 -3.74788,5.91578 -4.65051,9.58314 -5.75776,8.72736 -3.48881,4.15086 0.56027,-2.52163 1.34959,-2.3487 2.76359,-4.85968 4.09024,-7.06151 z m 274.34819,9.87575 c -2.9876,12.16602 -9.0987,24.94114 -19.239,30.61483 -4.6715,-1.28707 -1.3827,-7.35482 -0.1275,-10.31468 4.0674,-9.64102 11.0185,-17.34415 19.6214,-21.54377 l -0.2334,1.13935 -0.021,0.10429 z m -170.38059,7.82745 c -0.3834,2.56283 -4.35191,7.68379 -5.95678,11.13586 -1.39008,4.12981 -4.99468,-1.06142 -7.93105,0.56873 -8.56979,1.74923 -13.94378,11.52645 -22.96588,12.18009 -3.45091,0.64434 4.35454,-3.54895 5.68023,-5.20085 4.70314,-3.64384 9.20518,-8.06063 13.43146,-12.13658 6.59827,3.15193 12.4765,-3.44494 17.74202,-6.54725 z m -249.59868,7.93718 c -0.60274,3.20749 2.61152,8.19848 -1.46523,8.92475 -0.53403,-3.04124 0.15132,-6.76228 1.46523,-8.92475 z M 1288.681,247.282 c -2.3827,6.32651 -5.5886,12.81547 -10.9573,16.34985 3.5352,-5.32171 7.7384,-11.89874 10.9573,-16.34985 z m -239.151,3.43823 c 1.432,5.43299 -4.9025,4.05536 -7.4534,5.34022 2.4134,-1.46511 5.703,-4.71576 7.4534,-5.34022 z"
       id="path3142"
       inkscape:connector-curvature="0"
       transform="translate(0,-27.637818)" />
    <g
       transform="matrix(0.92610203,0,0,1.2882358,-24.100903,-37.52771)"
       style="font-size:159.54411316px;font-style:normal;font-variant:normal;font-weight:normal;font-stretch:normal;line-height:125%;letter-spacing:0px;word-spacing:0px;fill:#d35f5f;fill-opacity:1;stroke:none;display:inline;font-family:Alfaowner Script;-inkscape-font-specification:Alfaowner Script"
       id="text3096">
      <path
         d="m 564.55113,163.17961 c 12.67208,-32.82277 41.00256,-51.7011 84.99152,-56.63504 l 9.8157,0 2.18127,0 1.63595,0 2.18126,0 1.63595,0.54532 1.63595,0 7.08912,1.63595 c 1.92146,0.20786 4.28449,0.75317 7.08912,1.63595 l 7.63444,1.63595 11.91906,0.54531 c 27.73307,-3.63532 40.09357,7.81632 37.08154,34.35496 -8.15397,21.13758 -23.96814,35.47161 -47.44256,43.00213 -18.22929,6.23222 -31.83623,0.77906 -40.82085,-16.35951 l -6.54381,8.17975 -1.09063,0.54532 -2.18127,3.2719 -1.63595,1.09064 -1.09063,1.09063 -1.09063,2.18127 -4.90785,4.36253 -1.63595,1.63595 -1.09064,2.18127 -2.18127,1.63595 -1.63595,1.63595 -1.09063,2.18127 c -1.76587,1.19453 -3.58359,3.01225 -5.45317,5.45316 l -1.63595,1.63595 -1.63595,2.18127 c -0.83103,0.31163 -1.55812,0.85694 -2.18127,1.63595 -2.80455,1.50613 -5.71291,3.86917 -8.72506,7.08912 -1.29844,0.62323 -2.38907,1.53209 -3.2719,2.72658 -2.23327,0.7271 -4.77808,2.18128 -7.63444,4.36254 -15.73632,3.73931 -31.88807,1.92159 -48.45529,-5.45317 l -2.18127,-3.81722 c 1.29837,-0.83094 2.57077,-2.10335 3.81722,-3.81721 2.33706,-1.24643 4.51832,-3.24592 6.5438,-5.99849 l 1.63595,-1.09063 0.54532,-1.09064 c 2.8564,-1.55802 5.40121,-3.92106 7.63443,-7.08911 9.45213,6.12834 20.51426,8.30961 33.18642,6.5438 2.85636,-1.24642 6.12826,-3.42768 9.81571,-6.5438 l 1.63595,-0.54532 c 2.02539,-1.35028 4.20665,-3.34977 6.5438,-5.99849 l 1.09063,-0.54531 c 0.93475,-0.83092 2.02539,-2.10333 3.2719,-3.81722 0.36347,-0.10383 0.72701,-0.46737 1.09064,-1.09063 l 1.09063,-0.54532 4.90785,-4.36254 2.18127,-2.18126 1.63595,-2.18127 5.99848,-4.90785 1.09064,-1.63595 c 1.81762,-1.19445 3.63534,-3.01217 5.45316,-5.45317 l 2.18127,-1.63595 1.63595,-2.18127 2.18127,-1.09063 1.63595,-2.18127 c 1.71374,-1.71378 4.07678,-3.6873 7.08912,-5.92058 l 1.09063,-1.09063 1.09064,-1.09064 c 1.66179,-2.07731 4.02483,-4.25858 7.08911,-6.5438 l 0.54532,-1.09063 2.72658,-2.18127 2.72659,-2.72658 2.72658,-3.2719 c 2.285,-1.14248 4.46627,-2.9602 6.5438,-5.45317 1.55791,-0.57119 3.01208,-1.66182 4.36254,-3.2719 -3.16818,-0.57118 -7.16716,-0.93473 -11.99697,-1.09064 l -3.81722,-0.54531 -1.63595,0 c -37.54905,-9.60785 -67.87902,0.72719 -90.99,31.00515 -1.14261,2.33715 -2.05147,5.2455 -2.72659,8.72507 l -0.54531,1.09063 c -0.31165,4.15486 0.59721,8.33562 2.72658,12.54229 l 0,1.63595 c 7.21891,6.90739 15.00914,7.27093 23.37072,1.09063 7.47856,-7.16696 8.38742,-15.86605 2.72659,-26.0973 2.75248,-1.55797 5.66083,-3.92101 8.72506,-7.08912 1.2983,-0.5712 2.38894,-1.48006 3.2719,-2.72658 0.36347,-0.10379 0.72702,-0.46733 1.09064,-1.09064 l 1.63595,-0.54531 1.09063,-1.09064 1.09064,-1.09063 c 1.45409,-1.03861 3.09004,-2.49278 4.90785,-4.36253 10.12721,14.7496 8.67304,28.90185 -4.36254,42.4568 -12.30865,13.86667 -27.91508,16.95679 -46.81934,9.27039 -1.24647,-1.76575 -3.06419,-3.58347 -5.45317,-5.45317 -0.31164,-1.03865 -0.85695,-2.12928 -1.63595,-3.2719 0.0519,-0.36349 -0.12986,-0.72704 -0.54531,-1.09063 0.0519,-0.3635 -0.12987,-0.72704 -0.54532,-1.09064 l -1.63595,-10.90633 z m 146.53441,-26.0973 c -0.46758,-4.82985 -3.55771,-6.82934 -9.27038,-5.99849 -3.79141,1.71396 -7.42685,4.62231 -10.90634,8.72507 -3.84333,2.02555 -7.63458,5.29745 -11.37375,9.81571 l -2.18127,1.09063 -1.63595,1.63595 -1.09063,1.63595 c -1.40238,0.83103 -3.03833,2.07747 -4.90785,3.73932 l -1.09064,1.63595 c -1.92172,1.2465 -4.10298,3.06422 -6.5438,5.45316 -0.36366,0.10394 -0.72721,0.46748 -1.09063,1.09064 l -1.09063,0.54531 -0.54532,1.09064 -0.54532,4.36253 c 2.90824,2.2852 6.54368,3.73937 10.90634,4.36254 11.99682,-0.72704 22.87718,-5.99843 32.6411,-15.81419 6.54363,-6.07631 9.45199,-13.86654 8.72507,-23.37072 z"
         id="path3101"
         inkscape:connector-curvature="0" />
      <path
         d="m 723.31621,201.8192 c 7.47863,-23.16292 24.87681,-36.84777 52.19461,-41.05456 14.48978,-1.03863 24.14967,4.80405 28.97969,17.52804 1.40217,0.052 3.09005,-0.18172 5.06366,-0.70112 0.88281,0.10392 1.73973,5e-5 2.57078,-0.31161 l 5.06365,-0.31161 2.18127,-0.62322 c 4.62211,-0.0519 9.19238,-1.42816 13.71082,-4.12883 1.76568,-0.31155 3.89501,-0.41542 6.388,-0.31161 l 0.93483,0 -3.194,4.12883 -0.31161,0.93483 c -1.19461,0.62327 -2.46702,1.68794 -3.81722,3.194 -0.72719,0.36359 -1.35041,0.88294 -1.86965,1.55804 -1.40235,0.25973 -2.90846,0.80504 -4.51834,1.63595 -0.67526,0.10392 -1.40235,0.31166 -2.18127,0.62322 -1.24654,0.052 -2.72668,0.36359 -4.44044,0.93483 l -1.32434,0 -0.93483,0.31161 c -1.03879,0.15585 -2.20732,0.49343 -3.5056,1.01273 l -5.68688,0.93483 -4.12883,1.86966 c -8.25772,25.03265 -26.72057,38.92523 -55.3886,41.67778 -19.68335,-0.67515 -28.27857,-10.30907 -25.7857,-28.90179 z m 64.8927,-16.90482 c 7.89404,-6.49181 6.62164,-10.30903 -3.81722,-11.45165 -9.55607,2.85648 -17.1905,9.11463 -22.9033,18.77448 -3.84322,11.16604 -0.33761,17.21645 10.51682,18.15126 4.05088,-0.77901 7.66035,-2.80447 10.82844,-6.07639 1.66185,-0.51932 3.34974,-1.68786 5.06365,-3.50561 -3.73937,-2.38897 -4.90791,-5.97248 -3.50561,-10.75053 0.93477,-1.03866 1.89557,-2.31106 2.88239,-3.81722 l 0.62322,-0.38951 z"
         id="path3103"
         inkscape:connector-curvature="0" />
      <path
         d="m 943.7021,175.09868 c -10.33517,-11.01014 -10.17936,-19.16392 0.46742,-24.46135 12.30844,1.24651 16.15162,8.5953 11.52955,22.04638 4.93368,1.4023 11.16586,1.89568 18.69658,1.48014 l 0.93483,1.86966 c -5.8688,5.40128 -14.48999,5.73886 -25.8636,1.01273 -1.03883,1.03875 -2.15543,2.62277 -3.3498,4.75205 l -1.01273,0.93483 -0.93483,1.01273 -0.46742,0.93483 -0.93483,0.93482 c -16.87896,29.08358 -43.8851,44.11873 -81.01849,45.10549 -2.33712,-0.67515 -4.59628,-1.79175 -6.77751,-3.3498 -1.40228,-3.84318 -0.9089,-7.68636 1.48015,-11.52956 l -0.93483,-0.46741 c -2.0255,1.24645 -4.59628,2.51886 -7.71234,3.81722 l -0.93483,1.01273 c -1.35034,0.31162 -2.80451,0.93484 -4.36253,1.86966 l -1.40225,0.46741 -0.93482,1.01273 -1.48015,0.46742 -1.40224,0.93483 -2.41498,0.46741 -0.93483,1.01273 c -1.29839,0.10388 -2.59676,0.57129 -3.89512,1.40224 l -1.40224,0 -1.40224,0.93483 c -1.61,0.20774 -3.37578,0.70113 -5.29737,1.48015 -1.24644,-0.20774 -2.51884,-0.0519 -3.81721,0.46741 -2.80449,0.0519 -6.33606,-0.25967 -10.59473,-0.93483 -1.14256,-1.1945 -2.41496,-2.80448 -3.81722,-4.82994 10e-6,-2.12933 0.31162,-4.67414 0.93483,-7.63444 1.7658,-1.81771 3.53158,-4.23268 5.29736,-7.24492 1.86967,-1.50609 3.79126,-3.73929 5.76478,-6.69961 0.31161,-0.0519 0.62322,-0.36352 0.93483,-0.93483 l 1.48015,-1.48014 0.93483,-0.93483 0.93482,-1.94756 1.48015,-1.86966 c 1.81771,-1.55801 3.40173,-3.63541 4.75205,-6.23219 l 1.48014,-1.94756 c 0.67514,-0.51931 1.29836,-1.3243 1.86966,-2.41498 1.60997,-1.29832 3.06414,-3.03814 4.36253,-5.21946 l 1.86966,-2.41497 c 1.35029,-1.29832 2.80446,-3.06411 4.36254,-5.29736 l 0.46741,-0.93483 1.86966,-1.94756 5.29736,-6.69961 1.94756,-2.41497 5.76478,0 1.40224,0 8.17975,0 1.86966,0 1.94756,0 1.94756,0 1.86966,0 1.48014,0 2.33708,0 -6.69961,9.58199 -0.93483,0.54532 -0.93483,1.40224 -1.01273,0.93483 -0.46741,1.01273 -2.88239,3.3498 -0.93483,1.86966 -1.48015,1.01273 -0.93483,1.86966 c -1.50615,1.35036 -2.93436,3.11614 -4.28463,5.29736 l -1.48014,1.40225 -4.75205,6.23219 -0.46741,1.01273 -1.94756,1.86966 -1.94756,2.41497 -7.63444,10.04941 -0.93483,1.48015 -1.01273,2.88239 c 1.60996,0.36356 3.37575,0.51936 5.29736,0.46741 2.18124,-0.51933 4.25864,-1.63593 6.2322,-3.3498 3.99895,-1.03868 8.15374,-3.11608 12.46438,-6.23219 l 1.40224,-0.46742 c 1.35026,-0.67513 2.64864,-1.63592 3.89512,-2.88239 l 1.40225,-0.46741 3.3498,-2.88239 1.01273,-1.01273 7.63444,-10.04941 0.93482,-1.40224 1.01274,-1.01274 3.3498,-4.28463 0.93483,-0.93483 1.94756,-2.88239 0.46741,-1.01273 0.93483,-0.46741 0.46742,-0.93483 1.01273,-1.48015 c 0.31153,-0.10381 0.62314,-0.41542 0.93483,-0.93482 l 0.93482,-0.93483 2.88239,-3.81722 c 1.09056,-0.9867 2.20716,-2.59668 3.34981,-4.82995 l 1.48014,-1.94756 5.68688,0 1.48014,0 8.10185,0 1.94756,0 6.23219,0 2.41498,0 1.86966,0 c -2.33719,2.54488 -5.0378,6.07645 -8.10185,10.59473 l -0.93483,1.40224 c -0.36365,0.10393 -0.70123,0.4415 -1.01273,1.01273 l -1.40225,1.40224 -1.48014,1.94756 -0.93483,1.40225 -1.40224,1.48014 -1.01274,0.93483 -0.93482,1.94756 c -1.14267,0.93488 -2.25927,2.36309 -3.34981,4.28463 l -0.93483,1.40225 -1.48014,1.48014 -1.94756,1.94756 c -0.77911,1.45422 -2.05152,3.03823 -3.81722,4.75205 l -0.46741,1.48014 -0.93483,0.46742 -1.94756,2.88239 -1.40225,2.33707 -1.94756,1.94756 -1.86965,1.94756 -1.48015,2.33707 -1.94756,2.41498 c 0.2596,1.81773 1.40217,2.77853 3.42771,2.88238 21.08548,-7.06312 39.13286,-20.6441 54.14216,-40.74295 z"
         id="path3105"
         inkscape:connector-curvature="0" />
      <path
         d="m 1008.439,161.07625 2.8824,0 0.6232,0 0.7011,0 c 1.2983,-0.1038 2.9083,0.026 4.83,0.38951 l 0.7011,0.23371 0.6232,0 c 1.5061,0.57135 3.0641,1.53215 4.6742,2.88239 1.2463,3.4797 1.3762,7.32288 0.3895,11.52955 -0.4156,0.57134 -0.857,1.37633 -1.3244,2.41498 l -0.8569,1.55804 c -0.4155,0.31166 -0.7791,0.75311 -1.0906,1.32434 -1.0907,0.77908 -2.2073,1.86971 -3.3498,3.27191 l -1.3244,0.93482 -0.3895,0.38952 -0.2337,0.46741 -0.7011,0.23371 -0.6232,0.46741 -0.4674,0.62322 c -1.0907,0.41552 -2.2073,1.16858 -3.3498,2.25917 -0.104,-0.0519 -0.2338,4e-5 -0.3896,0.15581 -0.6232,0.25971 -1.2205,0.64922 -1.7917,1.16853 l -0.6232,0.15581 -0.4674,0.46741 c -0.1559,0.052 -0.3117,0.20778 -0.4675,0.46742 -0.2597,0.052 -0.4674,0.18181 -0.6232,0.38951 -0.6752,0.15584 -1.2724,0.54535 -1.7917,1.16853 l -3.7394,1.94756 -1.16849,0.70112 -0.85693,0.38952 c -0.77906,0.36357 -1.66196,0.88292 -2.64868,1.55804 l -1.09063,0.46742 c -0.6752,0.20777 -1.42825,0.57131 -2.25917,1.09063 l -0.62322,0 -4.20673,2.02547 -0.85692,0.38951 -0.93483,0.2337 -2.41498,1.32434 -1.32434,0.46742 -0.46741,0.23371 -0.38952,0.1558 -0.46741,0.46742 -0.70112,0.2337 -0.62322,0.46742 -0.85693,0.2337 c -0.052,2.70064 1.19448,4.90788 3.73932,6.62171 5.4012,2.38902 11.52951,3.19401 18.38501,2.41497 9.1924,-0.31159 17.9434,-3.40172 26.2531,-9.27038 l 1.3243,-0.23371 c 0.779,1.35033 1.0127,2.88241 0.7011,4.59624 -0.7271,1.35033 -1.8437,2.70064 -3.3498,4.05093 l -0.2337,0.38951 c -0.9349,0.51936 -2.0255,1.27242 -3.2719,2.25917 l -0.7011,0.1558 -0.1558,0.46742 c -0.9868,0.25968 -1.9476,0.77903 -2.8824,1.55805 l -0.7011,0.2337 -3.5056,1.55805 -0.7012,0.23371 -0.6232,0.38951 c -0.831,0.41549 -1.9476,0.85693 -3.3498,1.32434 l -0.4674,0.46741 c -0.7271,0.10388 -1.5321,0.38952 -2.415,0.85693 l -0.8569,0.46742 c -0.9868,0.15581 -2.1813,0.51935 -3.5835,1.09063 -0.9349,0.20774 -2.10341,0.57129 -3.50561,1.09063 l -0.70112,0 c -11.89313,4.20673 -24.64315,4.51834 -38.25008,0.93483 -0.72709,-0.51934 -1.68789,-0.96079 -2.88239,-1.32434 l -0.62322,-0.46741 c -0.46741,-0.1558 -1.06466,-0.44145 -1.79175,-0.85693 -2.2332,-0.88289 -4.20673,-2.44093 -5.92058,-4.67414 l -0.46742,-0.23371 c -0.20773,-0.67514 -0.57128,-1.40223 -1.09063,-2.18127 l -0.46742,-1.79175 0,-7.71234 0.23371,-1.32434 0.46742,-1.79176 0,-0.85692 1.48014,-3.97303 0.23371,-0.70112 0.23371,-0.62322 0.46741,-0.46741 0,-0.70112 1.55805,-2.41498 c 0.10387,-0.46738 0.38951,-1.06463 0.85693,-1.79175 l 1.09063,-1.94756 2.25917,-3.73932 0.38951,-0.46741 0.23371,-0.46742 0.2337,-0.62322 c 0.77902,-0.77897 1.58401,-1.81767 2.41498,-3.11609 0.1558,-0.0519 0.3116,-0.20769 0.46741,-0.46742 0.98676,-0.6751 2.02546,-1.68783 3.1161,-3.03819 0.57127,-0.31156 1.14256,-0.753 1.71385,-1.32434 0.15579,-0.0519 0.3116,-0.20769 0.46742,-0.46741 l 0.85692,-0.70113 0.70112,-0.38951 0.62322,-0.23371 0.46742,-0.70112 c 0.31159,-0.10381 0.59723,-0.31155 0.85692,-0.62322 l 3.1161,-1.79175 1.32434,-1.09063 c 0.98674,-0.36349 2.02544,-1.03864 3.1161,-2.02547 0.15578,0.052 0.31158,6e-5 0.46741,-0.1558 l 0.85693,-0.23371 0.62322,-0.46741 0.93483,-0.62322 c 0.9348,-0.31155 2.02543,-0.8309 3.2719,-1.55805 0.15577,6e-5 0.31158,-0.0778 0.46741,-0.23371 l 0.70112,-0.2337 1.32434,-0.46742 0.38952,-0.1558 0.70112,-0.23371 0.38951,-0.46742 0.93483,-0.2337 5.53107,-1.79176 0.85692,-0.1558 c 0.72705,-0.15574 1.53204,-0.38945 2.41498,-0.70112 1.19446,-0.0519 2.5188,-0.33751 3.97302,-0.85693 0.3635,7e-5 0.75301,-0.0778 1.16849,-0.23371 l 0.857,0 6.388,-0.85692 z m 1.7139,11.06214 c -1.3504,-0.88284 -2.9604,-1.32428 -4.83,-1.32434 -10.85444,3.89517 -19.11209,11.68541 -24.77296,23.37072 0.98673,1.24647 2.46688,1.68792 4.44044,1.32434 l 4.82995,-2.41498 0.46741,-0.38951 0.62322,-0.2337 0.46741,-0.46742 c 0.15577,-0.0519 0.31157,-0.2077 0.46742,-0.46741 1.29833,-0.41544 2.54477,-1.22043 3.73931,-2.41498 1.76575,-0.72704 3.45363,-1.97348 5.0637,-3.73931 1.558,-0.93479 2.8823,-2.25913 3.973,-3.97303 0.9867,-0.72703 1.8956,-1.76573 2.7266,-3.11609 l 0.8569,-1.09064 0.4674,-1.09063 0.3895,-0.23371 c 0.6232,-0.9867 0.9867,-2.23314 1.0907,-3.73931 z"
         id="path3107"
         inkscape:connector-curvature="0" />
      <path
         d="m 1030.2517,172.3721 c -10.387,-10.59466 -9.7119,-18.04732 2.0254,-22.35799 8.777,0.052 13.1915,5.45324 13.2434,16.2037 l 2.5708,0.46741 1.5581,0 0.9348,0.31161 3.8951,0 0.8569,0 2.5708,0 0.6232,0 c 0.831,6e-5 1.8177,-0.15574 2.9603,-0.46741 l 0.7012,0 6.3879,-1.48015 c 0.2597,0.052 0.4934,7e-5 0.7012,-0.1558 l 3.194,-0.46742 0.7011,-0.23371 c 0.8828,7e-5 1.9475,-0.20767 3.194,-0.62321 l 0.8569,0 2.9603,-0.77903 c 1.0387,7e-5 2.2851,-0.23364 3.7393,-0.70112 l 3.5835,-0.46741 1.4023,-0.15581 1.4022,-0.23371 1.3244,-0.2337 c 0.5712,7e-5 1.1165,-0.0778 1.6359,-0.23371 l 1.5581,0 2.9602,0 0.7012,0 c 2.0773,0.20781 4.0508,1.19457 5.9206,2.96029 0.8308,2.90842 0.5452,5.97258 -0.857,9.19248 -0.7271,0.72715 -1.3763,1.71391 -1.9475,2.96029 l -1.0128,1.09064 -0.3116,0.46741 c -0.2597,0.41553 -0.6233,0.85698 -1.0906,1.32434 l -0.2337,0.77903 -0.4674,0.70112 c -0.7272,0.57133 -1.4283,1.40229 -2.1034,2.49288 l -0.3895,0.62321 c -0.5714,0.57134 -1.1167,1.27246 -1.636,2.10337 l -0.4674,0.46741 -3.1161,4.28464 -0.3116,0.46741 -3.1161,3.73932 -0.3116,0.38951 -0.4674,0.46741 -0.1558,0.46742 -0.2337,0.46741 c -1.2465,1.19454 -2.5449,2.85645 -3.8951,4.98575 l -0.4674,0.23371 c -0.4156,0.83099 -1.0907,1.81775 -2.0255,2.96029 l -0.2337,0.46742 -0.2337,0.70112 -0.4674,0.46741 c -0.831,1.97355 -0.9868,4.18079 -0.4674,6.62171 1.1944,1.66193 2.9342,2.8045 5.2194,3.4277 4.1547,2e-5 8.4134,-0.98675 12.776,-2.96029 0.727,-0.10385 1.506,-0.38949 2.3371,-0.85693 0.727,-0.15578 1.4801,-0.49336 2.2591,-1.01273 1.4542,-0.25965 3.194,-0.8569 5.2195,-1.79175 l 0.779,0 c 0.727,0.83098 1.1685,1.81774 1.3244,2.96029 -0.6233,0.77904 -1.5322,1.61 -2.7266,2.49288 -0.1559,0.10388 -0.2857,0.25969 -0.3895,0.46741 -0.7272,0.20776 -1.5322,0.59727 -2.415,1.16854 l -2.6487,1.09063 -1.6359,0.70112 -0.7012,0.31161 -0.6232,0.15581 -0.779,0.46741 -0.8569,0.23371 -0.7011,0.2337 -0.7012,0.23371 -0.7011,0.46742 c -0.3636,0.0519 -0.7271,0.20775 -1.0906,0.46741 -0.2078,1e-5 -0.4415,0.0779 -0.7011,0.23371 -0.3636,0.0519 -0.7532,0.20775 -1.1686,0.46741 -0.9349,0.10388 -1.9736,0.46743 -3.1161,1.09064 l -1.6359,0.46741 -0.7011,0.23371 -3.194,1.16853 -1.636,0.62322 -0.6232,0 -0.7011,0.31161 -0.7012,0.15581 -0.6232,0.46741 -0.9348,0.23371 -3.4277,0.93483 c -0.1559,0 -0.3117,0.0779 -0.4674,0.2337 l -0.9349,0.23371 -1.0906,0.23371 -0.9348,0.23371 -1.0127,0.2337 -1.3244,0.46742 c -1.0387,0 -2.2332,0.20774 -3.5835,0.62322 l -0.7011,0 -4.5963,0.70112 c -0.6232,-0.10387 -1.2205,-0.026 -1.7917,0.23371 l -0.7011,0 -4.5184,0.2337 -0.779,0 -0.8569,0 -0.7791,0 c -0.9348,-0.25967 -2.2072,-0.41548 -3.8172,-0.46741 l -0.4674,-0.23371 -0.6232,0 -1.636,-0.23371 -0.7011,-0.2337 -0.6232,0 c -1.61,-0.51935 -3.3758,-1.58402 -5.2974,-3.194 -1.3503,-2.54481 -2.0254,-5.50509 -2.0254,-8.88087 0.3116,-0.62321 0.6232,-1.37627 0.9348,-2.25917 l 3.1161,-4.44044 0.4674,-0.46742 1.8697,-2.64868 0.4674,-0.46741 0.1558,-0.46742 0.4674,-0.46741 c 0.3635,-0.62319 0.9089,-1.29835 1.636,-2.02546 l 0.4674,-0.77903 c 0.3635,-0.51932 0.8829,-1.19447 1.558,-2.02546 0.5194,-0.46738 1.0647,-1.22044 1.636,-2.25917 l 0.6232,-0.62322 2.1034,-2.57078 0.7011,-0.93483 0.6232,-0.93482 c 0.8309,-0.72706 1.6879,-1.76575 2.5708,-3.1161 0.1558,-0.10383 0.2856,-0.25964 0.3895,-0.46741 l 0.4674,-0.46742 0.7011,-0.93483 0.7011,-0.70112 0.7012,-0.85693 0.7011,-1.40224 0.9348,-1.01273 c 0.4674,-1.19446 0.753,-2.62267 0.8569,-4.28463 l -0.8569,-1.32434 -2.8045,0 -0.6232,0 -3.8951,0 -0.9348,0 -0.7012,-0.23371 -0.8569,0 -0.9348,0 -0.7011,-0.23371 c -0.4675,5e-5 -1.0647,-0.10382 -1.7918,-0.31161 l -0.779,0 -5.2195,-1.32434 c -2.9603,3.11615 -6.8294,5.34935 -11.6074,6.69961 -0.3116,-1.45413 -0.857,-3.24589 -1.636,-5.37527 0,-0.10381 -0.078,-0.25962 -0.2337,-0.46741 l 0,-0.62322 -0.1558,-0.38951 c 2.441,-0.15575 4.4145,-1.24639 5.9206,-3.2719 l -0.7011,-1.63595 z"
         id="path3109"
         inkscape:connector-curvature="0" />
      <path
         d="m 1158.6348,161.07625 2.8824,0 0.6232,0 0.7011,0 c 1.2983,-0.1038 2.9083,0.026 4.83,0.38951 l 0.7011,0.23371 0.6232,0 c 1.5061,0.57135 3.0641,1.53215 4.6742,2.88239 1.2463,3.4797 1.3762,7.32288 0.3895,11.52955 -0.4156,0.57134 -0.857,1.37633 -1.3244,2.41498 l -0.8569,1.55804 c -0.4155,0.31166 -0.7791,0.75311 -1.0906,1.32434 -1.0907,0.77908 -2.2073,1.86971 -3.3498,3.27191 l -1.3244,0.93482 -0.3895,0.38952 -0.2337,0.46741 -0.7011,0.23371 -0.6232,0.46741 -0.4674,0.62322 c -1.0907,0.41552 -2.2073,1.16858 -3.3498,2.25917 -0.104,-0.0519 -0.2338,4e-5 -0.3896,0.15581 -0.6232,0.25971 -1.2205,0.64922 -1.7917,1.16853 l -0.6232,0.15581 -0.4674,0.46741 c -0.1559,0.052 -0.3117,0.20778 -0.4675,0.46742 -0.2597,0.052 -0.4674,0.18181 -0.6232,0.38951 -0.6752,0.15584 -1.2724,0.54535 -1.7917,1.16853 l -3.7394,1.94756 -1.1685,0.70112 -0.8569,0.38952 c -0.7791,0.36357 -1.662,0.88292 -2.6487,1.55804 l -1.0906,0.46742 c -0.6752,0.20777 -1.4283,0.57131 -2.2592,1.09063 l -0.6232,0 -4.2067,2.02547 -0.857,0.38951 -0.9348,0.2337 -2.415,1.32434 -1.3243,0.46742 -0.4674,0.23371 -0.3895,0.1558 -0.4675,0.46742 -0.7011,0.2337 -0.6232,0.46742 -0.8569,0.2337 c -0.052,2.70064 1.1944,4.90788 3.7393,6.62171 5.4012,2.38902 11.5295,3.19401 18.385,2.41497 9.1924,-0.31159 17.9434,-3.40172 26.2531,-9.27038 l 1.3243,-0.23371 c 0.779,1.35033 1.0127,2.88241 0.7011,4.59624 -0.7271,1.35033 -1.8437,2.70064 -3.3498,4.05093 l -0.2337,0.38951 c -0.9349,0.51936 -2.0255,1.27242 -3.2719,2.25917 l -0.7011,0.1558 -0.1558,0.46742 c -0.9868,0.25968 -1.9476,0.77903 -2.8824,1.55805 l -0.7011,0.2337 -3.5056,1.55805 -0.7012,0.23371 -0.6232,0.38951 c -0.831,0.41549 -1.9476,0.85693 -3.3498,1.32434 l -0.4674,0.46741 c -0.7271,0.10388 -1.5321,0.38952 -2.415,0.85693 l -0.8569,0.46742 c -0.9868,0.15581 -2.1813,0.51935 -3.5835,1.09063 -0.9349,0.20774 -2.1034,0.57129 -3.5056,1.09063 l -0.7011,0 c -11.8932,4.20673 -24.6432,4.51834 -38.2501,0.93483 -0.7271,-0.51934 -1.6879,-0.96079 -2.8824,-1.32434 l -0.6232,-0.46741 c -0.4674,-0.1558 -1.0647,-0.44145 -1.7918,-0.85693 -2.2332,-0.88289 -4.2067,-2.44093 -5.9206,-4.67414 l -0.4674,-0.23371 c -0.2077,-0.67514 -0.5712,-1.40223 -1.0906,-2.18127 l -0.4674,-1.79175 0,-7.71234 0.2337,-1.32434 0.4674,-1.79176 0,-0.85692 1.4802,-3.97303 0.2337,-0.70112 0.2337,-0.62322 0.4674,-0.46741 0,-0.70112 1.558,-2.41498 c 0.1039,-0.46738 0.3895,-1.06463 0.857,-1.79175 l 1.0906,-1.94756 2.2592,-3.73932 0.3895,-0.46741 0.2337,-0.46742 0.2337,-0.62322 c 0.779,-0.77897 1.584,-1.81767 2.415,-3.11609 0.1558,-0.0519 0.3116,-0.20769 0.4674,-0.46742 0.9867,-0.6751 2.0254,-1.68783 3.1161,-3.03819 0.5712,-0.31156 1.1425,-0.753 1.7138,-1.32434 0.1558,-0.0519 0.3116,-0.20769 0.4674,-0.46741 l 0.857,-0.70113 0.7011,-0.38951 0.6232,-0.23371 0.4674,-0.70112 c 0.3116,-0.10381 0.5973,-0.31155 0.8569,-0.62322 l 3.1161,-1.79175 1.3244,-1.09063 c 0.9867,-0.36349 2.0254,-1.03864 3.1161,-2.02547 0.1558,0.052 0.3116,6e-5 0.4674,-0.1558 l 0.8569,-0.23371 0.6232,-0.46741 0.9349,-0.62322 c 0.9348,-0.31155 2.0254,-0.8309 3.2719,-1.55805 0.1557,6e-5 0.3115,-0.0778 0.4674,-0.23371 l 0.7011,-0.2337 1.3243,-0.46742 0.3896,-0.1558 0.7011,-0.23371 0.3895,-0.46742 0.9348,-0.2337 5.5311,-1.79176 0.8569,-0.1558 c 0.7271,-0.15574 1.5321,-0.38945 2.415,-0.70112 1.1944,-0.0519 2.5188,-0.33751 3.973,-0.85693 0.3635,7e-5 0.753,-0.0778 1.1685,-0.23371 l 0.857,0 6.388,-0.85692 z m 1.7139,11.06214 c -1.3504,-0.88284 -2.9604,-1.32428 -4.83,-1.32434 -10.8544,3.89517 -19.1121,11.68541 -24.773,23.37072 0.9868,1.24647 2.4669,1.68792 4.4405,1.32434 l 4.8299,-2.41498 0.4674,-0.38951 0.6233,-0.2337 0.4674,-0.46742 c 0.1557,-0.0519 0.3115,-0.2077 0.4674,-0.46741 1.2983,-0.41544 2.5448,-1.22043 3.7393,-2.41498 1.7657,-0.72704 3.4536,-1.97348 5.0637,-3.73931 1.558,-0.93479 2.8823,-2.25913 3.973,-3.97303 0.9867,-0.72703 1.8956,-1.76573 2.7266,-3.11609 l 0.8569,-1.09064 0.4674,-1.09063 0.3895,-0.23371 c 0.6232,-0.9867 0.9867,-2.23314 1.0907,-3.73931 z"
         id="path3111"
         inkscape:connector-curvature="0" />
      <path
         d="m 1290.3678,119.94378 5.2194,0 1.2465,0 7.4007,0 1.7917,0 1.7139,0 8.6472,0 1.3243,0 -6.0764,8.64717 -0.8569,0.46741 -0.8569,1.32434 -0.857,0.85693 -0.4674,0.85693 -0.8569,0.85692 -2.6487,3.50561 -0.8569,1.32434 -1.2465,1.24644 -0.9348,1.32434 -1.2464,1.71385 -0.8569,1.79176 -1.3244,1.24644 -1.3243,1.32434 -0.857,1.32434 -1.3243,1.24644 -1.3243,2.18126 -1.7139,1.79176 -1.7138,2.10336 c -1.1947,1.55813 -2.493,3.58359 -3.8952,6.07639 l -0.8569,0.93483 -0.9348,1.71385 -0.8569,0.38951 -0.857,1.32435 -4.3625,5.68687 -0.3895,0.85693 c -1.1946,1.03875 -2.3632,2.49293 -3.5056,4.36253 l -0.857,0.85693 -0.8569,0.85692 -1.7138,3.0382 c -1.714,1.50616 -3.6096,3.66146 -5.6869,6.4659 l -0.8569,0.93483 -1.7139,3.03819 -2.1813,2.10336 -4.3625,5.68688 -0.3895,0.85693 c -1.2985,1.14259 -2.7526,2.88241 -4.3625,5.21946 l -0.857,0.85692 c -0.4674,0.83098 -1.1945,1.71388 -2.1812,2.64868 l -1.7139,2.57078 c -0.6752,0.93485 -0.9608,2.10338 -0.8569,3.50561 1.2464,0.31163 2.6746,0.44146 4.2846,0.38951 2.6486,-0.57127 5.4012,-1.86964 8.2577,-3.89512 0.3115,0.052 0.5971,-0.10385 0.8569,-0.46741 l 2.6487,-0.85693 0.8569,-0.38951 0.8569,-0.85693 1.7139,-0.46741 0.8569,-0.85693 1.7918,-0.46741 0.8569,-0.85693 1.3243,-0.38951 0.857,-0.93483 c 1.0905,-0.41545 2.3889,-1.11657 3.8951,-2.10336 l 2.5708,-1.79176 0.8569,-0.85692 0.9348,-0.85693 c 3.2199,-0.20771 4.8039,1.3763 4.7521,4.75204 -1.9217,0.98679 -4.103,2.59678 -6.5438,4.82995 -0.2598,-0.0519 -0.5454,0.0779 -0.857,0.38952 l -1.3243,0.85692 c -1.4023,0.62324 -2.8305,1.50613 -4.2846,2.64868 l -4.3626,1.71386 -1.3243,0.85692 -1.7139,1.32434 -4.3625,1.71386 -9.5041,4.75204 c -0.3117,0.10388 -0.5973,0.41549 -0.8569,0.93483 -1.9217,0.41549 -3.8173,1.27241 -5.6869,2.57078 l -3.0382,0.85693 -3.4277,1.32434 -1.3243,0.46741 -6.0764,1.24644 c -3.8432,0.57128 -7.8942,0.15581 -12.1528,-1.24644 l -3.5056,-2.64868 c -15.2689,6.33606 -28.2786,3.14206 -39.0291,-9.58199 -7.0112,-11.21793 -6.4399,-23.08505 1.7139,-35.6014 20.4623,-20.72197 43.028,-25.78562 67.6971,-15.19097 1.3503,1.55811 2.8045,3.58357 4.3626,6.07639 l 0.8569,0.46741 6.9333,-9.11458 0.8569,-1.32434 2.1813,-2.18127 0.8569,-1.24643 1.3244,-1.79176 c 0.727,-1.2983 1.8955,-2.88231 3.5056,-4.75205 l 0.8569,-1.71385 c 1.6099,-1.24636 3.0641,-2.98617 4.3625,-5.21946 l 1.2465,-1.71385 1.7917,-1.79176 1.2465,-2.18126 c 1.6618,-1.24635 3.116,-3.11601 4.3625,-5.60898 0.8828,-0.62312 1.6099,-1.50601 2.1813,-2.64868 l 1.7138,-1.71385 1.7139,-2.18127 c 0.7789,-1.1944 1.9474,-2.62261 3.5056,-4.28463 l 0.4674,-0.93483 0.8569,-0.85693 0.3895,-0.85692 z m -55.1549,51.25978 c -2.3891,-0.46735 -5.2715,-0.62316 -8.6472,-0.46741 -12.1009,3.27195 -22.384,10.51687 -30.8494,21.73477 -6.388,11.01023 -4.3625,18.38498 6.0764,22.12428 10.4389,0.10388 18.9822,-4.67413 25.6299,-14.33404 6.8554,-6.5957 10.4648,-15.13899 10.8285,-25.62989 l -2.1813,-2.57078 z"
         id="path3113"
         inkscape:connector-curvature="0" />
      <path
         d="m 1420.7764,107.5573 c 1.506,-0.0518 3.1939,-0.36342 5.0637,-0.93483 l 5.4531,0 1.4023,0 c 1.9734,-0.0518 4.5442,0.104 7.7123,0.46742 l 1.4023,0 1.3243,0 c 1.2982,0.36366 2.8303,0.51947 4.5962,0.46741 l 1.7918,0.46741 7.3228,1.79176 0.8569,0.46741 1.4023,0 c 1.6618,0.4156 3.4795,1.19463 5.4532,2.33708 l 1.4022,0 0.8569,0.85692 1.4023,0 c 1.2463,1.14269 2.9082,2.36316 4.9857,3.66142 l 0.9348,0.46741 0.4675,0.93483 c 2.1291,-0.4673 4.2585,-1.37616 6.388,-2.72659 0.4153,1.2e-4 0.8567,-0.15569 1.3243,-0.46741 2.0253,-0.67504 4.3104,-0.98665 6.8554,-0.93483 -0.2079,3.63556 -3.2461,6.82955 -9.1146,9.582 7.3746,11.37384 8.1277,24.12386 2.2592,38.25007 -6.2843,12.41251 -16.905,20.33258 -31.8621,23.76024 -1.6101,11.78926 -7.0892,22.40994 -16.4374,31.86208 -10.3351,12.41245 -24.3056,15.76225 -41.9115,10.04941 -2.441,-2.2332 -4.5703,-5.27139 -6.388,-9.11458 -0.1039,-0.41547 -0.4155,-0.72708 -0.9348,-0.93483 -1.2465,0.93484 -2.467,2.15531 -3.6614,3.66141 -1.662,0.67516 -3.1681,1.89563 -4.5184,3.66141 -0.3116,-0.0519 -0.6232,0.10388 -0.9348,0.46742 -0.3117,-0.0519 -0.5973,0.10387 -0.8569,0.46741 l -1.4023,0.46742 -3.194,1.79175 -0.9348,0.93483 c -15.7882,3.89512 -31.888,2.05143 -48.2995,-5.53107 -0.779,-0.93482 -1.5321,-2.12932 -2.2591,-3.58351 l 8.1797,-7.32283 c 0.779,-0.67513 1.6879,-1.7398 2.7266,-3.19399 l 1.4022,-1.40225 1.4023,-0.85692 0.8569,-1.40225 c 1.2984,-0.62319 2.6746,-1.68786 4.1288,-3.194 l 1.3244,-1.79175 c 9.6079,6.49189 20.696,8.62122 33.2643,6.388 1.8696,-0.67513 3.8691,-1.8956 5.9985,-3.66142 2.0254,-0.9348 4.1288,-2.46688 6.3101,-4.59624 3.116,-1.66188 6.0244,-4.23266 8.725,-7.71234 1.0387,-0.46737 1.9475,-1.22043 2.7266,-2.25917 1.5061,-1.03865 3.0122,-2.57073 4.5184,-4.59624 l 0.9348,-0.46741 0.4674,-0.85693 c 2.7525,-1.76574 5.4791,-4.36248 8.1798,-7.79024 l 1.4022,-0.93483 c -3.3758,-6.43987 -2.7786,-12.95769 1.7918,-19.5535 5.7646,-3.32376 12.1526,-3.94697 19.164,-1.86966 1.454,-0.31153 2.8043,-1.06458 4.0509,-2.25917 l 5.5311,-4.98575 0.8569,-0.93483 c 0.7789,-0.67507 1.6877,-1.73973 2.7266,-3.194 0.3114,-0.0518 0.6231,-0.36345 0.9348,-0.93483 l 1.4022,-0.85692 0.857,-0.93483 2.7265,-2.25917 c 1.1944,-1.29828 2.7265,-2.67455 4.5963,-4.12883 -5.7649,-5.03758 -13.2176,-8.07577 -22.358,-9.11458 -26.9024,-3.84307 -51.4936,4.05103 -73.7736,23.68233 -0.779,1.09072 -1.5581,2.46699 -2.337,4.12883 -0.9868,0.93491 -2.2073,2.31118 -3.6615,4.12883 -0.5193,1.50618 -1.4282,3.3239 -2.7265,5.45316 -0.052,1.81779 -0.4935,3.94712 -1.3244,6.388 -0.1039,4.62227 0.9608,9.47818 3.194,14.56775 1.7138,1.03875 3.6874,2.57082 5.9206,4.59624 21.3971,0.77907 28.0708,-9.42614 20.0209,-30.61564 2.1293,-0.98669 3.947,-2.4928 5.4532,-4.51834 l 1.4022,-0.46742 c 0.779,-0.88281 1.8436,-1.79167 3.194,-2.72658 l 0.4674,-0.93483 1.3244,-0.46741 0.4674,-0.85693 c 0.3115,-0.10378 0.6231,-0.41539 0.9348,-0.93483 1.1945,-0.62313 2.4149,-1.53199 3.6614,-2.72658 l 1.3244,-0.93483 c 0.7789,-0.8828 1.8436,-1.79166 3.194,-2.72658 l 0.4674,-0.93483 c 9.8675,15.68442 8.0498,30.43393 -5.4532,44.24856 -13.607,13.81473 -29.4212,16.09986 -47.4425,6.85541 -2.5449,-2.70057 -4.9599,-6.36198 -7.245,-10.98424 l -0.9348,-15.50258 c 0.8309,-1.71378 1.4542,-3.84311 1.8697,-6.38799 1.5061,-1.86958 3.168,-4.44036 4.9857,-7.71234 l 0.9348,-1.40224 0.3896,-1.32434 c 1.3502,-0.98668 2.5707,-2.51876 3.6614,-4.59625 1.4022,-0.8828 2.6226,-2.23311 3.6614,-4.05092 l 1.4022,-0.93483 0.857,-0.93483 4.5962,-4.05092 0.8569,-0.93483 0.9349,-1.40224 c 1.7657,-0.51925 3.4536,-1.58392 5.0636,-3.194 2.0254,-0.57118 3.9989,-1.76568 5.9206,-3.58351 l 3.194,-1.40225 1.3243,-0.93483 c 1.7138,-0.25956 3.3757,-1.01261 4.9858,-2.25916 l 1.8696,-0.93483 1.7918,-0.38952 1.8697,-0.93482 1.7917,-0.93483 c 2.1812,-0.20763 4.4663,-0.96068 6.8554,-2.25917 l 3.194,-0.93483 c 1.506,-0.10375 3.168,-0.41536 4.9858,-0.93483 l 1.4022,0 0.8569,-0.38951 1.8697,-0.46742 1.3243,0 1.8697,-0.46741 c 1.4541,-0.0518 3.116,-0.36342 4.9857,-0.93483 z m 33.7317,58.3489 c 8.2576,-7.11502 9.9454,-15.91798 5.0637,-26.40892 -1.0388,0.72718 -2.1035,1.79185 -3.194,3.194 -2.5969,1.3504 -5.0378,3.47973 -7.3228,6.388 -1.7659,1.09071 -3.4279,2.75263 -4.9858,4.98575 l -4.1288,3.66142 5.9206,7.71233 0.4674,1.40225 0.9348,0.93482 0.8569,3.194 c 2.2331,-0.9867 4.3624,-2.67458 6.388,-5.06365 z m -35.5235,1.40224 c 5.9725,-5.03762 6.7255,-7.32275 2.2592,-6.85541 -2.0255,0.57135 -3.5317,1.94763 -4.5183,4.12883 -0.6753,2.54487 0.078,3.45373 2.2591,2.72658 z m 14.1004,2.25917 c -0.104,-0.88283 -0.3896,-1.79169 -0.8569,-2.72658 l -4.5963,5.45316 -0.8569,0.93483 -0.4674,1.32434 c 2.1811,0.67521 4.9077,0.98682 8.1797,0.93483 -0.104,-1.60992 -0.5714,-3.58345 -1.4022,-5.92058 z m -14.5678,13.24341 c -0.9349,1.45422 -2.2852,2.96033 -4.0509,4.51834 -0.5714,1.14261 -1.5062,2.20727 -2.8045,3.194 l -0.8569,0.93482 -0.9348,1.40225 -0.9349,0.85692 -0.8569,1.40225 -1.4022,1.32434 -1.3244,0.93483 -0.9348,1.79175 -1.4022,0.93483 c -0.7792,1.03873 -1.9996,2.2592 -3.6615,3.66141 l -1.3243,1.79176 -1.4022,1.86966 c -1.4543,1.03872 -2.9604,2.54483 -4.5184,4.51833 l -0.9348,1.40225 -1.7918,0.93483 0,0.38951 0,-0.38951 0,1.32434 0,0.46741 0,-0.46741 0,0.46741 c 3.4277,6.33607 8.8808,8.3096 16.3595,5.92058 8.1537,-1.55803 14.5417,-6.41394 19.164,-14.56774 3.895,-5.45314 6.6216,-11.84113 8.1798,-19.16399 l 0.4674,-0.93483 -8.6472,-1.79176 c -1.1946,-0.77898 -2.8565,-1.53203 -4.9857,-2.25917 z"
         id="path3115"
         inkscape:connector-curvature="0" />
      <path
         d="m 1513.4802,160.60883 4.5963,0 1.1685,0 6.5438,0 1.4802,0 4.9857,0 1.9476,0 1.558,0 1.8697,0 1.558,0 c -0.9868,1.03877 -1.9995,2.44101 -3.0382,4.20673 -1.0907,0.9349 -2.1294,2.2073 -3.1161,3.81722 l -0.779,0.77903 -0.7011,0.77902 -0.3895,1.16854 -1.1686,0.77902 -0.3895,1.16853 -1.1685,0.70113 -1.1685,1.94756 -2.2592,2.64868 c -0.9868,1.09068 -2.0255,2.51889 -3.1161,4.28463 l -3.8172,4.59624 -1.5581,1.86966 -1.0906,1.55805 -1.5581,1.94756 -5.3752,6.85541 c -1.0907,0.98679 -2.1034,2.415 -3.0382,4.28463 -0.5713,0.41551 -1.0907,1.03872 -1.5581,1.86966 l -1.9475,1.94756 -0.779,2.64868 c 5.505,0.83098 11.3996,-0.96078 17.6838,-5.37527 1.3503,-0.62319 2.8823,-1.50608 4.5962,-2.64868 l 0.7791,-0.38951 1.1685,-0.77902 c 0.9867,-0.36352 1.9994,-1.0127 3.0382,-1.94756 0.2596,-0.0519 0.5193,-0.28561 0.779,-0.70113 0.9867,-0.41544 1.9995,-1.06463 3.0382,-1.94756 l 3.5056,-4.59624 0.3895,-0.77902 c 1.4542,-1.14253 2.7266,-2.80444 3.8173,-4.98575 0.7789,-0.62318 1.532,-1.50607 2.2591,-2.64869 l 3.8951,-4.67414 1.0907,-1.86966 1.1685,-1.16853 1.1685,-1.94756 1.1686,-1.09064 1.1685,-1.55804 1.0907,-1.16854 1.1685,-1.86966 1.558,-1.55805 c 1.5061,-1.45411 2.9083,-3.3757 4.2068,-5.76477 l 11.919,0 1.0907,0 1.558,-0.38952 1.5581,0 4.2067,0 1.558,0 3.8173,0.38952 -6.1543,8.02394 -0.7791,1.16854 -0.779,0.77902 -0.3116,0.77903 -0.779,0.77902 c -0.7272,0.77908 -1.5062,1.79181 -2.3371,3.03819 l -1.558,1.55805 -0.7012,1.16854 -0.779,1.48014 -1.1685,1.16854 -0.779,1.55805 c -1.5062,1.24648 -2.9085,3.03824 -4.2068,5.37526 -0.7791,0.5194 -1.4283,1.27245 -1.9475,2.25917 -1.4543,1.24648 -2.7267,2.9084 -3.8172,4.98576 l -1.5581,1.94756 c -1.5062,1.24647 -2.9084,3.03822 -4.2067,5.37526 l -0.779,0.38951 -1.4802,1.86966 -1.558,1.94756 -1.5581,2.33707 -1.8696,2.25917 -1.9476,2.33708 c -0.6752,1.14258 -1.688,2.41498 -3.0382,3.81721 l -0.3895,1.16854 -1.1685,0.77902 -0.3896,1.09064 -0.779,0.38951 -1.558,2.72658 c 15.2168,-4.25865 28.9017,-13.08758 41.0545,-26.48681 1.2464,1.50614 2.9083,2.90838 4.9858,4.20673 -0.8311,0.77905 -1.714,1.79178 -2.6487,3.03819 l -0.779,0.38951 -0.3895,0.77903 -0.7791,0.38951 -0.779,0.77902 -0.3116,0.77903 c -0.2598,0.052 -0.5194,0.31163 -0.779,0.77902 -0.9349,0.46744 -1.8438,1.22049 -2.7266,2.25917 l -1.1685,0.38951 -0.7012,1.16854 -1.1685,0.38951 -0.779,1.16854 c -0.9869,0.31162 -1.9996,0.93484 -3.0382,1.86965 -0.2598,0.10389 -0.5194,0.36356 -0.779,0.77903 l -1.1686,0.77902 -1.1685,0.77902 c -1.2985,0.67517 -2.7007,1.6879 -4.2067,3.0382 l -1.1686,0.38951 c -0.9868,0.62323 -2.1294,1.53209 -3.4277,2.72658 -1.7139,0.36356 -3.5057,1.24645 -5.3752,2.64869 l -1.1686,0 -1.8696,1.16853 c -0.7791,0.10387 -1.5582,0.36355 -2.3371,0.77903 -1.662,0.1558 -3.7134,0.64918 -6.1543,1.48014 l -1.1685,0 -1.0907,0.38951 c -1.2465,0.0519 -2.6747,0.31161 -4.2846,0.77903 l -1.4801,0 c -1.662,1.3503 -3.4538,3.27189 -5.3753,5.76477 l -1.9476,2.33708 c -0.2597,0.0519 -0.5194,0.28563 -0.779,0.70112 l -1.0906,0.77902 -0.7791,0.77903 c -1.0906,1.55803 -2.6227,3.21995 -4.5962,4.98575 l -0.779,0.77902 c -0.7271,0.77901 -1.5062,1.79174 -2.3371,3.0382 -1.2984,0.46739 -2.441,1.37625 -3.4277,2.72658 l -2.7266,1.55805 -0.7011,1.09063 c -1.0907,0.46739 -2.1294,1.24642 -3.1161,2.33708 -1.6619,0.46738 -3.5835,1.35027 -5.7648,2.64868 -0.2597,-3e-5 -0.5193,0.1298 -0.779,0.38951 -0.8829,0.10384 -2.0255,0.36351 -3.4277,0.77902 l -1.1685,0.38951 -1.0907,0.38952 -1.1685,0 -1.1685,0.38951 -3.8173,1.16853 c -2.1812,0.15578 -4.2327,-0.1039 -6.1543,-0.77902 -10.8024,-4.10289 -13.2433,-12.28263 -7.3228,-24.53926 8.3615,-7.94604 18.9822,-11.39971 31.8621,-10.36101 1.2464,-0.0519 2.6487,-0.31161 4.2067,-0.77903 l 1.1686,0 4.9857,-7.32282 0.779,-1.09064 c 0.6752,-0.51933 1.4542,-1.29836 2.3371,-2.33707 l 0.7011,-1.55805 c 1.1426,-0.93481 2.1813,-2.07738 3.1161,-3.4277 l 0.7791,-1.16854 -8.1019,3.81722 -0.779,0.77902 c -1.1426,0.10389 -2.2852,0.62324 -3.4277,1.55805 l -1.5581,0.38951 -1.0906,0.77903 -1.9476,0.77902 -1.558,1.09063 -3.8172,1.55805 -1.5581,0.77903 c -1.6619,0.31161 -3.4537,0.9608 -5.3752,1.94756 -1.8697,0 -4.025,0.36355 -6.4659,1.09063 -3.0123,0.31161 -6.2063,-0.0519 -9.582,-1.09063 l -1.1686,0 c -2.0774,-2.18126 -3.1161,-5.01171 -3.1161,-8.49137 0.5713,-1.60996 1.61,-3.40171 3.1161,-5.37526 l 0.3895,-0.77902 0.3896,-1.09064 c 1.2464,-1.14254 2.7785,-2.80446 4.5962,-4.98575 0.7271,-0.83093 1.4801,-1.86963 2.2592,-3.1161 0.2596,-0.0519 0.5193,-0.31158 0.779,-0.77902 0.2597,-0.0519 0.5193,-0.28561 0.779,-0.70112 l 0.779,-0.77903 c 0.6752,-1.0906 1.6879,-2.38897 3.0382,-3.89512 l 0.3895,-0.70112 0.7791,-1.16853 c 1.1425,-1.03866 2.4149,-2.57074 3.8172,-4.59625 l 2.7266,-3.5056 0.779,-0.70113 3.8172,-5.06365 0.779,-0.70112 0.3895,-0.77903 0.7012,-0.77902 0.779,-0.77903 0.3895,-1.16853 1.5581,-1.86966 1.558,-1.94756 1.4801,-1.55805 1.1686,-1.48014 c 0.9348,-1.09057 1.9475,-2.51878 3.0382,-4.28463 l 0.779,-0.31161 0.779,-1.16854 z m -11.5295,74.78631 c -2.4929,-0.41549 -5.6869,-0.54532 -9.582,-0.38952 -5.4013,0.72709 -10.6467,3.03819 -15.7363,6.93332 -3.8951,6.49185 -3.3758,11.34776 1.558,14.56775 1.8178,0.9348 3.7394,1.32431 5.7648,1.16853 l 3.4277,-3.4277 0.7791,-0.77903 0.779,-1.16853 0.3895,-0.77903 0.779,-0.77902 0.779,-0.70112 0.3116,-1.16854 1.1686,-0.77902 0.3895,-1.16854 c 1.4022,-1.40226 3.194,-3.58352 5.3753,-6.5438 l 0.3895,-1.09063 c 0.9867,-0.83097 2.1293,-2.12934 3.4277,-3.89512 z"
         id="path3118"
         inkscape:connector-curvature="0" />
    </g>
  </g>
</svg>
