<?xml version="1.0" encoding="UTF-8" standalone="no"?>
<!-- Created with Inkscape (http://www.inkscape.org/) -->

<svg
   xmlns:dc="http://purl.org/dc/elements/1.1/"
   xmlns:cc="http://creativecommons.org/ns#"
   xmlns:rdf="http://www.w3.org/1999/02/22-rdf-syntax-ns#"
   xmlns:svg="http://www.w3.org/2000/svg"
   xmlns="http://www.w3.org/2000/svg"
   xmlns:xlink="http://www.w3.org/1999/xlink"
   xmlns:sodipodi="http://sodipodi.sourceforge.net/DTD/sodipodi-0.dtd"
   xmlns:inkscape="http://www.inkscape.org/namespaces/inkscape"
   width="1920"
   height="1080"
   id="svg2"
   version="1.1"
   inkscape:version="0.48.4 r9939"
   sodipodi:docname="IngenuityBulb09.svg"
   inkscape:export-filename="C:\Users\Richard\SkyDrive\Documents\Gaming Projects\Ingenuity\Graphics\IngenuityBulb08.png"
   inkscape:export-xdpi="90"
   inkscape:export-ydpi="90">
  <defs
     id="defs4">
    <inkscape:path-effect
       effect="skeletal"
       id="path-effect4131"
       is_visible="true"
       pattern="m 139.25275,50.373627 a 52.747253,35.868134 0 1 1 -105.49451,0 52.747253,35.868134 0 1 1 105.49451,0 z"
       copytype="single_stretched"
       prop_scale="0.03"
       scale_y_rel="false"
       spacing="0"
       normal_offset="0"
       tang_offset="0"
       prop_units="false"
       vertical_pattern="false"
       fuse_tolerance="0" />
    <linearGradient
       inkscape:collect="always"
       id="linearGradient3317">
      <stop
         style="stop-color:#d35f5f;stop-opacity:1;"
         offset="0"
         id="stop3319" />
      <stop
         style="stop-color:#d35f5f;stop-opacity:0;"
         offset="1"
         id="stop3321" />
    </linearGradient>
    <linearGradient
       id="linearGradient3834">
      <stop
         style="stop-color:#feffe8;stop-opacity:1;"
         offset="0"
         id="stop3836" />
      <stop
         style="stop-color:#fbff75;stop-opacity:1;"
         offset="1"
         id="stop3838" />
    </linearGradient>
    <linearGradient
       id="linearGradient3858">
      <stop
         style="stop-color:#eaeaea;stop-opacity:1;"
         offset="0"
         id="stop3860" />
      <stop
         style="stop-color:#b3b3b3;stop-opacity:1;"
         offset="1"
         id="stop3862" />
    </linearGradient>
    <linearGradient
       id="linearGradient3850">
      <stop
         style="stop-color:#c1c24e;stop-opacity:1;"
         offset="0"
         id="stop3852" />
      <stop
         style="stop-color:#808000;stop-opacity:1"
         offset="1"
         id="stop3854" />
    </linearGradient>
    <linearGradient
       id="linearGradient3046">
      <stop
         style="stop-color:#666600;stop-opacity:1;"
         offset="0"
         id="stop3048" />
      <stop
         id="stop3054"
         offset="0.5"
         style="stop-color:#d8d8d8;stop-opacity:1;" />
      <stop
         style="stop-color:#666600;stop-opacity:1;"
         offset="1"
         id="stop3050" />
    </linearGradient>
    <linearGradient
       id="linearGradient3022">
      <stop
         style="stop-color:#ffffff;stop-opacity:1;"
         offset="0"
         id="stop3024" />
      <stop
         id="stop3866"
         offset="0.5"
         style="stop-color:#f0fafc;stop-opacity:1;" />
      <stop
         style="stop-color:#6cd6e8;stop-opacity:1;"
         offset="1"
         id="stop3026" />
    </linearGradient>
    <linearGradient
       id="linearGradient4028">
      <stop
         style="stop-color:#ffffff;stop-opacity:1;"
         offset="0"
         id="stop4030" />
      <stop
         id="stop3868"
         offset="0.81944442"
         style="stop-color:#ffff7e;stop-opacity:1;" />
      <stop
         style="stop-color:#ffff79;stop-opacity:1;"
         offset="1"
         id="stop4032" />
    </linearGradient>
    <filter
       id="filter4053"
       inkscape:label="Glow"
       inkscape:menu="Shadows and Glows"
       inkscape:menu-tooltip="Glow of object's own color at the edges"
       color-interpolation-filters="sRGB">
      <feGaussianBlur
         id="feGaussianBlur4055"
         stdDeviation="5"
         result="result91" />
      <feComposite
         id="feComposite4057"
         in2="result91"
         in="SourceGraphic"
         operator="over" />
    </filter>
    <linearGradient
       inkscape:collect="always"
       xlink:href="#linearGradient3850"
       id="linearGradient3856"
       x1="338.89752"
       y1="723.55945"
       x2="426.1456"
       y2="723.55945"
       gradientUnits="userSpaceOnUse"
       gradientTransform="matrix(1.2218916,0,0,1.2218916,489.36999,-135.67836)" />
    <linearGradient
       inkscape:collect="always"
       xlink:href="#linearGradient3858"
       id="linearGradient3864"
       x1="339.57034"
       y1="782.13354"
       x2="424.20801"
       y2="781.11377"
       gradientUnits="userSpaceOnUse"
       gradientTransform="matrix(1.2218916,0,0,1.3170814,497.36999,-204.4881)" />
    <filter
       id="filter3073"
       inkscape:label="Noise fill"
       inkscape:menu="ABCs"
       inkscape:menu-tooltip="Basic noise fill texture; adjust color in Flood"
       color-interpolation-filters="sRGB">
      <feTurbulence
         id="feTurbulence3075"
         numOctaves="5"
         baseFrequency="0.010727969348659005"
         type="fractalNoise" />
      <feColorMatrix
         id="feColorMatrix3077"
         result="result0"
         values="1 0 0 0 0 0 1 0 0 0 0 0 1 0 0 0 0 0 3 -1 " />
      <feFlood
         id="feFlood3079"
         flood-opacity="1"
         flood-color="rgb(255,255,255)"
         result="result1" />
      <feBlend
         id="feBlend3081"
         in2="SourceGraphic"
         mode="normal"
         in="result1"
         result="result2" />
      <feComposite
         id="feComposite3083"
         in2="result0"
         operator="out"
         result="result3" />
      <feComposite
         id="feComposite3085"
         in2="SourceGraphic"
         operator="atop" />
    </filter>
    <radialGradient
       inkscape:collect="always"
       xlink:href="#linearGradient3834"
       id="radialGradient3840"
       cx="935.59125"
       cy="522.44141"
       fx="935.59125"
       fy="522.44141"
       r="135.90658"
       gradientTransform="matrix(-0.01516675,2.1253538,-1.4790552,-0.01055736,1679.3301,-1573.0532)"
       gradientUnits="userSpaceOnUse" />
    <filter
       id="filter3912"
       inkscape:label="Simple blur"
       inkscape:menu="ABCs"
       inkscape:menu-tooltip="Simple Gaussian blur, same as the blur slider in Fill and Stroke dialog"
       color-interpolation-filters="sRGB">
      <feGaussianBlur
         id="feGaussianBlur3914"
         stdDeviation="3" />
    </filter>
    <filter
       id="filter3918"
       inkscape:label="Simple blur"
       inkscape:menu="ABCs"
       inkscape:menu-tooltip="Simple Gaussian blur, same as the blur slider in Fill and Stroke dialog"
       color-interpolation-filters="sRGB">
      <feGaussianBlur
         id="feGaussianBlur3920"
         stdDeviation="3" />
    </filter>
    <linearGradient
       inkscape:collect="always"
       xlink:href="#linearGradient3858"
       id="linearGradient3952"
       gradientUnits="userSpaceOnUse"
       gradientTransform="matrix(1.2218916,0,0,1.3170814,497.36999,-204.4881)"
       x1="339.57034"
       y1="782.13354"
       x2="424.20801"
       y2="781.11377" />
    <linearGradient
       inkscape:collect="always"
       xlink:href="#linearGradient3850"
       id="linearGradient3954"
       gradientUnits="userSpaceOnUse"
       gradientTransform="matrix(1.2218916,0,0,1.2218916,489.36999,-135.67836)"
       x1="338.89752"
       y1="723.55945"
       x2="426.1456"
       y2="723.55945" />
    <radialGradient
       inkscape:collect="always"
       xlink:href="#linearGradient3834"
       id="radialGradient3956"
       gradientUnits="userSpaceOnUse"
       gradientTransform="matrix(-0.01516675,2.1253538,-1.4790552,-0.01055736,1679.3301,-1573.0532)"
       cx="935.59125"
       cy="522.44141"
       fx="935.59125"
       fy="522.44141"
       r="135.90658" />
    <filter
       id="filter3974"
       inkscape:label="Simple blur"
       inkscape:menu="ABCs"
       inkscape:menu-tooltip="Simple Gaussian blur, same as the blur slider in Fill and Stroke dialog"
       color-interpolation-filters="sRGB">
      <feGaussianBlur
         id="feGaussianBlur3976"
         stdDeviation="3" />
    </filter>
    <filter
       id="filter4013"
       inkscape:label="Simple blur"
       inkscape:menu="ABCs"
       inkscape:menu-tooltip="Simple Gaussian blur, same as the blur slider in Fill and Stroke dialog"
       color-interpolation-filters="sRGB">
      <feGaussianBlur
         id="feGaussianBlur4015"
         stdDeviation="3" />
    </filter>
    <filter
       id="filter4054"
       inkscape:label="Noise fill"
       inkscape:menu="ABCs"
       inkscape:menu-tooltip="Basic noise fill texture; adjust color in Flood"
       color-interpolation-filters="sRGB">
      <feTurbulence
         id="feTurbulence4056"
         numOctaves="5"
         baseFrequency="0.02"
         type="fractalNoise" />
      <feColorMatrix
         id="feColorMatrix4058"
         result="result0"
         values="1 0 0 0 0 0 1 0 0 0 0 0 1 0 0 0 0 0 3 -1 " />
      <feFlood
         id="feFlood4060"
         flood-opacity="1"
         flood-color="rgb(145,199,195)"
         result="result1" />
      <feBlend
         id="feBlend4062"
         in2="SourceGraphic"
         mode="normal"
         in="result1"
         result="result2" />
      <feComposite
         id="feComposite4064"
         in2="result0"
         operator="out"
         result="result3" />
      <feComposite
         id="feComposite4066"
         in2="SourceGraphic"
         operator="atop" />
    </filter>
    <filter
       id="filter4211"
       inkscape:label="Simple blur"
       inkscape:menu="ABCs"
       inkscape:menu-tooltip="Simple Gaussian blur, same as the blur slider in Fill and Stroke dialog"
       color-interpolation-filters="sRGB">
      <feGaussianBlur
         id="feGaussianBlur4213"
         stdDeviation="3" />
    </filter>
    <filter
       id="filter4221"
       style="color-interpolation-filters:sRGB;"
       inkscape:label="Drop Shadow">
      <feFlood
         id="feFlood4223"
         flood-opacity="0.3"
         flood-color="rgb(0,0,0)"
         result="flood" />
      <feComposite
         id="feComposite4225"
         in2="SourceGraphic"
         in="flood"
         operator="in"
         result="composite1" />
      <feGaussianBlur
         id="feGaussianBlur4227"
         in="composite"
         stdDeviation="6"
         result="blur" />
      <feOffset
         id="feOffset4229"
         dx="-8"
         dy="8"
         result="offset" />
      <feComposite
         id="feComposite4231"
         in2="offset"
         in="SourceGraphic"
         operator="over"
         result="composite2" />
    </filter>
    <filter
       id="filter4317"
       style="color-interpolation-filters:sRGB;"
       inkscape:label="Drop Shadow">
      <feFlood
         id="feFlood4319"
         flood-opacity="0.3"
         flood-color="rgb(0,0,0)"
         result="flood" />
      <feComposite
         in2="SourceGraphic"
         id="feComposite4321"
         in="flood"
         operator="in"
         result="composite1" />
      <feGaussianBlur
         id="feGaussianBlur4323"
         in="composite"
         stdDeviation="6"
         result="blur" />
      <feOffset
         id="feOffset4325"
         dx="6"
         dy="10"
         result="offset" />
      <feComposite
         in2="offset"
         id="feComposite4327"
         in="SourceGraphic"
         operator="over"
         result="composite2" />
    </filter>
    <filter
       id="filter4689"
       style="color-interpolation-filters:sRGB;"
       inkscape:label="Drop Shadow">
      <feFlood
         id="feFlood4691"
         flood-opacity="0.07"
         flood-color="rgb(0,0,0)"
         result="flood" />
      <feComposite
         id="feComposite4693"
         in2="SourceGraphic"
         in="flood"
         operator="in"
         result="composite1" />
      <feGaussianBlur
         id="feGaussianBlur4695"
         in="composite"
         stdDeviation="30"
         result="blur" />
      <feOffset
         id="feOffset4697"
         dx="0"
         dy="4"
         result="offset" />
      <feComposite
         id="feComposite4699"
         in2="offset"
         in="SourceGraphic"
         operator="over"
         result="composite2" />
    </filter>
    <radialGradient
       inkscape:collect="always"
       xlink:href="#linearGradient4028"
       id="radialGradient4725"
       gradientUnits="userSpaceOnUse"
       gradientTransform="matrix(0.01328824,-1.1760075,1.1969102,0.01352443,487.50209,907.52997)"
       cx="356.68561"
       cy="385.71692"
       fx="356.68561"
       fy="385.71692"
       r="565.0625" />
    <linearGradient
       inkscape:collect="always"
       xlink:href="#linearGradient3317"
       id="linearGradient3323"
       x1="973.02515"
       y1="227.68951"
       x2="973.02515"
       y2="-0.51682311"
       gradientUnits="userSpaceOnUse" />
  </defs>
  <sodipodi:namedview
     id="base"
     pagecolor="#ffffff"
     bordercolor="#666666"
     borderopacity="1.0"
     inkscape:pageopacity="0.0"
     inkscape:pageshadow="2"
     inkscape:zoom="0.46354167"
     inkscape:cx="960"
     inkscape:cy="540"
     inkscape:document-units="px"
     inkscape:current-layer="layer3"
     showgrid="false"
     inkscape:window-width="1366"
     inkscape:window-height="705"
     inkscape:window-x="-8"
     inkscape:window-y="-8"
     inkscape:window-maximized="1"
     width="1960px"
     borderlayer="true"
     showguides="true"
     inkscape:guide-bbox="true" />
  <metadata
     id="metadata7">
    <rdf:RDF>
      <cc:Work
         rdf:about="">
        <dc:format>image/svg+xml</dc:format>
        <dc:type
           rdf:resource="http://purl.org/dc/dcmitype/StillImage" />
        <dc:title></dc:title>
      </cc:Work>
    </rdf:RDF>
  </metadata>
  <g
     inkscape:groupmode="layer"
     id="layer4"
     inkscape:label="Dump"
     style="display:none"
     sodipodi:insensitive="true">
    <g
       transform="translate(0,27.637818)"
       id="g3832"
       style="stroke:none;display:inline">
      <path
         inkscape:transform-center-y="-127.71581"
         inkscape:transform-center-x="-646.36491"
         inkscape:connector-curvature="0"
         id="path3023"
         d="m 2195.5848,221.45609 37.3641,254.43163 -1272.15813,0 1291.72983,-227.743"
         style="fill:#ffffff;fill-opacity:0.64361704;stroke:none" />
      <path
         style="fill:#ffffff;fill-opacity:0.64361704;stroke:none"
         d="M 2033.8957,-185.66509 2156.0272,40.643159 960.58961,475.74687 2096.5259,-180.05917"
         id="path3793"
         inkscape:connector-curvature="0"
         inkscape:transform-center-x="-598.01763"
         inkscape:transform-center-y="-331.34682" />
      <path
         inkscape:transform-center-y="-503.08899"
         inkscape:transform-center-x="-487.32648"
         inkscape:connector-curvature="0"
         id="path3795"
         d="M 1742.714,-512.93293 1934.8821,-342.04417 960.35241,475.68331 1803.4845,-529.08588"
         style="fill:#ffffff;fill-opacity:0.64361704;stroke:none" />
      <path
         style="fill:#ffffff;fill-opacity:0.64361704;stroke:none"
         d="m 1357.1605,-720.8741 239.0264,94.85755 L 960.10778,475.70471 1408.7415,-756.83764"
         id="path3797"
         inkscape:connector-curvature="0"
         inkscape:transform-center-x="-317.85657"
         inkscape:transform-center-y="-616.95417" />
      <path
         inkscape:transform-center-y="-656.40557"
         inkscape:transform-center-x="-91.975165"
         inkscape:connector-curvature="0"
         id="path3799"
         d="m 923.73867,-784.40782 257.05453,7.3851 -220.90798,1252.83121 0.0235,-1311.65272"
         style="fill:#ffffff;fill-opacity:0.64361704;stroke:none" />
      <path
         style="fill:#ffffff;fill-opacity:0.64361704;stroke:none"
         d="M 494.72557,-695.87099 738.80366,-776.8491 959.71158,475.98213 511.12201,-756.57629"
         id="path3801"
         inkscape:connector-curvature="0"
         inkscape:transform-center-x="233.0722"
         inkscape:transform-center-y="-626.82119" />
      <path
         inkscape:transform-center-y="-551.04367"
         inkscape:transform-center-x="422.23104"
         inkscape:connector-curvature="0"
         id="path3803"
         d="M 121.8665,-465.94246 323.52874,-625.51662 959.60779,476.20469 116.51168,-528.5947"
         style="fill:#ffffff;fill-opacity:0.64361704;stroke:none" />
      <path
         style="fill:#ffffff;fill-opacity:0.64361704;stroke:none"
         d="M -149.86623,-122.35501 -14.943286,-341.27822 959.58638,476.44932 -176.32644,-179.3974"
         id="path3805"
         inkscape:connector-curvature="0"
         inkscape:transform-center-x="568.66081"
         inkscape:transform-center-y="-408.80215" />
      <path
         inkscape:transform-center-y="-217.25306"
         inkscape:transform-center-x="646.50168"
         inkscape:connector-curvature="0"
         id="path3807"
         d="M -287.69764,293.44965 -235.78769,41.582764 959.64994,476.68652 -332.07175,248.89727"
         style="fill:#ffffff;fill-opacity:0.64361704;stroke:none" />
      <path
         style="fill:#ffffff;fill-opacity:0.64361704;stroke:none"
         d="m -275.00323,731.31934 -37.36415,-254.4317 1272.15817,4e-5 -1291.72985,227.74296"
         id="path3809"
         inkscape:connector-curvature="0"
         inkscape:transform-center-x="646.36491"
         inkscape:transform-center-y="127.71579" />
      <path
         inkscape:transform-center-y="331.34681"
         inkscape:transform-center-x="598.01766"
         inkscape:connector-curvature="0"
         id="path3811"
         d="M -113.31413,1138.4405 -235.44571,912.13221 959.99195,477.02853 -175.94438,1132.8345"
         style="fill:#ffffff;fill-opacity:0.64361704;stroke:none" />
      <path
         style="fill:#ffffff;fill-opacity:0.64361704;stroke:none"
         d="M 177.86756,1465.7083 -14.300578,1294.8196 960.22915,477.09209 117.09701,1481.8612"
         id="path3813"
         inkscape:connector-curvature="0"
         inkscape:transform-center-x="487.32649"
         inkscape:transform-center-y="503.08894" />
      <path
         inkscape:transform-center-y="616.95414"
         inkscape:transform-center-x="317.85655"
         inkscape:connector-curvature="0"
         id="path3815"
         d="M 563.42103,1673.6495 324.39467,1578.792 960.47378,477.07069 511.84001,1709.613"
         style="fill:#ffffff;fill-opacity:0.64361704;stroke:none" />
      <path
         style="fill:#ffffff;fill-opacity:0.64361704;stroke:none"
         d="m 996.84285,1737.1832 -257.05448,-7.385 220.90797,-1252.83129 -0.0236,1311.65269"
         id="path3817"
         inkscape:connector-curvature="0"
         inkscape:transform-center-x="91.975165"
         inkscape:transform-center-y="656.40555" />
      <path
         inkscape:transform-center-y="626.82123"
         inkscape:transform-center-x="-233.07217"
         inkscape:connector-curvature="0"
         id="path3819"
         d="m 1425.8559,1648.6464 -244.078,80.9782 L 960.86998,476.79327 1409.4594,1709.3517"
         style="fill:#ffffff;fill-opacity:0.64361704;stroke:none" />
      <path
         style="fill:#ffffff;fill-opacity:0.64361704;stroke:none"
         d="M 1798.715,1418.7179 1597.0529,1578.2921 960.97376,476.57071 1804.0697,1481.3702"
         id="path3821"
         inkscape:connector-curvature="0"
         inkscape:transform-center-x="-422.23096"
         inkscape:transform-center-y="551.0437" />
      <path
         inkscape:transform-center-y="408.80219"
         inkscape:transform-center-x="-568.66076"
         inkscape:connector-curvature="0"
         id="path3823"
         d="M 2070.4477,1075.1305 1935.5249,1294.0537 960.99516,476.32608 2096.9079,1132.1729"
         style="fill:#ffffff;fill-opacity:0.64361704;stroke:none" />
      <path
         style="fill:#ffffff;fill-opacity:0.64361704;stroke:none"
         d="M 2208.2791,659.32586 2156.3693,911.19269 960.9316,476.08888 2252.6532,703.87826"
         id="path3825"
         inkscape:connector-curvature="0"
         inkscape:transform-center-x="-646.50163"
         inkscape:transform-center-y="217.25308" />
    </g>
  </g>
  <g
     inkscape:groupmode="layer"
     id="layer3"
     inkscape:label="Background"
     transform="translate(0,27.637818)">
    <path
       style="fill:#ffffff;fill-opacity:1;stroke:none;display:inline"
       d="m 955.17047,33.580229 -454.91875,453.871761 -2.15932,2.22486 456.09662,457.11089 0.39263,-0.39261 2.32295,-2.32308 454.3952,-453.41365 -0.2289,-0.22902 -2.3885,-2.38846 L 957.62442,35.968683 z"
       id="path4319"
       inkscape:connector-curvature="0"
       sodipodi:nodetypes="ccccccccccc" />
    <path
       style="fill:#00baba;fill-opacity:1;stroke:none;display:inline"
       d="M 956.0625 81.375 L 893.875 143.40625 L 945.59375 400.1875 L 956.0625 81.375 z M 958.40625 83.65625 L 967.15625 400.1875 L 1019.8438 145.25 L 958.40625 83.65625 z M 888.8125 148.46875 L 843.03125 194.15625 L 924.34375 403.71875 L 888.8125 148.46875 z M 1024.9688 150.375 L 988.375 403.78125 L 1070.2812 195.78125 L 1024.9688 150.375 z M 836.75 200.40625 L 799.6875 237.40625 L 904.09375 410.6875 L 836.75 200.40625 z M 1076.5938 202.125 L 1008.6562 410.78125 L 1113.3125 238.90625 L 1076.5938 202.125 z M 792.90625 244.15625 L 760.1875 276.78125 L 885.40625 420.84375 L 792.90625 244.15625 z M 1120.125 245.75 L 1027.3125 421 L 1152.5 278.1875 L 1120.125 245.75 z M 753.28125 283.71875 L 721.96875 314.9375 L 868.875 433.96875 L 753.28125 283.71875 z M 1159.4688 285.15625 L 1043.8125 434.125 L 1190.4375 316.21875 L 1159.4688 285.15625 z M 715.125 321.78125 L 682.625 354.1875 L 855 449.59375 L 715.125 321.78125 z M 1197.375 323.15625 L 1057.6875 449.78125 L 1229.5312 355.40625 L 1197.375 323.15625 z M 676.03125 360.78125 L 639.3125 397.375 L 844.28125 467.3125 L 676.03125 360.78125 z M 1236.1875 362.03125 L 1068.4062 467.46875 L 1272.5 398.4375 L 1236.1875 362.03125 z M 633.3125 403.40625 L 588.0625 448.53125 L 836.84375 486.46875 L 633.3125 403.40625 z M 1278.5625 404.53125 L 1075.7812 486.65625 L 1323.3438 449.4375 L 1278.5625 404.53125 z M 583.25 453.34375 L 521.5625 514.875 L 833.09375 506.5625 L 583.25 453.34375 z M 1328.2812 454.375 L 1079.5625 506.78125 L 1389.2188 515.4375 L 1328.2812 454.375 z M 956.21875 516.625 L 956.21875 516.65625 L 956.1875 516.65625 L 956.09375 516.75 L 956.0625 516.84375 L 956.0625 516.90625 L 956.09375 516.9375 L 956.125 517.03125 L 956.15625 517.0625 L 956.21875 517.09375 L 956.28125 517.09375 L 956.34375 517.09375 L 956.40625 517.0625 L 956.46875 517.0625 L 956.5 517.03125 L 956.53125 516.96875 L 956.5625 516.9375 L 956.5625 516.875 L 956.5625 516.78125 L 956.53125 516.75 L 956.4375 516.65625 L 956.34375 516.625 L 956.21875 516.625 z M 519.5 517 L 581.59375 579.21875 L 833.0625 526.96875 L 519.5 517 z M 1391.5 517.71875 L 1079.5625 527.1875 L 1330.125 579.40625 L 1391.7188 517.9375 L 1391.5 517.71875 z M 836.8125 547.0625 L 586.3125 583.96875 L 631.84375 629.59375 L 836.8125 547.0625 z M 1075.7812 547.28125 L 1279.9375 629.46875 L 1325.2812 584.21875 L 1075.7812 547.28125 z M 844.15625 566.28125 L 637.8125 635.5625 L 674.6875 672.53125 L 844.15625 566.28125 z M 1068.375 566.4375 L 1237.1875 672.125 L 1273.9062 635.5 L 1068.375 566.4375 z M 854.96875 583.9375 L 681.1875 679.0625 L 713.875 711.78125 L 854.96875 583.9375 z M 1057.625 584.15625 L 1198.0938 711.15625 L 1230.5938 678.71875 L 1057.625 584.15625 z M 868.8125 599.59375 L 720.65625 718.59375 L 752.09375 750.125 L 868.8125 599.59375 z M 1043.7188 599.75 L 1159.9688 749.21875 L 1191.2188 718 L 1043.7188 599.75 z M 885.28125 612.75 L 758.9375 756.96875 L 791.8125 789.90625 L 885.28125 612.75 z M 1027.2188 612.875 L 1120.375 788.6875 L 1153.0312 756.125 L 1027.2188 612.875 z M 903.96875 623 L 798.53125 796.65625 L 835.78125 834 L 903.96875 623 z M 1008.5312 623.0625 L 1076.625 832.375 L 1113.5938 795.46875 L 1008.5312 623.0625 z M 924.21875 629.96875 L 841.96875 840.1875 L 888 886.3125 L 924.21875 629.96875 z M 988.25 630.03125 L 1024.7188 884.15625 L 1070.3438 838.625 L 988.25 630.03125 z M 945.46875 633.53125 L 892.9375 891.28125 L 955.125 953.59375 L 955.5 953.21875 L 945.46875 633.53125 z M 967.03125 633.5625 L 957.71875 951 L 1019.6562 889.1875 L 967.03125 633.5625 z "
       id="rect4052"
       transform="translate(0,-27.637818)" />
  </g>
  <g
     inkscape:groupmode="layer"
     id="layer2"
     inkscape:label="Shine"
     style="display:inline"
     transform="translate(0,27.637818)" />
  <g
     inkscape:groupmode="layer"
     id="layer5"
     inkscape:label="Bulb"
     style="display:inline">
    <path
       style="fill:#ffffff;fill-opacity:1;stroke:none"
       d="m 947.0625,382.40625 c -58.42122,1.0707 -110.39182,50.73022 -115.91789,108.58437 -5.40241,39.46037 9.97758,78.52597 31.88459,110.60285 12.99561,21.23584 28.87107,42.86913 32.2208,68.00028 -3.45651,11.35671 0.60058,23.3189 -1.09375,34.90625 0,22.71875 0,45.4375 0,68.15625 11.62231,6.20169 22.56486,13.91143 33.875,20.65625 10.50435,4.1072 22.05068,0.84982 33,2.21875 9.68846,0.31652 19.76721,-2.47953 26.5625,-9.5625 8.19521,-3.46399 15.13845,-10.32201 19.46875,-17.75 -0.2086,-29.33442 0.7848,-58.65711 0.3125,-88 0.3393,-9.95397 -1.4264,-20.37769 3.6668,-29.42267 17.7976,-42.00472 53.428,-76.033 61.0829,-122.22134 10.6044,-57.07599 -23.1528,-120.2707 -78.40595,-139.23099 -14.96043,-5.11995 -30.79014,-7.4948 -46.65625,-6.9375 z"
       id="path4248"
       inkscape:connector-curvature="0" />
    <path
       style="fill:#00baba;fill-opacity:1;stroke:none"
       d="m 910.78179,678.95523 c 0.26007,-52.17765 -64.59347,-100.05251 -66.01499,-164.0558 -1.42153,-64.00327 44.48154,-114.93568 107.15927,-115.21217 62.67793,-0.27652 108.63433,50.68555 107.26123,114.22271 -1.3733,63.53718 -69.0995,112.77934 -68.83948,164.95698"
       id="path2989-7"
       inkscape:connector-curvature="0"
       sodipodi:nodetypes="czzzc" />
    <path
       style="font-size:medium;font-style:normal;font-variant:normal;font-weight:normal;font-stretch:normal;text-indent:0;text-align:start;text-decoration:none;line-height:normal;letter-spacing:normal;word-spacing:normal;text-transform:none;direction:ltr;block-progression:tb;writing-mode:lr-tb;text-anchor:start;baseline-shift:baseline;color:#000000;fill:#ffffff;fill-opacity:1;stroke:none;stroke-width:0.63538373;marker:none;visibility:visible;display:inline;overflow:visible;enable-background:accumulate;font-family:Sans;-inkscape-font-specification:Sans"
       d="m 956.53125,496.5625 c -5.38172,6.49314 -5.37494,15.93858 -8.84375,23.53125 -0.65143,1.44828 -2.46524,9.30863 -2.4375,4.625 -1.69225,-9.32147 -0.81876,-19.00805 -3.625,-28.125 -6.76596,-0.71751 -6.18646,7.33043 -8.0625,11.46875 -2.12603,5.06957 -3.75848,10.43897 -5.78125,15.59375 -0.84796,-7.15625 -1.22881,-14.65822 -4.0625,-21.4375 -7.20036,1.12587 -6.21868,9.76173 -9.1875,14.59375 -0.51307,1.87323 -1.79721,8.17012 -4.59375,4.8125 -2.43044,-2.66078 -4.4708,-8.02421 -6.625,-2.4375 -1.69582,6.1256 6.23785,8.70839 9.1875,12.78125 6.2212,-2.27253 5.17728,-9.96654 8.34375,-14.5625 0.47848,6.18178 2.20737,11.94694 2.15625,18.15625 0.47496,3.75003 6.43173,5.92094 6.6875,0.75 3.1966,-7.1161 5.32833,-15.33438 8.21875,-22.03125 1.38894,10.131 1.34413,20.57826 3.65625,30.625 6.20828,1.86003 6.48448,-5.89365 7.46875,-9.8125 2.79363,-6.58065 4.46001,-14.18428 7.15625,-20.65625 1.5613,10.02709 1.58359,20.2778 4.3125,30.125 6.26851,0.80373 6.09535,-6.71249 6.96875,-10.75 1.95818,-4.98038 3.20325,-12.39094 4.8125,-16.28125 1.08972,5.0819 1.9633,10.30259 3.8125,15.125 -1.69801,1.79372 3.23512,5.51689 4.96875,2.375 3.9532,-3.71538 4.21629,-9.95984 6.59375,-14.375 -0.4331,-4.1387 2.37835,-0.23908 3.65625,1.125 1.61737,3.16158 6.04219,1.28278 4.46875,-2 -1.60726,-3.74495 -3.55037,-10.21783 -8.5,-9.90625 -4.28614,3.09771 -4.77546,9.57951 -7.28125,14.09375 -2.35363,-7.43243 -2.23911,-15.86255 -6.65625,-22.59375 -7.18062,1.96418 -4.73498,10.76472 -7.46875,15.84375 -0.5313,1.48484 -2.11569,9.33393 -2.5,5.96875 -1.63434,-8.7334 -0.84305,-18.00851 -3.875,-26.46875 -0.95118,-0.11362 -2.05352,-0.72162 -2.96875,-0.15625 z"
       id="path4039"
       inkscape:connector-curvature="0" />
    <path
       style="fill:#ffffff;stroke:none"
       d="m 903.09586,534.16213 c 8.67471,40.33058 17.34941,80.66116 26.02412,120.99174 3.18817,7.79801 3.87912,-2.62407 3.05205,-6.26759 -3.33046,-39.46226 -15.1867,-77.50157 -25.66987,-115.54167 -2.82766,-3.60013 -2.55129,-4.03333 -3.4063,0.81752 z"
       id="path2993"
       inkscape:connector-curvature="0" />
    <path
       style="fill:#ffffff;stroke:none"
       d="m 994.78047,527.94388 c -11.16324,41.24372 -26.01628,82.66504 -24.41655,125.97103 1.29169,9.67209 4.58704,-2.08351 4.85504,-6.00038 7.73701,-39.70893 15.46609,-79.41943 23.13535,-119.14153 -0.88804,-4.7958 -0.46788,-4.99048 -3.57384,-0.82912 z"
       id="path2993-1"
       inkscape:connector-curvature="0" />
    <path
       sodipodi:type="arc"
       style="fill:#ffffff;fill-opacity:1;fill-rule:evenodd;stroke:none"
       id="path4133"
       sodipodi:cx="86.505493"
       sodipodi:cy="50.373627"
       sodipodi:rx="52.747253"
       sodipodi:ry="35.868134"
       d="m 139.25275,50.373627 a 52.747253,35.868134 0 1 1 -105.49451,0 52.747253,35.868134 0 1 1 105.49451,0 z"
       transform="matrix(0.22000001,0,0,0.22000001,26.331427,11.314285)" />
    <path
       style="fill:#00baba;fill-opacity:1;stroke:none;stroke-width:6;stroke-miterlimit:4;stroke-dasharray:none"
       d="m 909.57104,766.12719 25.24338,17.23296 35.34076,0 22.398,-17.10155"
       id="path3067"
       inkscape:connector-curvature="0"
       sodipodi:nodetypes="cccc" />
    <path
       style="fill:#00baba;fill-opacity:1;stroke:none;stroke-width:6;stroke-miterlimit:4;stroke-dasharray:none"
       d="m 908.76065,677.36048 84.08266,0 0,90.27198 -84.08266,0 z"
       id="rect2987"
       inkscape:connector-curvature="0" />
    <path
       style="fill:#ffffff;stroke:#ffffff;stroke-width:6;stroke-miterlimit:4;stroke-dasharray:none"
       d="m 997.80723,681.39837 c -34.03817,3.54649 -65.11523,10.05409 -93.4007,19.35328"
       id="path3033"
       inkscape:connector-curvature="0"
       sodipodi:nodetypes="cc" />
    <path
       style="fill:#ffffff;stroke:#ffffff;stroke-width:6;stroke-miterlimit:4;stroke-dasharray:none"
       d="m 997.80723,703.69673 c -31.13357,3.85855 -62.26713,9.75323 -93.4007,19.35325"
       id="path3033-4"
       inkscape:connector-curvature="0"
       sodipodi:nodetypes="cc" />
    <path
       style="fill:#ffffff;stroke:#ffffff;stroke-width:6;stroke-miterlimit:4;stroke-dasharray:none"
       d="m 1000.12,725.99504 c -34.00647,4.0808 -65.14718,11.02737 -93.40085,20.86098"
       id="path3033-0"
       inkscape:connector-curvature="0"
       sodipodi:nodetypes="cc" />
    <path
       style="fill:#ffffff;stroke:#ffffff;stroke-width:6;stroke-miterlimit:4;stroke-dasharray:none"
       d="m 1000.12,748.03049 c -27.84784,0.38211 -59.82681,9.02645 -93.40085,20.86096"
       id="path3033-9"
       inkscape:connector-curvature="0"
       sodipodi:nodetypes="cc" />
  </g>
  <g
     inkscape:label="Overlays"
     inkscape:groupmode="layer"
     id="layer1"
     style="display:inline"
     transform="translate(0,27.637818)" />
</svg>
