<?xml version="1.0" encoding="UTF-8" standalone="no"?>
<!-- Created with Inkscape (http://www.inkscape.org/) -->

<svg
   xmlns:dc="http://purl.org/dc/elements/1.1/"
   xmlns:cc="http://creativecommons.org/ns#"
   xmlns:rdf="http://www.w3.org/1999/02/22-rdf-syntax-ns#"
   xmlns:svg="http://www.w3.org/2000/svg"
   xmlns="http://www.w3.org/2000/svg"
   xmlns:sodipodi="http://sodipodi.sourceforge.net/DTD/sodipodi-0.dtd"
   xmlns:inkscape="http://www.inkscape.org/namespaces/inkscape"
   width="744.09448819"
   height="1052.3622047"
   id="svg2"
   version="1.1"
   inkscape:version="0.48.4 r9939"
   sodipodi:docname="Door.svg">
  <defs
     id="defs4">
    <inkscape:path-effect
       effect="spiro"
       id="path-effect3906"
       is_visible="true" />
    <inkscape:path-effect
       is_visible="true"
       id="path-effect3836"
       effect="spiro" />
    <inkscape:path-effect
       effect="spiro"
       id="path-effect3832"
       is_visible="true" />
    <inkscape:path-effect
       effect="spiro"
       id="path-effect3819"
       is_visible="true" />
    <inkscape:path-effect
       effect="spiro"
       id="path-effect3777"
       is_visible="true" />
    <inkscape:path-effect
       effect="spiro"
       id="path-effect3773"
       is_visible="true" />
    <inkscape:path-effect
       effect="spiro"
       id="path-effect3769"
       is_visible="true" />
    <inkscape:path-effect
       effect="spiro"
       id="path-effect3765"
       is_visible="true" />
  </defs>
  <sodipodi:namedview
     id="base"
     pagecolor="#ffffff"
     bordercolor="#666666"
     borderopacity="1.0"
     inkscape:pageopacity="0.0"
     inkscape:pageshadow="2"
     inkscape:zoom="0.60926204"
     inkscape:cx="221.42004"
     inkscape:cy="599.66622"
     inkscape:document-units="px"
     inkscape:current-layer="layer1"
     showgrid="false"
     inkscape:window-width="1366"
     inkscape:window-height="705"
     inkscape:window-x="-8"
     inkscape:window-y="-8"
     inkscape:window-maximized="1" />
  <metadata
     id="metadata7">
    <rdf:RDF>
      <cc:Work
         rdf:about="">
        <dc:format>image/svg+xml</dc:format>
        <dc:type
           rdf:resource="http://purl.org/dc/dcmitype/StillImage" />
        <dc:title></dc:title>
      </cc:Work>
    </rdf:RDF>
  </metadata>
  <g
     inkscape:label="Layer 1"
     inkscape:groupmode="layer"
     id="layer1">
    <path
       style="fill:none;stroke:#000000;stroke-width:15;stroke-linecap:butt;stroke-linejoin:miter;stroke-opacity:1;stroke-miterlimit:4;stroke-dasharray:none"
       d="m 14.221111,1032.0463 713.087119,0 -2.03159,-660.26583 C 723.08144,180.26739 655.19108,25.060823 359.59094,22.347459 88.308349,27.386 13.252402,206.86396 14.22111,359.59094 z"
       id="path2985"
       inkscape:connector-curvature="0"
       sodipodi:nodetypes="cccccc" />
    <path
       style="fill:none;stroke:#000000;stroke-width:7.7065568;stroke-linecap:butt;stroke-linejoin:miter;stroke-miterlimit:4;stroke-opacity:1;stroke-dasharray:none"
       d="m 659.73393,483.42285 c 9.39392,0 2.86856,-18.39235 -8.06135,-19.1982 -16.76947,-1.23641 -15.46659,13.90094 -15.65654,29.74743 -0.15475,12.90978 28.37172,19.24641 28.37172,19.24641 l -0.18995,129.49073 c 0,0 -31.40805,14.66072 -31.40805,27.18596 0,12.52523 11.73519,21.80653 19.35769,21.72921 7.62249,-0.0773 10.39592,-9.23957 11.15818,-18.38655 M 585.03352,483.42285 c -9.39393,0 -3.64102,-19.39133 7.79271,-20.66889 9.33583,-1.04315 17.17998,13.53551 16.57369,29.36754 -0.6063,15.83204 -31.31308,20.63842 -31.31308,20.63842 l -1.56566,128.66856 c 0,0 33.43228,15.76782 33.43228,28.00813 0,12.24031 -5.09835,21.22383 -17.41214,22.74133 -12.31379,1.5175 -13.08308,-18.9401 -13.08308,-18.9401"
       id="path3757"
       inkscape:connector-curvature="0"
       sodipodi:nodetypes="cssccszczcczsczc" />
    <path
       inkscape:connector-curvature="0"
       style="fill:none;stroke:#000000;stroke-width:13.34876633;stroke-linecap:round;stroke-linejoin:miter;stroke-miterlimit:4;stroke-opacity:1"
       d="M 739.52223,-5.2691807 C 733.6081,-27.358185 719.32955,-47.098874 700.2021,-59.630597 681.07474,-72.16233 657.27434,-77.369906 634.66135,-73.97107 c -26.53601,3.988478 -49.91741,18.974016 -72.69671,33.157489 -22.7793,14.183349 -46.97605,28.279201 -73.74687,30.12053 -24.45907,1.6823 -49.63301,-7.823178 -66.27323,-25.8281 -8.32011,-9.00247 -14.50521,-19.982658 -17.78367,-31.794536 -3.27855,-11.811869 -3.63442,-24.437125 -0.91653,-36.390453 4.41462,-19.41578 17.43732,-37.00916 35.39185,-45.61724 8.9772,-4.30403 19.04882,-6.35819 28.98389,-5.71805 9.93507,0.64015 19.70736,3.99522 27.82947,9.75254 11.07433,7.84997 18.87047,20.18331 21.21042,33.55445 2.33995,13.371141 -0.80447,27.619082 -8.5548,38.76337"
       id="path3795" />
    <path
       id="path3797"
       d="m 11.495031,-1.337135 c 6.030318,-22.522976 20.589394,-42.651502 40.092629,-55.42943 19.503145,-12.777938 43.771145,-18.087825 66.8284,-14.622214 27.05735,4.066838 50.89812,19.34679 74.12495,33.80892 23.22683,14.462002 47.89897,28.8347889 75.19574,30.7122933 24.93961,1.7153519 50.60814,-7.9768763 67.57527,-26.3355333 8.48357,-9.179337 14.7902,-20.375248 18.13306,-32.419188 3.34296,-12.043932 3.70583,-24.917226 0.93454,-37.105393 -4.50135,-19.79724 -17.7799,-37.73627 -36.08718,-46.51346 -9.15357,-4.3886 -19.42306,-6.48311 -29.55333,-5.83039 -10.13025,0.65272 -20.09454,4.07371 -28.37622,9.94414 -11.2919,8.0042 -19.24121,20.57985 -21.62713,34.21368 -2.38592,13.633837 0.82028,28.161696 8.72287,39.524931"
       style="fill:none;stroke:#000000;stroke-width:13.61102295;stroke-linecap:round;stroke-linejoin:miter;stroke-miterlimit:4;stroke-opacity:1"
       inkscape:connector-curvature="0" />
    <path
       sodipodi:nodetypes="cccccc"
       inkscape:connector-curvature="0"
       id="path3799"
       d="m 42.663332,1001.5725 654.171088,2.0316 0,-629.79204 C 694.63922,182.29898 624.71727,61.629393 363.65411,54.852855 139.09803,57.859808 37.631449,206.86396 38.600157,359.59094 z"
       style="fill:none;stroke:#000000;stroke-width:10;stroke-linecap:butt;stroke-linejoin:miter;stroke-miterlimit:4;stroke-opacity:1;stroke-dasharray:none" />
    <path
       id="path3809"
       d="m 394.15321,973.10502 c 4.86789,-18.18151 16.62066,-34.43017 32.36445,-44.74506 15.74379,-10.3149 35.33392,-14.60127 53.94674,-11.80368 21.84184,3.28293 41.08715,15.61757 59.83684,27.29201 18.7497,11.67444 38.6661,23.27672 60.70122,24.79233 20.13231,1.3847 40.85302,-6.43927 54.54965,-21.25922 6.8483,-7.40995 11.93924,-16.44778 14.63781,-26.17016 2.69856,-9.72237 2.99148,-20.11425 0.75437,-29.95306 -3.63372,-15.98118 -14.35273,-30.46233 -29.13109,-37.54765 -7.38919,-3.54266 -15.67916,-5.23345 -23.85673,-4.70654 -8.17758,0.5269 -16.22118,3.28847 -22.9065,8.02733 -9.11531,6.46133 -15.53233,16.61293 -17.45835,27.61874 -1.92602,11.00583 0.66215,22.73334 7.04147,31.90622"
       style="fill:none;stroke:#000000;stroke-width:10.98740005;stroke-linecap:round;stroke-linejoin:miter;stroke-miterlimit:4;stroke-opacity:1"
       inkscape:connector-curvature="0" />
    <path
       inkscape:connector-curvature="0"
       style="fill:none;stroke:#000000;stroke-width:11.27124214;stroke-linecap:round;stroke-linejoin:miter;stroke-miterlimit:4;stroke-opacity:1"
       d="m 362.84216,972.9631 c -4.99364,-18.65121 -17.05002,-35.31962 -33.20052,-45.90097 -16.1505,-10.58138 -36.24672,-14.97847 -55.34037,-12.10861 -22.40609,3.36773 -42.14857,16.02102 -61.38263,27.99705 -19.23406,11.97603 -39.66497,23.87804 -62.26934,25.43279 -20.65239,1.42048 -41.90839,-6.60561 -55.958846,-21.80841 -7.025221,-7.60138 -12.247677,-16.87268 -15.015961,-26.84622 -2.768271,-9.97354 -3.068756,-20.63387 -0.773853,-30.72685 3.727589,-16.39403 14.723508,-31.24927 29.88365,-38.51764 7.58007,-3.63418 16.0842,-5.36865 24.47303,-4.82812 8.38883,0.54051 16.64022,3.37343 23.49825,8.23471 9.35078,6.62824 15.93358,17.04209 17.90936,28.33222 1.97577,11.29015 -0.67927,23.32062 -7.22338,32.73047"
       id="path3811" />
    <path
       style="fill:none;stroke:#000000;stroke-width:10;stroke-linecap:butt;stroke-linejoin:miter;stroke-miterlimit:4;stroke-opacity:1"
       d="m 166.36549,326.02944 c -8.25016,2.25505 -17.08081,2.34958 -25.37736,0.27168 -8.29654,-2.0779 -16.04018,-6.32353 -22.25352,-12.20101 -6.21334,-5.87748 -10.88229,-13.3735 -13.41755,-21.5419 -2.53526,-8.16841 -2.93108,-16.99069 -1.1375,-25.35331 3.32522,-15.50392 14.18089,-28.9031 27.96268,-36.74472 13.78178,-7.84163 30.22765,-10.37622 45.98817,-8.6342 17.31732,1.91409 33.80225,8.76371 48.72571,17.75502 14.92347,8.9913 28.43702,20.10945 41.80643,31.2814 13.36941,11.17194 26.70381,22.47696 41.35687,31.90252 14.65306,9.42556 30.77086,16.97594 47.94599,19.90312 18.35412,3.12812 38.0531,0.62758 53.84384,-9.23708 7.89537,-4.93233 14.71407,-11.64827 19.48263,-19.64362 4.76856,-7.99534 7.44826,-17.2736 7.34718,-26.58244 -0.16776,-15.44889 -8.37752,-30.5908 -21.23254,-39.16081 -12.85502,-8.57001 -29.98976,-10.32444 -44.3148,-4.53741"
       id="path3830" />
    <path
       style="fill:none;stroke:#000000;stroke-width:10;stroke-linecap:butt;stroke-linejoin:miter;stroke-miterlimit:4;stroke-opacity:1"
       d="m 580.54075,326.02944 c 8.25016,2.25505 17.08081,2.34958 25.37736,0.27168 8.29654,-2.0779 16.04018,-6.32353 22.25352,-12.20101 6.21334,-5.87748 10.88229,-13.3735 13.41755,-21.5419 2.53526,-8.16841 2.93108,-16.99069 1.1375,-25.35331 -3.32522,-15.50392 -14.18089,-28.9031 -27.96268,-36.74472 -13.78178,-7.84163 -30.22765,-10.37622 -45.98817,-8.6342 -17.31732,1.91409 -33.80225,8.76371 -48.72571,17.75502 -14.92347,8.9913 -28.43702,20.10945 -41.80643,31.2814 -13.36941,11.17194 -26.70381,22.47696 -41.35687,31.90252 -14.65306,9.42556 -30.77086,16.97594 -47.94599,19.90312 -18.35412,3.12812 -38.0531,0.62758 -53.84384,-9.23708 -7.89537,-4.93233 -14.71407,-11.64827 -19.48263,-19.64362 -4.76856,-7.99534 -7.44826,-17.2736 -7.34718,-26.58244 0.16776,-15.44889 8.37752,-30.5908 21.23254,-39.16081 12.85502,-8.57001 29.98976,-10.32444 44.3148,-4.53741"
       id="path3834" />
    <path
       id="path3838"
       d="m 147.01934,185.77603 c 3.70551,-13.84005 12.65191,-26.20877 24.63631,-34.06062 11.98441,-7.85186 26.89673,-11.11471 41.06509,-8.98514 16.62634,2.49901 31.27617,11.88832 45.54872,20.77508 14.27255,8.88677 29.43322,17.71861 46.20669,18.87231 15.32503,1.05406 31.09795,-4.90168 41.52403,-16.18284 5.21304,-5.64057 9.08834,-12.5203 11.14253,-19.92113 2.05418,-7.40082 2.27715,-15.31127 0.57424,-22.80073 -2.76604,-12.16511 -10.92552,-23.18839 -22.17504,-28.581851 -5.62476,-2.696727 -11.93521,-3.983778 -18.16011,-3.58269 -6.2249,0.401087 -12.3478,2.503239 -17.43678,6.110531 -6.9387,4.91846 -11.82344,12.64602 -13.28955,21.02382 -1.46612,8.37779 0.50404,17.30495 5.36007,24.2875"
       style="fill:none;stroke:#000000;stroke-width:8.36377716;stroke-linecap:round;stroke-linejoin:miter;stroke-miterlimit:4;stroke-opacity:1"
       inkscape:connector-curvature="0" />
    <path
       inkscape:connector-curvature="0"
       style="fill:none;stroke:#000000;stroke-width:8.36377716;stroke-linecap:round;stroke-linejoin:miter;stroke-miterlimit:4;stroke-opacity:1"
       d="m 606.70823,185.74444 c -3.70551,-13.84005 -12.65191,-26.20877 -24.63631,-34.06062 -11.98441,-7.85186 -26.89673,-11.11471 -41.06509,-8.98514 -16.62634,2.49901 -31.27617,11.88832 -45.54872,20.77508 -14.27255,8.88677 -29.43322,17.71861 -46.20669,18.87231 -15.32503,1.05406 -31.09795,-4.90168 -41.52403,-16.18284 -5.21304,-5.64057 -9.08834,-12.5203 -11.14253,-19.92113 -2.05418,-7.40082 -2.27715,-15.31127 -0.57424,-22.80073 2.76604,-12.16511 10.92552,-23.18839 22.17504,-28.581849 5.62476,-2.696727 11.93521,-3.983778 18.16011,-3.58269 6.2249,0.401087 12.3478,2.503239 17.43678,6.110531 6.9387,4.918458 11.82344,12.646018 13.28955,21.023818 1.46612,8.37779 -0.50404,17.30495 -5.36007,24.2875"
       id="path3840" />
    <path
       id="path3844"
       d="m 184.97775,551.65478 c 12.3667,-3.31104 23.4187,-11.30503 30.43467,-22.01363 7.01599,-10.7086 9.93149,-24.03341 8.02862,-36.69347 -2.23297,-14.85637 -10.62274,-27.94664 -18.56346,-40.69979 -7.94072,-12.75316 -15.83235,-26.29989 -16.86323,-41.28773 -0.94185,-13.69358 4.37985,-27.78739 14.46008,-37.10356 5.0401,-4.65807 11.18745,-8.12082 17.80041,-9.95634 6.61296,-1.8355 13.6813,-2.03474 20.37346,-0.5131 10.87007,2.47158 20.71985,9.76243 25.53914,19.81437 2.40965,5.02597 3.55969,10.66464 3.20129,16.22686 -0.35838,5.56222 -2.23675,11.03331 -5.46003,15.58053 -4.39486,6.20004 -11.29977,10.56477 -18.7857,11.87482 -7.48594,1.31003 -15.46275,-0.45039 -21.70196,-4.78947"
       style="fill:none;stroke:#000000;stroke-width:7.47340488;stroke-linecap:round;stroke-linejoin:miter;stroke-miterlimit:4;stroke-opacity:1"
       inkscape:connector-curvature="0" />
    <path
       inkscape:connector-curvature="0"
       style="fill:none;stroke:#000000;stroke-width:7.47340488;stroke-linecap:round;stroke-linejoin:miter;stroke-miterlimit:4;stroke-opacity:1"
       d="m 193.1041,612.25585 c 12.3667,3.31104 23.4187,11.30503 30.43467,22.01363 7.01599,10.7086 9.93149,24.03341 8.02862,36.69347 -2.23297,14.85637 -10.62274,27.94664 -18.56346,40.69979 -7.94072,12.75316 -15.83235,26.29989 -16.86323,41.28773 -0.94185,13.69358 4.37985,27.78739 14.46008,37.10356 5.0401,4.65807 11.18745,8.12082 17.80041,9.95634 6.61296,1.8355 13.6813,2.03474 20.37346,0.5131 10.87007,-2.47158 20.71985,-9.76243 25.53914,-19.81437 2.40965,-5.02597 3.55969,-10.66464 3.20129,-16.22686 -0.35838,-5.56222 -2.23675,-11.03331 -5.46003,-15.58053 -4.39486,-6.20004 -11.29977,-10.56477 -18.7857,-11.87482 -7.48594,-1.31003 -15.46275,0.45039 -21.70196,4.78947"
       id="path3846" />
    <path
       inkscape:connector-curvature="0"
       id="path3848"
       d="m 409.71945,810.6033 c -16.14448,-38.2732 -13.03624,-84.11974 8.12635,-119.86365 12.23688,-20.66825 29.78213,-37.6243 43.91185,-57.04771 7.06486,-9.71171 13.3127,-20.12501 17.33952,-31.43935 4.02682,-11.31433 5.76576,-23.59898 3.75942,-35.43976 -1.94365,-11.47081 -7.32714,-22.15947 -14.2559,-31.50557 -6.92877,-9.34609 -15.38444,-17.44901 -24.08442,-25.17349 -17.39997,-15.44897 -36.48318,-30.23181 -46.98634,-50.99507 -7.4933,-14.8132 -10.03546,-32.07857 -7.1298,-48.42291 2.90566,-16.34434 11.24278,-31.67563 23.38249,-42.99851"
       style="fill:none;stroke:#000000;stroke-width:7;stroke-linecap:butt;stroke-linejoin:miter;stroke-miterlimit:4;stroke-opacity:1;stroke-dasharray:none" />
    <path
       id="path3850"
       d="m 539.65413,616.31902 c -12.3667,3.31104 -23.4187,11.30503 -30.43467,22.01363 -7.01599,10.7086 -9.93149,24.03341 -8.02862,36.69347 2.23297,14.85637 10.62274,27.94664 18.56346,40.69979 7.94072,12.75316 15.83235,26.29989 16.86323,41.28773 0.94185,13.69358 -4.37985,27.78739 -14.46008,37.10356 -5.0401,4.65807 -11.18745,8.12082 -17.80041,9.95634 -6.61296,1.8355 -13.6813,2.03474 -20.37346,0.5131 -10.87007,-2.47158 -20.71985,-9.76243 -25.53914,-19.81437 -2.40965,-5.02597 -3.55969,-10.66464 -3.20129,-16.22686 0.35838,-5.56222 2.23675,-11.03331 5.46003,-15.58053 4.39486,-6.20004 11.29977,-10.56477 18.7857,-11.87482 7.48594,-1.31003 15.46275,0.45039 21.70196,4.78947"
       style="fill:none;stroke:#000000;stroke-width:7.47340488;stroke-linecap:round;stroke-linejoin:miter;stroke-miterlimit:4;stroke-opacity:1"
       inkscape:connector-curvature="0" />
    <path
       inkscape:connector-curvature="0"
       style="fill:none;stroke:#000000;stroke-width:7.47340488;stroke-linecap:round;stroke-linejoin:miter;stroke-miterlimit:4;stroke-opacity:1"
       d="m 549.81207,551.5916 c -12.3667,-3.31104 -23.4187,-11.30503 -30.43467,-22.01363 -7.01599,-10.7086 -9.93149,-24.03341 -8.02862,-36.69347 2.23297,-14.85637 10.62274,-27.94664 18.56346,-40.69979 7.94072,-12.75316 15.83235,-26.29989 16.86323,-41.28773 0.94185,-13.69358 -4.37985,-27.78739 -14.46008,-37.10356 -5.0401,-4.65807 -11.18745,-8.12082 -17.80041,-9.95634 -6.61296,-1.8355 -13.6813,-2.03474 -20.37346,-0.5131 -10.87007,2.47158 -20.71985,9.76243 -25.53914,19.81437 -2.40965,5.02597 -3.55969,10.66464 -3.20129,16.22686 0.35838,5.56222 2.23675,11.03331 5.46003,15.58053 4.39486,6.20004 11.29977,10.56477 18.7857,11.87482 7.48594,1.31003 15.46275,-0.45039 21.70196,-4.78947"
       id="path3852" />
    <path
       inkscape:connector-curvature="0"
       id="path3854"
       d="m 337.24349,812.63489 c 16.14448,-38.2732 13.03624,-84.11974 -8.12635,-119.86365 -12.23688,-20.66825 -29.78213,-37.6243 -43.91185,-57.04771 -7.06486,-9.71171 -13.3127,-20.12501 -17.33952,-31.43935 -4.02682,-11.31433 -5.76576,-23.59898 -3.75942,-35.43976 1.94365,-11.47081 7.32714,-22.15947 14.2559,-31.50557 6.92877,-9.34609 15.38444,-17.44901 24.08442,-25.17349 17.39997,-15.44897 36.48318,-30.23181 46.98634,-50.99507 7.4933,-14.8132 10.03546,-32.07857 7.1298,-48.42291 -2.90566,-16.34434 -11.24278,-31.67563 -23.38249,-42.99851"
       style="fill:none;stroke:#000000;stroke-width:7;stroke-linecap:butt;stroke-linejoin:miter;stroke-miterlimit:4;stroke-opacity:1;stroke-dasharray:none" />
    <path
       inkscape:connector-curvature="0"
       style="fill:none;stroke:#000000;stroke-width:5.49192476;stroke-linecap:round;stroke-linejoin:miter;stroke-miterlimit:4;stroke-opacity:1"
       d="m 156.91149,451.48298 c -2.43316,-9.08782 -8.30764,-17.20952 -16.17699,-22.3653 -7.86935,-5.15578 -17.66125,-7.29827 -26.96465,-5.89993 -10.91739,1.64093 -20.536935,7.80626 -29.908745,13.64159 -9.371816,5.83534 -19.326799,11.6346 -30.340798,12.39216 -10.062897,0.69213 -20.419909,-3.21859 -27.266013,-10.62617 -3.42304,-3.70378 -5.967685,-8.22124 -7.31654,-13.08086 -1.34884,-4.85961 -1.495254,-10.05387 -0.377058,-14.97169 1.816272,-7.988 7.174043,-15.22624 14.560837,-18.76775 3.693396,-1.77076 7.837043,-2.61588 11.92451,-2.35251 4.087466,0.26336 8.107965,1.6437 11.449546,4.01237 4.556177,3.22962 7.76365,8.30378 8.726357,13.80491 0.962692,5.50113 -0.330975,11.36299 -3.519599,15.94795"
       id="path3856" />
    <path
       id="path3858"
       d="m 154.8799,472.70036 c -2.43316,9.08782 -8.30764,17.20952 -16.17699,22.3653 -7.86935,5.15578 -17.66125,7.29827 -26.96465,5.89993 -10.91739,-1.64093 -20.536932,-7.80626 -29.908742,-13.64159 -9.371816,-5.83534 -19.326799,-11.6346 -30.340798,-12.39216 -10.062897,-0.69213 -20.419909,3.21859 -27.266013,10.62617 -3.42304,3.70378 -5.967685,8.22124 -7.31654,13.08086 -1.34884,4.85961 -1.495254,10.05387 -0.377058,14.97169 1.816272,7.988 7.174043,15.22624 14.560837,18.76775 3.693396,1.77076 7.837043,2.61588 11.92451,2.35251 4.087466,-0.26336 8.107965,-1.6437 11.449546,-4.01237 4.556177,-3.22962 7.76365,-8.30378 8.726357,-13.80491 0.962692,-5.50113 -0.330975,-11.36299 -3.519599,-15.94795"
       style="fill:none;stroke:#000000;stroke-width:5.49192476;stroke-linecap:round;stroke-linejoin:miter;stroke-miterlimit:4;stroke-opacity:1"
       inkscape:connector-curvature="0" />
    <path
       inkscape:connector-curvature="0"
       style="fill:none;stroke:#000000;stroke-width:5.49192476;stroke-linecap:round;stroke-linejoin:miter;stroke-miterlimit:4;stroke-opacity:1"
       d="m 156.91149,726.64876 c -2.43316,9.08782 -8.30764,17.20952 -16.17699,22.3653 -7.86935,5.15578 -17.66125,7.29827 -26.96465,5.89993 -10.91739,-1.64093 -20.536935,-7.80626 -29.908745,-13.64159 -9.371816,-5.83534 -19.326799,-11.6346 -30.340798,-12.39216 -10.062897,-0.69213 -20.419909,3.21859 -27.266013,10.62617 -3.42304,3.70378 -5.967685,8.22124 -7.31654,13.08086 -1.34884,4.85961 -1.495254,10.05387 -0.377058,14.97169 1.816272,7.988 7.174043,15.22624 14.560837,18.76775 3.693396,1.77076 7.837043,2.61588 11.92451,2.35251 4.087466,-0.26336 8.107965,-1.6437 11.449546,-4.01237 4.556177,-3.22962 7.76365,-8.30378 8.726357,-13.80491 0.962692,-5.50113 -0.330975,-11.36299 -3.519599,-15.94795"
       id="path3860" />
    <path
       id="path3862"
       d="m 156.91149,705.43138 c -2.43316,-9.08782 -8.30764,-17.20952 -16.17699,-22.3653 -7.86935,-5.15578 -17.66125,-7.29827 -26.96465,-5.89993 -10.91739,1.64093 -20.536935,7.80626 -29.908745,13.64159 -9.371816,5.83534 -19.326799,11.6346 -30.340798,12.39216 -10.062897,0.69213 -20.419909,-3.21859 -27.266013,-10.62617 -3.42304,-3.70378 -5.967685,-8.22124 -7.31654,-13.08086 -1.34884,-4.85961 -1.495254,-10.05387 -0.377058,-14.97169 1.816272,-7.988 7.174043,-15.22624 14.560837,-18.76775 3.693396,-1.77076 7.837043,-2.61588 11.92451,-2.35251 4.087466,0.26336 8.107965,1.6437 11.449546,4.01237 4.556177,3.22962 7.76365,8.30378 8.726357,13.80491 0.962692,5.50113 -0.330975,11.36299 -3.519599,15.94795"
       style="fill:none;stroke:#000000;stroke-width:5.49192476;stroke-linecap:round;stroke-linejoin:miter;stroke-miterlimit:4;stroke-opacity:1"
       inkscape:connector-curvature="0" />
    <path
       id="path3868"
       d="m 549.81207,551.5916 c -12.3667,-3.31104 -23.4187,-11.30503 -30.43467,-22.01363 -7.01599,-10.7086 -9.93149,-24.03341 -8.02862,-36.69347 2.23297,-14.85637 10.62274,-27.94664 18.56346,-40.69979 7.94072,-12.75316 15.83235,-26.29989 16.86323,-41.28773 0.94185,-13.69358 -4.37985,-27.78739 -14.46008,-37.10356 -5.0401,-4.65807 -11.18745,-8.12082 -17.80041,-9.95634 -6.61296,-1.8355 -13.6813,-2.03474 -20.37346,-0.5131 -10.87007,2.47158 -20.71985,9.76243 -25.53914,19.81437 -2.40965,5.02597 -3.55969,10.66464 -3.20129,16.22686 0.35838,5.56222 2.23675,11.03331 5.46003,15.58053 4.39486,6.20004 11.29977,10.56477 18.7857,11.87482 7.48594,1.31003 15.46275,-0.45039 21.70196,-4.78947"
       style="fill:none;stroke:#000000;stroke-width:7.47340488;stroke-linecap:round;stroke-linejoin:miter;stroke-miterlimit:4;stroke-opacity:1"
       inkscape:connector-curvature="0" />
    <path
       style="fill:none;stroke:#000000;stroke-width:7;stroke-linecap:butt;stroke-linejoin:miter;stroke-opacity:1;stroke-miterlimit:4;stroke-dasharray:none"
       d="m 301.75483,576.51803 69.63573,-69.63573 71.95692,71.95692 -64.99335,69.63573 -76.5993,-71.95692"
       id="path3904"
       inkscape:path-effect="#path-effect3906"
       inkscape:original-d="m 301.75483,576.51803 69.63573,-69.63573 71.95692,71.95692 -64.99335,69.63573 z"
       inkscape:connector-curvature="0" />
    <path
       style="fill:none;stroke:#000000;stroke-width:7;stroke-linecap:round;stroke-linejoin:round;stroke-miterlimit:4;stroke-opacity:1;stroke-dashoffset:0"
       d="m 131.30639,460.66277 c 0,7.70509 -6.61364,13.9513 -14.77197,13.9513 -8.15833,0 -14.77197,-6.24621 -14.77197,-13.9513 0,-7.70509 6.61364,-13.95131 14.77197,-13.95131 8.15833,0 14.77197,6.24622 14.77197,13.95131 z"
       id="path3908"
       inkscape:connector-curvature="0" />
    <path
       id="path3911"
       d="m 132.94772,716.71023 c 0,7.70509 -6.61364,13.9513 -14.77197,13.9513 -8.15833,0 -14.77197,-6.24621 -14.77197,-13.9513 0,-7.70509 6.61364,-13.95131 14.77197,-13.95131 8.15833,0 14.77197,6.24622 14.77197,13.95131 z"
       style="fill:none;stroke:#000000;stroke-width:7;stroke-linecap:round;stroke-linejoin:round;stroke-miterlimit:4;stroke-opacity:1;stroke-dashoffset:0"
       inkscape:connector-curvature="0" />
    <path
       inkscape:connector-curvature="0"
       id="path3913"
       d="m 642.65714,577.45522 c 0,11.4424 -9.82155,20.7183 -21.93703,20.7183 -12.11549,0 -21.93704,-9.2759 -21.93704,-20.7183 0,-11.4424 9.82155,-20.71832 21.93704,-20.71832 12.11548,0 21.93703,9.27592 21.93703,20.71832 z"
       style="fill:none;stroke:#000000;stroke-width:7;stroke-linecap:round;stroke-linejoin:round;stroke-miterlimit:4;stroke-opacity:1;stroke-dasharray:none;stroke-dashoffset:0" />
  </g>
</svg>
