<?xml version="1.0" encoding="UTF-8" standalone="no"?>
<!-- Created with Inkscape (http://www.inkscape.org/) -->

<svg
   xmlns:dc="http://purl.org/dc/elements/1.1/"
   xmlns:cc="http://creativecommons.org/ns#"
   xmlns:rdf="http://www.w3.org/1999/02/22-rdf-syntax-ns#"
   xmlns:svg="http://www.w3.org/2000/svg"
   xmlns="http://www.w3.org/2000/svg"
   xmlns:sodipodi="http://sodipodi.sourceforge.net/DTD/sodipodi-0.dtd"
   xmlns:inkscape="http://www.inkscape.org/namespaces/inkscape"
   width="210mm"
   height="297mm"
   viewBox="0 0 744.09448819 1052.3622047"
   id="svg2"
   version="1.1"
   inkscape:version="0.91 r13725"
   sodipodi:docname="FacialPieces.svg">
  <defs
     id="defs4" />
  <sodipodi:namedview
     id="base"
     pagecolor="#ffffff"
     bordercolor="#666666"
     borderopacity="1.0"
     inkscape:pageopacity="0.0"
     inkscape:pageshadow="2"
     inkscape:zoom="0.51123083"
     inkscape:cx="372.04724"
     inkscape:cy="526.1811"
     inkscape:document-units="px"
     inkscape:current-layer="layer1"
     showgrid="false"
     inkscape:window-width="1366"
     inkscape:window-height="705"
     inkscape:window-x="-8"
     inkscape:window-y="-8"
     inkscape:window-maximized="1" />
  <metadata
     id="metadata7">
    <rdf:RDF>
      <cc:Work
         rdf:about="">
        <dc:format>image/svg+xml</dc:format>
        <dc:type
           rdf:resource="http://purl.org/dc/dcmitype/StillImage" />
        <dc:title></dc:title>
      </cc:Work>
    </rdf:RDF>
  </metadata>
  <g
     inkscape:label="Layer 1"
     inkscape:groupmode="layer"
     id="layer1">
    <path
       style="fill:#000000;fill-rule:evenodd;stroke:none;stroke-width:1px;stroke-linecap:butt;stroke-linejoin:miter;stroke-opacity:1"
       d="m 403.35109,219.77225 c 5.57705,-6.49633 50.17634,-43.74347 123.51099,-42.45689 73.33465,1.28657 129.94385,36.02404 147.95587,51.46291 18.01202,15.43887 1.28658,15.43887 -27.01803,1.28657 -28.3046,-14.1523 -73.33464,-29.59118 -122.22442,-29.59118 -48.88977,0 -90.06009,18.01202 -108.07211,28.30461 -18.01202,10.29258 -19.72936,-2.50968 -14.1523,-9.00602 z"
       id="path3340"
       inkscape:connector-curvature="0"
       sodipodi:nodetypes="zsssssz" />
    <ellipse
       style="opacity:1;fill:#000000;fill-opacity:1;fill-rule:evenodd;stroke:none;stroke-width:7;stroke-linecap:round;stroke-linejoin:round;stroke-miterlimit:4;stroke-dasharray:none;stroke-dashoffset:0;stroke-opacity:1"
       id="path3342"
       cx="525.5755"
       cy="277.02475"
       rx="41.17033"
       ry="41.813618" />
    <path
       sodipodi:nodetypes="zsssssz"
       inkscape:connector-curvature="0"
       id="path4144"
       d="m 351.3956,218.48568 c -5.57705,-6.49634 -50.17634,-43.74348 -123.51099,-42.4569 -73.33465,1.28657 -129.943847,36.02404 -147.955866,51.46291 -18.012019,15.43887 -1.286577,15.43887 27.018026,1.28657 28.3046,-14.1523 73.33465,-29.59117 122.22442,-29.59117 48.88977,0 90.06009,18.01202 108.07211,28.3046 18.01202,10.29258 19.72936,-2.50968 14.1523,-9.00601 z"
       style="fill:#000000;fill-rule:evenodd;stroke:none;stroke-width:1px;stroke-linecap:butt;stroke-linejoin:miter;stroke-opacity:1" />
    <ellipse
       ry="41.813618"
       rx="41.17033"
       cy="275.73819"
       cx="-229.17119"
       id="ellipse4146"
       style="opacity:1;fill:#000000;fill-opacity:1;fill-rule:evenodd;stroke:none;stroke-width:7;stroke-linecap:round;stroke-linejoin:round;stroke-miterlimit:4;stroke-dasharray:none;stroke-dashoffset:0;stroke-opacity:1"
       transform="scale(-1,1)" />
    <path
       style="fill:#000000;fill-rule:evenodd;stroke:none;stroke-width:1px;stroke-linecap:butt;stroke-linejoin:miter;stroke-opacity:1"
       d="m 365.08805,584.04805 c -5.57705,6.49634 -50.17634,43.74348 -123.51099,42.4569 -73.33465,-1.28657 -129.94385,-36.02404 -147.955871,-51.46291 -18.012019,-15.43887 -1.286577,-15.43887 27.018031,-1.28657 28.3046,14.1523 73.33465,29.59117 122.22442,29.59117 48.88977,0 90.06009,-18.01202 108.07211,-28.3046 18.01202,-10.29258 19.72936,2.50968 14.1523,9.00601 z"
       id="path4148"
       inkscape:connector-curvature="0"
       sodipodi:nodetypes="zsssssz" />
    <path
       sodipodi:nodetypes="zsssssz"
       inkscape:connector-curvature="0"
       id="path4150"
       d="m 405.84977,586.00411 c 5.57705,6.49634 50.17634,43.74348 123.51099,42.4569 73.33465,-1.28657 129.94385,-36.02404 147.95587,-51.46291 18.01202,-15.43887 1.28658,-15.43887 -27.01803,-1.28657 -28.3046,14.1523 -73.33465,29.59117 -122.22442,29.59117 -48.88977,0 -90.06009,-18.01202 -108.07211,-28.3046 -18.01202,-10.29258 -19.72936,2.50968 -14.1523,9.00601 z"
       style="fill:#000000;fill-rule:evenodd;stroke:none;stroke-width:1px;stroke-linecap:butt;stroke-linejoin:miter;stroke-opacity:1" />
  </g>
</svg>
