<?xml version="1.0" encoding="UTF-8" standalone="no"?>
<!-- Created with Inkscape (http://www.inkscape.org/) -->

<svg
   xmlns:dc="http://purl.org/dc/elements/1.1/"
   xmlns:cc="http://creativecommons.org/ns#"
   xmlns:rdf="http://www.w3.org/1999/02/22-rdf-syntax-ns#"
   xmlns:svg="http://www.w3.org/2000/svg"
   xmlns="http://www.w3.org/2000/svg"
   xmlns:sodipodi="http://sodipodi.sourceforge.net/DTD/sodipodi-0.dtd"
   xmlns:inkscape="http://www.inkscape.org/namespaces/inkscape"
   width="744.09448819"
   height="1052.3622047"
   id="svg2"
   version="1.1"
   inkscape:version="0.48.4 r9939"
   sodipodi:docname="Hummingbird3.svg">
  <defs
     id="defs4">
    <inkscape:path-effect
       fuse_tolerance="0"
       vertical_pattern="false"
       prop_units="false"
       tang_offset="0"
       normal_offset="0"
       spacing="0"
       scale_y_rel="false"
       prop_scale="2"
       copytype="single_stretched"
       pattern="m -43.679126,208.2377 0,10 10,-5 z"
       is_visible="true"
       id="path-effect3852"
       effect="skeletal" />
    <inkscape:path-effect
       effect="skeletal"
       id="path-effect3044"
       is_visible="true"
       pattern="M 0,0 0,10 10,5 z"
       copytype="single_stretched"
       prop_scale="2"
       scale_y_rel="false"
       spacing="0"
       normal_offset="0"
       tang_offset="0"
       prop_units="false"
       vertical_pattern="false"
       fuse_tolerance="0" />
    <linearGradient
       id="linearGradient3009">
      <stop
         style="stop-color:#0310f5;stop-opacity:1;"
         offset="0"
         id="stop3011" />
      <stop
         style="stop-color:#88ffa8;stop-opacity:1;"
         offset="1"
         id="stop3013" />
    </linearGradient>
    <linearGradient
       id="linearGradient3001">
      <stop
         style="stop-color:#15ff21;stop-opacity:1;"
         offset="0"
         id="stop3003" />
      <stop
         style="stop-color:#eb72db;stop-opacity:1;"
         offset="1"
         id="stop3005" />
    </linearGradient>
    <inkscape:path-effect
       effect="skeletal"
       id="path-effect3002"
       is_visible="true"
       pattern="M 0,0 0,10 10,5 z"
       copytype="single_stretched"
       prop_scale="1"
       scale_y_rel="false"
       spacing="0"
       normal_offset="0"
       tang_offset="0"
       prop_units="false"
       vertical_pattern="false"
       fuse_tolerance="0" />
    <inkscape:path-effect
       effect="spiro"
       id="path-effect3000"
       is_visible="true" />
  </defs>
  <sodipodi:namedview
     id="base"
     pagecolor="#ffffff"
     bordercolor="#666666"
     borderopacity="1.0"
     inkscape:pageopacity="0.0"
     inkscape:pageshadow="2"
     inkscape:zoom="0.98445194"
     inkscape:cx="355.58476"
     inkscape:cy="814.14454"
     inkscape:document-units="px"
     inkscape:current-layer="layer3"
     showgrid="false"
     inkscape:window-width="1366"
     inkscape:window-height="705"
     inkscape:window-x="-8"
     inkscape:window-y="-8"
     inkscape:window-maximized="1" />
  <metadata
     id="metadata7">
    <rdf:RDF>
      <cc:Work
         rdf:about="">
        <dc:format>image/svg+xml</dc:format>
        <dc:type
           rdf:resource="http://purl.org/dc/dcmitype/StillImage" />
        <dc:title />
      </cc:Work>
    </rdf:RDF>
  </metadata>
  <g
     inkscape:groupmode="layer"
     id="layer2"
     inkscape:label="Background">
    <rect
       style="fill:#ececec;fill-opacity:1;fill-rule:evenodd;stroke:none;stroke-width:2;stroke-linecap:round;stroke-linejoin:round;stroke-miterlimit:4;stroke-opacity:1;stroke-dasharray:none;stroke-dashoffset:0"
       id="rect3004"
       width="744.57672"
       height="493.67569"
       x="0"
       y="-7.862116e-006" />
  </g>
  <g
     inkscape:label="Layer 1"
     inkscape:groupmode="layer"
     id="layer1">
    <path
       inkscape:connector-curvature="0"
       id="path4046"
       d="m 741.08163,497.32275 -7.25136,-9.57267 1.81284,-11.48721 -16.31555,-1.91454 -19.94123,19.14535 -12.68989,-7.65814 -16.31555,-17.23081 -39.88249,7.65814 0,-22.97442 -7.25134,-7.65814 23.56689,-38.29069 -5.4385,-3.82907 -36.25681,15.31627 -21.75406,-3.82907 -21.75408,11.48722 -7.25136,-5.74361 -9.06418,5.74361 -19.94124,-36.37617 -16.31556,5.74362 -23.56691,-49.77791 -27.1926,-9.57268 -9.0642,7.65814 5.43851,24.88895 -5.43851,15.31627 -38.06963,-28.718 -7.25136,13.40173 7.25136,28.71802 10.87702,26.80349 -5.43852,3.82908 -27.19257,-63.17966 -29.00543,-30.63254 -38.06962,-28.71806 -36.25681,-7.65812 -12.68987,0 -5.43852,5.74362 7.25133,22.97441 16.31557,26.80349 7.25138,32.54708 -14.50274,1.91454 18.12842,30.63255 14.50268,19.14535 9.06421,13.40174 -16.31555,5.74361 -19.94123,-3.82907 0,-34.46163 -10.87705,-26.80348 -18.12839,-22.97442 -29.00544,-5.74361 -5.43852,17.23082 0,26.80349 -10.87702,-22.97443 -10.87706,0 -12.68987,13.40175 0,30.63257 -1.81283,24.88894 -1.81284,22.97442 -25.37975,-34.46163 -36.2568,-15.31627 38.06963,-36.37617 23.56692,-34.46161 23.5669,-47.86336 -3.62567,-17.23084 0,-28.71802 -9.0642,-1.91454 -12.68989,17.23083 -12.68985,-3.82908 -3.6257,-9.57269 0,-17.23079 0,-15.3163 -12.68988,0 -21.75405,9.57269 -10.87706,13.40173 -29.005415,32.5471 -7.251349,22.97443 -10.877024,5.7436 -12.689884,21.05988 -7.251363,40.20524 16.315543,21.05987 -7.251365,5.74361 -18.128388,-30.63255 -7.251364,13.40173 -1.81283,22.97443 10.877039,21.05988 -9.064209,11.4872 -3.62566,-9.57266 -14.502713,-1.91454 -3.625705,9.57268 3.625705,15.31627 -14.5027298,-9.57268 0,51.69244 z"
       style="fill:#808080;fill-opacity:1;stroke:none;display:inline" />
    <path
       style="fill:#4d4d4d;fill-opacity:1;stroke:none;display:inline"
       d="m -1.0473808,2.0315784 6.0721327,4.857706 7.2865571,-1.2144262 1.214428,10.9298398 -12.1442649,13.358689 4.8577063,8.500992 10.9298386,10.929834 -4.857708,26.717391 14.57312,0 4.857706,4.857697 24.288531,-15.787532 2.428852,3.64327 -9.715412,24.288536 2.428853,14.573115 -7.28656,14.57312 3.64328,4.85771 -3.64328,6.07212 23.074105,13.3587 -3.64328,10.92984 31.575089,15.78754 6.072137,18.2164 -4.857709,6.07213 -15.787545,-3.64327 -9.715412,3.64327 18.216397,25.50296 -8.500985,4.85771 -18.216398,-4.85771 -17.001972,-7.28655 -2.428852,3.64328 40.076074,18.21639 19.430822,19.43082 18.21642,25.50295 4.8577,24.28854 0,8.50098 -3.64329,3.64328 -14.57312,-4.85769 -17.001972,-10.92984 -20.645252,-4.85772 -1.214425,9.71542 -19.430825,-12.14428 -12.144265,-9.71539 -8.500986,-6.07214 -3.64328,10.92984 2.428854,13.35869 21.859677,0 17.001972,7.28656 14.573118,12.14426 3.643279,19.43083 -10.929839,3.64328 -17.00197,0 14.573118,7.28655 0,7.28657 -8.500986,8.50099 -19.430824,0 -15.787545,1.21441 -14.57312,1.21443 21.859678,17.00197 9.715412,24.28854 23.074105,-25.50296 21.859677,-15.78755 30.360659,-15.78753 10.92985,2.42884 18.2164,0 1.21443,6.07214 -10.92985,8.50099 2.42886,8.50097 6.07214,2.42887 10.92983,0 9.71542,0 0,8.50098 -6.07214,14.57311 -8.50098,7.28657 -20.64526,19.43082 -14.57312,4.8577 -3.64328,7.28655 -13.35869,8.50099 -25.50296,4.85771 -13.358692,-10.92983 -3.64328,4.85771 19.430825,12.14426 -8.500987,4.85771 -14.573118,1.21442 -13.358691,-7.28656 -7.28656,6.07214 6.072132,2.42884 1.214428,9.71541 -6.072133,2.42887 -9.715412,-2.42887 6.072133,9.71542 -32.7895158,0 z"
       id="path2999"
       inkscape:connector-curvature="0" />
    <path
       style="fill:#1a1a1a;fill-opacity:1;stroke:none"
       d="M 386.29005,180.30867 C 381.21229,166.17075 373.97243,152.90459 367.64142,139.2817 361.84079,126.80005 357.59597,113.80496 347.92045,104.01604 336.48767,92.449246 317.00813,87.999083 302.06461,81.581119 288.96185,75.953732 265.01744,64.630632 265.01744,64.630632 c 0,0 11.24803,-0.298784 15.08858,1.102118 8.76356,3.196642 17.69605,4.986947 28.07635,8.938087 15.86771,6.03984 47.2809,18.865165 47.2809,18.865165 l 31.70265,-3.729729 25.17564,8.391887 13.05403,16.78376 c 0,0 5.92776,13.02813 10.25676,18.64863 5.50003,7.14093 12.35269,16.87692 21.55903,19.96728 4.8013,1.61169 14.41956,-1.5352 14.41956,-1.5352 l 45.14291,3.01385 40.09455,1.86485 61.87011,-8.11878 -30.33714,7.18635 c 0,0 29.28563,-1.60592 41.75257,-2.7973 14.1463,-1.35185 39.07577,-3.91946 39.07577,-3.91946 l -61.84331,15.27537 -37.9893,10.20314 -26.48458,10.08706 c 0,0 -10.68598,2.96433 -15.54443,5.5449 -1.93137,1.02585 -8.39971,2.92685 -10.36519,3.88569 -3.4712,1.69339 -11.15482,3.1338 -11.15482,3.1338 0,0 -5.00347,3.97094 -7.72285,5.20836 -4.47302,2.03539 -13.98647,4.66216 -13.98647,4.66216 0,0 3.37216,10.68731 4.6056,16.45409 1.30663,6.10903 1.55366,12.40916 1.86487,18.64863 0.2632,5.27721 0.75314,10.6215 0,15.85132 -0.78505,5.45133 -2.25782,10.85839 -3.67317,16.181 -1.72421,6.48414 -3.07147,13.06287 -4.66216,19.58104 -2.12675,8.71479 -4.9403,17.279 -6.52702,26.10809 -0.99567,5.54025 -1.41329,11.17289 -1.86485,16.78376 -0.99861,12.40782 -1.86487,37.29724 -1.86487,37.29724 l -3.72973,-3.72972 -1.86486,3.72972 -2.7973,-2.79729 0,12.1216 -4.66214,-11.18917 -2.7973,11.18917 -6.52702,-13.98646 -3.72973,10.25673 0,-10.25673 -4.66215,10.25673 -6.52702,-6.527 -0.93244,-22.37835 -8.39188,14.91889 -7.45944,6.52702 -1.86486,-8.39189 1.86486,-14.9189 -6.52703,8.3919 -8.39187,2.79728 0.93243,-15.85133 8.39188,-25.17563 21.99212,-42.33593 -4.27593,-4.28564 -4.66216,-4.66215 c 0,0 -13.96916,-19.42387 -20.45692,-30.11091 -3.82361,-6.29848 -8.02632,-12.55849 -10.25675,-19.58105 -1.42376,-4.48275 -1.92968,-10.03406 -2.85385,-14.64579 -1.64435,-8.20569 -2.7092,-15.37799 -5.53802,-23.25422 z"
       id="path2998"
       inkscape:connector-curvature="0"
       sodipodi:nodetypes="sssscssccccsscccccsccccsscscsssssssccccccccccccccccccccccccssss" />
    <g
       id="g3977"
       transform="matrix(0.77677693,0.62977583,-0.62977583,0.77677693,91.702028,-188.34439)"
       inkscape:transform-center-x="-76.725687"
       inkscape:transform-center-y="-75.324287"
       style="fill:#1a1a1a;stroke:none">
      <path
         id="path3939"
         d="m 276.28125,302.71875 c -10.866,11.13079 -19.67887,21.88753 -26.75,32.25 3.48849,2.1517 6.98718,4.28595 10.53125,6.375 -4.22627,-1.05243 -8.46355,-2.09965 -12.6875,-3.15625 -4.16189,6.37996 -7.66085,12.60136 -10.5625,18.6875 6.54274,4.86186 13.33717,9.39762 20.1875,13.875 -7.81128,-2.15688 -15.68996,-4.18439 -23.375,-6.59375 -2.57326,6.30941 -4.49232,12.45496 -5.875,18.4375 6.82881,5.12668 13.94771,9.90266 21.125,14.59375 -7.57683,-2.09215 -15.22217,-4.09111 -22.6875,-6.40625 -4.94581,32.54385 6.21826,60.03122 19.625,82.59375 17.78399,-15.53117 43.99142,-32.10122 48.03125,-74.84375 -5.68155,0.65671 -11.39544,1.21003 -17.09375,1.8125 5.88779,-2.59288 11.73956,-5.24229 17.5,-8.0625 0.2724,-6.57312 0.0343,-13.73063 -0.78125,-21.53125 -6.77821,0.85347 -13.61836,1.49778 -20.4375,2.21875 6.60009,-2.90657 13.16563,-5.88021 19.59375,-9.09375 -0.95313,-6.70825 -2.32174,-13.87203 -4.15625,-21.53125 -4.54678,0.37382 -9.10622,0.6978 -13.65625,1.0625 4.24443,-1.63918 8.46934,-3.30063 12.65625,-5.03125 -2.77127,-10.87553 -6.43868,-22.71447 -11.1875,-35.65625 z"
         style="fill:#1a1a1a;stroke:none"
         inkscape:connector-curvature="0" />
      <path
         inkscape:transform-center-y="-79.09128"
         inkscape:transform-center-x="33.617937"
         inkscape:connector-curvature="0"
         style="fill:#1a1a1a;stroke:none"
         d="m 171.52579,318.65265 c 13.44349,7.82542 24.80851,15.83856 34.38975,23.9368 -2.78733,3.00502 -5.58915,5.99596 -8.44676,8.95545 3.79183,-2.14266 7.59566,-4.28323 11.38415,-6.42929 5.71427,5.0371 10.74734,10.09839 15.16868,15.18882 -5.00707,6.4323 -10.34376,12.61753 -15.74991,18.76143 6.95179,-4.16422 14.00309,-8.22177 20.76581,-12.5956 4.16448,5.39328 7.65476,10.80332 10.58461,16.19948 -5.21205,6.76388 -10.79729,13.26725 -16.46147,19.7044 6.74315,-4.03924 13.57719,-8.00697 20.15334,-12.23134 13.45561,30.0418 10.0361,59.51211 3.14039,84.83517 -21.28524,-10.21891 -50.96549,-19.18988 -66.27111,-59.302 5.65063,-0.88413 11.30481,-1.87654 16.95711,-2.81741 -6.36634,-0.92668 -12.71307,-1.91746 -19.01739,-3.09722 -2.01756,-6.26175 -3.6992,-13.22298 -4.99605,-20.95816 6.76,-0.98733 13.52386,-2.19276 20.28793,-3.3187 -7.13654,-1.0388 -14.25769,-2.15145 -21.31047,-3.53199 -0.87261,-6.7192 -1.46645,-13.98832 -1.74359,-21.8593 4.48153,-0.85376 8.96194,-1.75894 13.44416,-2.62235 -4.52801,-0.44639 -9.04315,-0.91945 -13.54014,-1.46932 -0.23315,-11.22064 0.14006,-23.60898 1.26096,-37.34887 z"
         id="path3962" />
      <path
         inkscape:transform-center-y="-71.43881"
         inkscape:transform-center-x="-49.515466"
         inkscape:connector-curvature="0"
         style="fill:#1a1a1a;stroke:none"
         d="m 345.04142,331.30168 c -14.52539,5.56575 -27.0294,11.65047 -37.78643,18.10554 2.26876,3.41352 4.55408,6.81545 6.89953,10.19531 -3.39868,-2.7236 -6.80954,-5.44706 -10.20437,-8.17347 -6.44879,4.05442 -12.22911,8.24208 -17.41029,12.5567 3.90951,7.15268 8.18403,14.11442 12.53374,21.04652 -6.19312,-5.22623 -12.50158,-10.36314 -18.47443,-15.7659 -4.97628,4.65478 -9.2898,9.43433 -13.04793,14.29016 4.0586,7.51287 8.52737,14.82853 13.08469,22.09149 -6.00724,-5.06937 -12.11568,-10.08275 -17.92837,-15.30804 -18.10389,27.49205 -19.45979,57.12908 -16.71878,83.23071 22.64967,-6.66931 53.38514,-10.75918 74.93169,-47.89394 -5.4354,-1.77979 -10.85694,-3.66702 -16.28488,-5.5031 6.43254,0.10737 12.85601,0.14833 19.26795,-0.004 2.99663,-5.85664 5.77398,-12.45763 8.2958,-19.88428 -6.51383,-2.05975 -12.99644,-4.33539 -19.49203,-6.53262 7.21075,0.12036 14.41816,0.16534 21.60109,-0.0651 1.93996,-6.49196 3.69306,-13.57147 5.23018,-21.29587 -4.28634,-1.56214 -8.56333,-3.17484 -12.8488,-4.74662 4.54094,0.28631 9.07346,0.54423 13.6004,0.72343 2.03145,-11.03768 3.65185,-23.32526 4.75124,-37.06689 z"
         id="path3964" />
    </g>
    <g
       id="g3972"
       inkscape:transform-center-x="-77.233168"
       inkscape:transform-center-y="-74.509924"
       transform="matrix(0.75072106,0.66061933,-0.66061933,0.75072106,201.30659,-113.05669)"
       style="fill:#1a1a1a;stroke:none">
      <path
         inkscape:connector-curvature="0"
         style="fill:#1a1a1a;stroke:none"
         d="m 360.59212,353.50843 c -10.866,11.13079 -19.67887,21.88753 -26.75,32.25 3.48849,2.1517 6.98718,4.28595 10.53125,6.375 -4.22627,-1.05243 -8.46355,-2.09965 -12.6875,-3.15625 -4.16189,6.37996 -7.66085,12.60136 -10.5625,18.6875 6.54274,4.86186 13.33717,9.39762 20.1875,13.875 -7.81128,-2.15688 -15.68996,-4.18439 -23.375,-6.59375 -2.57326,6.30941 -4.49232,12.45496 -5.875,18.4375 6.82881,5.12668 13.94771,9.90266 21.125,14.59375 -7.57683,-2.09215 -15.22217,-4.09111 -22.6875,-6.40625 -4.94581,32.54385 6.21826,60.03122 19.625,82.59375 17.78399,-15.53117 43.99142,-32.10122 48.03125,-74.84375 -5.68155,0.65671 -11.39544,1.21003 -17.09375,1.8125 5.88779,-2.59288 11.73956,-5.24229 17.5,-8.0625 0.2724,-6.57312 0.0343,-13.73063 -0.78125,-21.53125 -6.77821,0.85347 -13.61836,1.49778 -20.4375,2.21875 6.60009,-2.90657 13.16563,-5.88021 19.59375,-9.09375 -0.95313,-6.70825 -2.32174,-13.87203 -4.15625,-21.53125 -4.54678,0.37382 -9.10622,0.6978 -13.65625,1.0625 4.24443,-1.63918 8.46934,-3.30063 12.65625,-5.03125 -2.77127,-10.87553 -6.43868,-22.71447 -11.1875,-35.65625 z"
         id="path3966" />
      <path
         id="path3968"
         d="m 255.83666,369.44233 c 13.44349,7.82542 24.80851,15.83856 34.38975,23.9368 -2.78733,3.00502 -5.58915,5.99596 -8.44676,8.95545 3.79183,-2.14266 7.59566,-4.28323 11.38415,-6.42929 5.71427,5.0371 10.74734,10.09839 15.16868,15.18882 -5.00707,6.4323 -10.34376,12.61753 -15.74991,18.76143 6.95179,-4.16422 14.00309,-8.22177 20.76581,-12.5956 4.16448,5.39328 7.65476,10.80332 10.58461,16.19948 -5.21205,6.76388 -10.79729,13.26725 -16.46147,19.7044 6.74315,-4.03924 13.57719,-8.00697 20.15334,-12.23134 13.45561,30.0418 10.0361,59.51211 3.14039,84.83517 -21.28524,-10.21891 -50.96549,-19.18988 -66.27111,-59.302 5.65063,-0.88413 11.30481,-1.87654 16.95711,-2.81741 -6.36634,-0.92668 -12.71307,-1.91746 -19.01739,-3.09722 -2.01756,-6.26175 -3.6992,-13.22298 -4.99605,-20.95816 6.76,-0.98733 13.52386,-2.19276 20.28793,-3.3187 -7.13654,-1.0388 -14.25769,-2.15145 -21.31047,-3.53199 -0.87261,-6.7192 -1.46645,-13.98832 -1.74359,-21.8593 4.48153,-0.85376 8.96194,-1.75894 13.44416,-2.62235 -4.52801,-0.44639 -9.04315,-0.91945 -13.54014,-1.46932 -0.23315,-11.22064 0.14006,-23.60898 1.26096,-37.34887 z"
         style="fill:#1a1a1a;stroke:none"
         inkscape:connector-curvature="0"
         inkscape:transform-center-x="33.617937"
         inkscape:transform-center-y="-79.09128" />
      <path
         id="path3970"
         d="m 429.35229,382.09136 c -14.52539,5.56575 -27.0294,11.65047 -37.78643,18.10554 2.26876,3.41352 4.55408,6.81545 6.89953,10.19531 -3.39868,-2.7236 -6.80954,-5.44706 -10.20437,-8.17347 -6.44879,4.05442 -12.22911,8.24208 -17.41029,12.5567 3.90951,7.15268 8.18403,14.11442 12.53374,21.04652 -6.19312,-5.22623 -12.50158,-10.36314 -18.47443,-15.7659 -4.97628,4.65478 -9.2898,9.43433 -13.04793,14.29016 4.0586,7.51287 8.52737,14.82853 13.08469,22.09149 -6.00724,-5.06937 -12.11568,-10.08275 -17.92837,-15.30804 -18.10389,27.49205 -19.45979,57.12908 -16.71878,83.23071 22.64967,-6.66931 53.38514,-10.75918 74.93169,-47.89394 -5.4354,-1.77979 -10.85694,-3.66702 -16.28488,-5.5031 6.43254,0.10737 12.85601,0.14833 19.26795,-0.004 2.99663,-5.85664 5.77398,-12.45763 8.2958,-19.88428 -6.51383,-2.05975 -12.99644,-4.33539 -19.49203,-6.53262 7.21075,0.12036 14.41816,0.16534 21.60109,-0.0651 1.93996,-6.49196 3.69306,-13.57147 5.23018,-21.29587 -4.28634,-1.56214 -8.56333,-3.17484 -12.8488,-4.74662 4.54094,0.28631 9.07346,0.54423 13.6004,0.72343 2.03145,-11.03768 3.65185,-23.32526 4.75124,-37.06689 z"
         style="fill:#1a1a1a;stroke:none"
         inkscape:connector-curvature="0"
         inkscape:transform-center-x="-49.515466"
         inkscape:transform-center-y="-71.43881" />
    </g>
    <g
       style="fill:#1a1a1a;stroke:none"
       transform="matrix(0.91508296,0.86110772,-0.80525447,0.97855402,82.390325,-323.68884)"
       inkscape:transform-center-y="-97.122608"
       inkscape:transform-center-x="-94.142504"
       id="g4049">
      <path
         id="path4051"
         d="m 360.59212,353.50843 c -10.866,11.13079 -19.67887,21.88753 -26.75,32.25 3.48849,2.1517 6.98718,4.28595 10.53125,6.375 -4.22627,-1.05243 -8.46355,-2.09965 -12.6875,-3.15625 -4.16189,6.37996 -7.66085,12.60136 -10.5625,18.6875 6.54274,4.86186 13.33717,9.39762 20.1875,13.875 -7.81128,-2.15688 -15.68996,-4.18439 -23.375,-6.59375 -2.57326,6.30941 -4.49232,12.45496 -5.875,18.4375 6.82881,5.12668 13.94771,9.90266 21.125,14.59375 -7.57683,-2.09215 -15.22217,-4.09111 -22.6875,-6.40625 -4.94581,32.54385 6.21826,60.03122 19.625,82.59375 17.78399,-15.53117 43.99142,-32.10122 48.03125,-74.84375 -5.68155,0.65671 -11.39544,1.21003 -17.09375,1.8125 5.88779,-2.59288 11.73956,-5.24229 17.5,-8.0625 0.2724,-6.57312 0.0343,-13.73063 -0.78125,-21.53125 -6.77821,0.85347 -13.61836,1.49778 -20.4375,2.21875 6.60009,-2.90657 13.16563,-5.88021 19.59375,-9.09375 -0.95313,-6.70825 -2.32174,-13.87203 -4.15625,-21.53125 -4.54678,0.37382 -9.10622,0.6978 -13.65625,1.0625 4.24443,-1.63918 8.46934,-3.30063 12.65625,-5.03125 -2.77127,-10.87553 -6.43868,-22.71447 -11.1875,-35.65625 z"
         style="fill:#1a1a1a;stroke:none"
         inkscape:connector-curvature="0" />
      <path
         inkscape:transform-center-y="-79.09128"
         inkscape:transform-center-x="33.617937"
         inkscape:connector-curvature="0"
         style="fill:#1a1a1a;stroke:none"
         d="m 255.83666,369.44233 c 13.44349,7.82542 24.80851,15.83856 34.38975,23.9368 -2.78733,3.00502 -5.58915,5.99596 -8.44676,8.95545 3.79183,-2.14266 7.59566,-4.28323 11.38415,-6.42929 5.71427,5.0371 10.74734,10.09839 15.16868,15.18882 -5.00707,6.4323 -10.34376,12.61753 -15.74991,18.76143 6.95179,-4.16422 14.00309,-8.22177 20.76581,-12.5956 4.16448,5.39328 7.65476,10.80332 10.58461,16.19948 -5.21205,6.76388 -10.79729,13.26725 -16.46147,19.7044 6.74315,-4.03924 13.57719,-8.00697 20.15334,-12.23134 13.45561,30.0418 10.0361,59.51211 3.14039,84.83517 -21.28524,-10.21891 -50.96549,-19.18988 -66.27111,-59.302 5.65063,-0.88413 11.30481,-1.87654 16.95711,-2.81741 -6.36634,-0.92668 -12.71307,-1.91746 -19.01739,-3.09722 -2.01756,-6.26175 -3.6992,-13.22298 -4.99605,-20.95816 6.76,-0.98733 13.52386,-2.19276 20.28793,-3.3187 -7.13654,-1.0388 -14.25769,-2.15145 -21.31047,-3.53199 -0.87261,-6.7192 -1.46645,-13.98832 -1.74359,-21.8593 4.48153,-0.85376 8.96194,-1.75894 13.44416,-2.62235 -4.52801,-0.44639 -9.04315,-0.91945 -13.54014,-1.46932 -0.23315,-11.22064 0.14006,-23.60898 1.26096,-37.34887 z"
         id="path4053" />
      <path
         inkscape:transform-center-y="-71.43881"
         inkscape:transform-center-x="-49.515466"
         inkscape:connector-curvature="0"
         style="fill:#1a1a1a;stroke:none"
         d="m 429.35229,382.09136 c -14.52539,5.56575 -27.0294,11.65047 -37.78643,18.10554 2.26876,3.41352 4.55408,6.81545 6.89953,10.19531 -3.39868,-2.7236 -6.80954,-5.44706 -10.20437,-8.17347 -6.44879,4.05442 -12.22911,8.24208 -17.41029,12.5567 3.90951,7.15268 8.18403,14.11442 12.53374,21.04652 -6.19312,-5.22623 -12.50158,-10.36314 -18.47443,-15.7659 -4.97628,4.65478 -9.2898,9.43433 -13.04793,14.29016 4.0586,7.51287 8.52737,14.82853 13.08469,22.09149 -6.00724,-5.06937 -12.11568,-10.08275 -17.92837,-15.30804 -18.10389,27.49205 -19.45979,57.12908 -16.71878,83.23071 22.64967,-6.66931 53.38514,-10.75918 74.93169,-47.89394 -5.4354,-1.77979 -10.85694,-3.66702 -16.28488,-5.5031 6.43254,0.10737 12.85601,0.14833 19.26795,-0.004 2.99663,-5.85664 5.77398,-12.45763 8.2958,-19.88428 -6.51383,-2.05975 -12.99644,-4.33539 -19.49203,-6.53262 7.21075,0.12036 14.41816,0.16534 21.60109,-0.0651 1.93996,-6.49196 3.69306,-13.57147 5.23018,-21.29587 -4.28634,-1.56214 -8.56333,-3.17484 -12.8488,-4.74662 4.54094,0.28631 9.07346,0.54423 13.6004,0.72343 2.03145,-11.03768 3.65185,-23.32526 4.75124,-37.06689 z"
         id="path4055" />
    </g>
  </g>
  <g
     inkscape:groupmode="layer"
     id="layer3"
     inkscape:label="Layer"
     style="display:inline">
    <path
       style="fill:#1a1a1a;stroke:none"
       d="M 168.96875 122.90625 L 164.90625 126.28125 L 164.90625 130.34375 L 169.625 131.6875 L 169.625 162.375 L 158.21875 132.5625 L 159.40625 129.96875 L 158.5 127.40625 L 152.25 126.09375 L 149.625 130.65625 L 151 134.46875 L 155.90625 134.125 L 166.375 162.9375 L 145.46875 138.84375 L 145.71875 135.96875 L 143.96875 133.90625 L 137.65625 134.78125 L 136.71875 140 L 139.34375 143.09375 L 143.8125 141.09375 L 163.53125 164.59375 L 135.625 149.09375 L 134.875 146.3125 L 132.53125 144.96875 L 126.90625 147.96875 L 127.8125 153.15625 L 131.3125 155.1875 L 134.84375 151.78125 L 161.4375 167.125 L 129.875 162.09375 L 128.25 159.75 L 125.59375 159.28125 L 121.3125 164.03125 L 123.9375 168.59375 L 127.9375 169.3125 L 130.09375 164.875 L 160.3125 170.21875 L 157.5 170.75 C 154.44266 170.42787 151.341 170.32631 148.25 170.4375 C 141.3631 170.68613 134.4894 171.96986 127.84375 173.9375 C 126.67507 174.28401 125.5308 174.67767 124.375 175.0625 L 123.9375 175.125 L 123.90625 175.21875 C 109.9639 179.92893 96.933377 187.3078 84.8125 195.59375 C 68.748086 206.54354 53.913271 219.18348 39.75 232.34375 C 23.661562 247.28079 8.3496429 263.01132 -6.59375 278.9375 L 8.625 291.9375 C 21.84292 274.85592 35.308032 258.04655 49.59375 242 C 62.198917 227.85473 75.317079 214.28364 89.8125 202.25 C 99.702134 194.06432 110.18565 186.51745 121.625 180.875 L 121.5625 181.03125 L 125.59375 184.40625 L 129.5625 183.71875 L 130.09375 178.8125 L 160.3125 173.5 L 132.90625 189.9375 L 130.15625 189.1875 L 127.8125 190.53125 L 127.59375 196.90625 L 132.53125 198.71875 L 136.0625 196.71875 L 134.84375 191.9375 L 161.5 176.53125 L 141.3125 201.40625 L 138.46875 201.65625 L 136.71875 203.71875 L 138.6875 209.78125 L 143.96875 209.78125 L 146.5625 206.6875 L 143.8125 202.625 L 163.53125 179.125 L 153.125 209.3125 L 150.53125 210.53125 L 149.625 213.0625 L 153.53125 218.0625 L 158.5 216.28125 L 159.875 212.46875 L 155.90625 209.59375 L 166.40625 180.75 L 166.9375 212.6875 L 164.90625 214.71875 L 164.90625 217.40625 L 170.3125 220.78125 L 174.375 217.40625 L 174.375 213.375 L 169.625 212.03125 L 169.625 181.25 L 181.0625 211.15625 L 179.84375 213.75 L 180.78125 216.28125 L 187 217.625 L 189.65625 213.0625 L 188.28125 209.25 L 183.375 209.59375 L 172.84375 180.75 L 193.8125 204.875 L 193.5625 207.71875 L 195.3125 209.78125 L 201.625 208.90625 L 202.5625 203.71875 L 199.9375 200.625 L 195.46875 202.625 L 175.6875 179.09375 L 203.65625 194.625 L 204.40625 197.375 L 206.75 198.71875 L 212.375 195.75 L 211.46875 190.53125 L 207.96875 188.53125 L 204.40625 191.9375 L 177.84375 176.59375 L 209.375 181.59375 L 211.03125 183.9375 L 213.6875 184.40625 L 217.96875 179.6875 L 215.34375 175.125 L 211.34375 174.40625 L 209.1875 178.8125 L 178.9375 173.5 L 210.3125 167.40625 L 212.6875 169.0625 L 215.34375 168.59375 L 217.71875 162.6875 L 213.6875 159.28125 L 209.6875 160 L 209.1875 164.875 L 178.96875 170.21875 L 206.34375 153.78125 L 209.125 154.5 L 211.46875 153.15625 L 211.6875 146.8125 L 206.75 144.96875 L 203.21875 147 L 204.40625 151.78125 L 177.875 167.09375 L 197.96875 142.3125 L 200.8125 142.0625 L 202.5625 140 L 200.59375 133.9375 L 195.3125 133.90625 L 192.6875 137 L 195.46875 141.09375 L 175.71875 164.59375 L 186.15625 134.40625 L 188.75 133.1875 L 189.65625 130.65625 L 185.75 125.625 L 180.78125 127.40625 L 179.40625 131.21875 L 183.375 134.125 L 172.875 163.03125 L 172.34375 131 L 174.375 129 L 174.375 126.28125 L 168.96875 122.90625 z M 169.625 170.84375 L 169.65625 170.84375 L 170 170.90625 L 170.28125 171.09375 L 170.5 171.375 L 170.625 171.71875 L 170.625 172.03125 L 170.5 172.34375 L 170.21875 172.65625 L 169.96875 172.8125 L 169.5625 172.875 L 169.28125 172.8125 L 169 172.625 L 168.75 172.34375 L 168.65625 172.03125 L 168.65625 171.6875 L 168.8125 171.28125 L 169 171.09375 L 169.375 170.90625 L 169.625 170.84375 z M 151.03125 172 L 137.375 174.65625 C 140.9779 173.60527 144.67026 172.77305 148.40625 172.28125 C 149.28019 172.16605 150.1516 172.07994 151.03125 172 z "
       id="path3006" />
    <path
       style="fill:#000000;stroke:none"
       d="m 249.81621,182.96605 -7.5625,4.4375 -0.9375,6.375 7.53125,3.21875 -7.25,48.5 -11.96875,-49.71875 2.625,-3.8125 -0.9375,-4.21875 -10.03125,-3.5 -5.5,6.625 1.40625,6.3125 8.25,0.5625 10.65625,47.9375 -29.15625,-42.84375 1.09375,-4.4375 -2.375,-3.65625 -10.71875,0 -2.78125,7.96875 3.625,5.5 7.9375,-2.15625 27.28125,41.625 -42.8125,-30.8125 -0.59375,-4.53125 -3.5625,-2.65625 -10.0625,3.46875 0.28125,8.40625 5.34375,3.96875 6.6875,-4.59375 40.5625,30.1875 -51.25,-15 -2.1875,-4.0625 -4.3125,-1.34375 -8.21875,6.53125 3.28125,7.8125 6.46875,2 4.625,-6.5 49.09375,15.21875 -53.65625,2.5625 -3.53125,-3.125 -4.53125,0.15625 -5.34375,8.78125 5.875,6.28125 6.8125,-0.21875 2,-7.59375 51.5625,-1.65625 -49.46875,19.8125 -4.4375,-1.78125 -4.1875,1.625 -1.875,10 6.5625,3.34375 c -8.16642,7.83438 -15.73985,16.28739 -22.9375,24.96875 -9.67914,11.66793 -18.76414,23.76743 -27.71875,35.90625 -18.88458,25.58654 -37.112561,51.5405 -57.59375,75.125 -9.849259,11.34095 -20.195154,22.09907 -31.34375,31.6875 -10.492223,9.00953 -21.6348483,17.0158 -33.5624999,23 l 9.5624996,17.5625 c 13.2819843,-7.75092 25.1384073,-17.30202 35.8125003,-27.6875 11.345168,-11.02295 21.496496,-22.95446 30.9375,-35.25 19.628341,-25.56199 36.40343,-52.69981 53.65625,-79.25 8.19294,-12.60058 16.46096,-25.07183 25.3125,-37.125 7.9863,-10.86828 16.40069,-21.41811 25.875,-30.9375 5.23197,-5.25034 10.78461,-10.20741 16.78125,-14.53125 l 29.71875,-11.34375 -39.3125,34.6875 -4.78125,-0.21875 -3.375,2.875 1.84375,10 8.75,1.21875 5.0625,-4.3125 -3.625,-7.0625 38.375,-32.75 -24.46875,45.40625 -4.59375,1.3125 -2.125,3.8125 5.34375,8.8125 8.65625,-1.71875 3.21875,-5.6875 -5.9375,-5.46875 24.25,-43.21875 -6.625,50.59375 -3.84375,2.75 -0.65625,4.25 8.1875,6.5625 7.53125,-4.4375 0.96875,-6.40625 -7.5625,-3.1875 7.25,-48.46875 11.96875,49.65625 -2.625,3.84375 0.9375,4.21875 10.0625,3.46875 5.46875,-6.59375 -1.40625,-6.3125 -8.21875,-0.5625 -10.6875,-47.96875 29.15625,42.84375 -1.09375,4.46875 2.40625,3.65625 10.6875,0 2.78125,-8 -3.59375,-5.46875 -7.9375,2.15625 -27.25,-41.5625 42.78125,30.75 0.5625,4.53125 3.59375,2.65625 10.0625,-3.46875 -0.28125,-8.40625 -5.34375,-3.96875 -6.6875,4.59375 -40.59375,-30.1875 51.28125,14.96875 2.1875,4.09375 4.3125,1.3125 8.1875,-6.5 -3.28125,-7.8125 -6.46875,-2.03125 -4.59375,6.5 -49.03125,-15.1875 53.59375,-2.5625 3.5,3.125 4.53125,-0.15625 5.375,-8.78125 -5.90625,-6.28125 -6.78125,0.21875 -2,7.59375 -51.5625,1.65625 49.46875,-19.84375 4.40625,1.8125 4.21875,-1.625 1.875,-10 -7.8125,-4 -6.3125,2.4375 0.875,7.78125 -47.875,18.3125 39.34375,-34.71875 4.8125,0.25 3.375,-2.875 -1.84375,-10 -8.78125,-1.21875 -5.0625,4.3125 3.625,7.0625 -38.34375,32.75 24.4375,-45.40625 4.59375,-1.34375 2.15625,-3.78125 -5.34375,-8.8125 -8.6875,1.71875 -3.1875,5.6875 5.9375,5.46875 -24.28125,43.28125 6.65625,-50.65625 3.84375,-2.75 0.625,-4.28125 -8.15625,-6.53125 z m -10.6875,75.90625 0.5625,0 0.5,0.15625 0.5,0.375 0.28125,0.46875 0.0937,0.53125 -0.0937,0.59375 -0.25,0.4375 -0.53125,0.40625 -0.46875,0.1875 -0.5625,0 -0.625,-0.21875 -0.4375,-0.34375 -0.28125,-0.46875 -0.125,-0.5625 0.0937,-0.5 0.28125,-0.46875 0.46875,-0.375 0.59375,-0.21875 z m -54.4375,22.5 c -2.57862,1.97147 -5.08716,4.02789 -7.53125,6.15625 l -0.34375,-3.15625 7.875,-3 z"
       id="path3814"
       inkscape:connector-curvature="0" />
  </g>
</svg>
