<?xml version="1.0" encoding="UTF-8" standalone="no"?>
<!-- Created with Inkscape (http://www.inkscape.org/) -->

<svg
   xmlns:dc="http://purl.org/dc/elements/1.1/"
   xmlns:cc="http://creativecommons.org/ns#"
   xmlns:rdf="http://www.w3.org/1999/02/22-rdf-syntax-ns#"
   xmlns:svg="http://www.w3.org/2000/svg"
   xmlns="http://www.w3.org/2000/svg"
   xmlns:sodipodi="http://sodipodi.sourceforge.net/DTD/sodipodi-0.dtd"
   xmlns:inkscape="http://www.inkscape.org/namespaces/inkscape"
   width="744.09448819"
   height="1052.3622047"
   id="svg2"
   version="1.1"
   inkscape:version="0.48.4 r9939"
   sodipodi:docname="New document 1">
  <defs
     id="defs4" />
  <sodipodi:namedview
     id="base"
     pagecolor="#ffffff"
     bordercolor="#666666"
     borderopacity="1.0"
     inkscape:pageopacity="0.0"
     inkscape:pageshadow="2"
     inkscape:zoom="2.8812076"
     inkscape:cx="187.70324"
     inkscape:cy="963.28332"
     inkscape:document-units="px"
     inkscape:current-layer="layer1"
     showgrid="false"
     inkscape:window-width="1366"
     inkscape:window-height="705"
     inkscape:window-x="-8"
     inkscape:window-y="-8"
     inkscape:window-maximized="1" />
  <metadata
     id="metadata7">
    <rdf:RDF>
      <cc:Work
         rdf:about="">
        <dc:format>image/svg+xml</dc:format>
        <dc:type
           rdf:resource="http://purl.org/dc/dcmitype/StillImage" />
        <dc:title></dc:title>
      </cc:Work>
    </rdf:RDF>
  </metadata>
  <g
     inkscape:label="Layer 1"
     inkscape:groupmode="layer"
     id="layer1">
    <path
       inkscape:connector-curvature="0"
       id="path2990"
       style="font-size:40px;font-style:normal;font-variant:normal;font-weight:normal;font-stretch:normal;line-height:125%;letter-spacing:0px;word-spacing:0px;fill:#000000;fill-opacity:1;stroke:none;font-family:Georgia;-inkscape-font-specification:Georgia"
       d="m 47.4006,78.534492 -12.480468,0 0,-1.386718 1.523437,-0.117188 1.40625,-0.234375 0.9375,-0.693359 0.292969,-1.220703 0,-20.078125 -0.214844,-1.142578 -1.015625,-0.771485 -1.474609,-0.439453 -1.455078,-0.244141 0,-1.386718 12.480468,0 0,1.386718 -1.445312,0.146485 -1.464844,0.322265 -0.996094,0.761719 -0.253906,1.171875 0,20.058594 0.283203,1.142578 0.966797,0.791016 1.337891,0.341797 1.572265,0.205078 z"
       sodipodi:nodetypes="ccccccccccccccccccccccccc" />
    <path
       inkscape:connector-curvature="0"
       id="path2992"
       style="font-size:40px;font-style:normal;font-variant:normal;font-weight:normal;font-stretch:normal;line-height:125%;letter-spacing:0px;word-spacing:0px;fill:#000000;fill-opacity:1;stroke:none;font-family:Georgia;-inkscape-font-specification:Georgia"
       d="m 62.302944,77.694649 -2.402344,0.888672 -2.773437,0.361328 -3.408203,-1.220703 -0.986328,-3.447266 0,-13.046875 -3.476563,0 0,-1.875 3.554688,0 0,-5.996094 3.554687,0 0,5.996094 5.527344,0 0,1.875 -5.488281,0 0,10.761719 0.08789,2.021484 0.419922,1.416016 0.9375,0.859375 1.679688,0.292968 1.435547,-0.08789 1.33789,-0.22461 z"
       sodipodi:nodetypes="ccccccccccccccccccccccc" />
    <path
       inkscape:connector-curvature="0"
       id="path2994"
       style="font-size:40px;font-style:normal;font-variant:normal;font-weight:normal;font-stretch:normal;line-height:125%;letter-spacing:0px;word-spacing:0px;fill:#000000;fill-opacity:1;stroke:none;font-family:Georgia;-inkscape-font-specification:Georgia"
       d="m 112.12716,52.206367 -1.13281,0.22461 -1.19141,0.537109 -1.10351,0.986328 -0.73242,1.552735 -3.22266,10.537109 -3.96484,12.841797 -1.796878,0 -6.992188,-21.328125 -7.285156,21.328125 -1.71875,0 -4.003906,-14.189453 -2.773438,-9.853516 -0.517578,-1.074219 -0.927734,-0.859375 -1.142578,-0.498046 -1.181641,-0.205079 0,-1.386718 11.308594,0 0,1.386718 -2.529297,0.292969 -1.044922,0.722656 0.05859,0.517579 0.09766,0.517578 1.591797,5.673828 3.388672,11.845703 6.914062,-20.566406 1.914063,0 6.972658,21.015625 2.42187,-8.466797 1.67969,-6.201172 0.58594,-2.490234 0.11719,-1.142579 -0.90821,-1.113281 -2.93945,-0.605469 0,-1.386718 10.05859,0 z"
       sodipodi:nodetypes="cccccccccccccccccccccccccccccccccccccc" />
    <path
       inkscape:connector-curvature="0"
       id="path2996"
       style="font-size:40px;font-style:normal;font-variant:normal;font-weight:normal;font-stretch:normal;line-height:125%;letter-spacing:0px;word-spacing:0px;fill:#000000;fill-opacity:1;stroke:none;font-family:Georgia;-inkscape-font-specification:Georgia"
       d="m 131.75607,68.710274 -0.64453,3.99414 -1.83594,3.330078 -3.125,2.324219 -3.98437,0.761719 -3.4961,-0.693359 -2.94922,-2.021485 -2.02148,-3.193359 -0.75195,-4.228516 2.62695,-7.382812 6.88476,-2.871094 6.66993,2.724609 z m -4.04297,0.03906 -0.29297,-3.095703 -0.8789,-2.763672 -1.64063,-1.943359 -2.48047,-0.732422 -2.56836,0.742187 -1.72851,2.03125 -0.87891,2.714844 -0.25391,2.949219 0.30274,3.466797 0.9668,2.841797 1.66992,1.96289 2.49023,0.712891 3.86719,-2.363281 z"
       sodipodi:nodetypes="cccccccccccccccccccccccccccc" />
    <path
       inkscape:connector-curvature="0"
       id="path2998"
       style="font-size:40px;font-style:normal;font-variant:normal;font-weight:normal;font-stretch:normal;line-height:125%;letter-spacing:0px;word-spacing:0px;fill:#000000;fill-opacity:1;stroke:none;font-family:Georgia;-inkscape-font-specification:Georgia"
       d="m 149.29513,61.757149 -0.48828,1.767578 -1.50391,0.771484 -1.66992,-0.566406 -0.57617,-1.25 0.0684,-0.78125 0.12695,-0.703125 -2.14843,0.742187 -2.08985,2.109375 0,11.210938 0.26367,1.113281 0.83008,0.644531 1.25977,0.292969 1.33789,0.136719 0,1.289062 -10.15625,0 0,-1.289062 0.92773,-0.07813 0.83008,-0.15625 0.81055,-0.615234 0.26367,-1.142579 0,-11.894531 -0.2832,-1.191406 -0.79102,-0.9375 -0.87891,-0.341797 -1.09375,-0.146484 0,-1.269532 6.40625,-0.429687 0.27344,0.273437 0,2.714844 0.0977,0 2.69531,-2.402344 2.71484,-0.820312 2.00196,0.800781 0.77148,2.148438 z"
       sodipodi:nodetypes="cccccccccccccccccccccccccccccccccccc" />
    <path
       inkscape:connector-curvature="0"
       id="path3000"
       style="font-size:40px;font-style:normal;font-variant:normal;font-weight:normal;font-stretch:normal;line-height:125%;letter-spacing:0px;word-spacing:0px;fill:#000000;fill-opacity:1;stroke:none;font-family:Georgia;-inkscape-font-specification:Georgia"
       d="m 171.36544,78.534492 -5.82031,0 -3.26172,-4.726562 -3.61328,-4.902344 -1.60156,1.503906 0,4.570313 0.25391,1.162109 0.82031,0.673828 0.89844,0.292969 0.99609,0.136719 0,1.289062 -9.45313,0 0,-1.289062 0.9375,-0.08789 0.82032,-0.146484 0.82031,-0.615234 0.27344,-1.142579 0,-22.382812 -0.30274,-1.357422 -0.79101,-0.966797 -1.2793,-0.410156 -1.39648,-0.136719 0,-1.25 7.1289,-0.449219 0.27344,0.292969 0,20.371094 3.29101,-3.271484 2.97852,-3.115235 0.3418,-0.458984 0.18554,-0.458985 -0.84961,-0.78125 -1.63085,-0.351562 0,-1.25 8.47656,0 0,1.210937 -2.90039,1.220704 -1.92383,1.318359 -1.32813,1.269531 -2.40234,2.304688 3.60352,4.726562 2.91992,3.984375 1.54297,1.503906 1.99218,0.429688 z"
       sodipodi:nodetypes="cccccccccccccccccccccccccccccccccccccccccccc" />
    <path
       inkscape:connector-curvature="0"
       id="path3002"
       style="font-size:40px;font-style:normal;font-variant:normal;font-weight:normal;font-stretch:normal;line-height:125%;letter-spacing:0px;word-spacing:0px;fill:#000000;fill-opacity:1;stroke:none;font-family:Georgia;-inkscape-font-specification:Georgia"
       d="m 185.07638,69.100899 1.23047,1.621093 0.42969,2.246094 -2.00196,4.375 -5.18554,1.699219 -3.09571,-0.605469 -2.02148,-1.113281 -0.39062,1.269531 -1.46485,0 -0.19531,-6.699219 1.34766,0 0.66406,1.777344 1.23047,1.835938 1.82617,1.445312 2.39258,0.585938 2.89062,-0.84961 1.01563,-2.43164 -0.32227,-1.416016 -0.94726,-1.044922 -1.58204,-0.810547 -2.08984,-0.71289 -2.04102,-0.751953 -1.92382,-1.123047 -1.40625,-1.679688 -0.54688,-2.34375 1.75781,-4.003906 4.70704,-1.640625 2.31445,0.292969 1.92383,0.703125 0.44922,-1.015625 1.40625,0 0.29296,6.191406 -1.34765,0 -1.76758,-3.369141 -3.31055,-1.298828 -2.51953,0.800781 -0.91797,1.933594 0.30274,1.464844 0.9082,0.996094 1.47461,0.732422 2.19727,0.771484 2.43164,0.957031 z"
       sodipodi:nodetypes="ccccccccccccccccccccccccccccccccccccccccccc" />
    <path
       inkscape:connector-curvature="0"
       id="path3004"
       style="font-size:40px;font-style:normal;font-variant:normal;font-weight:normal;font-stretch:normal;line-height:125%;letter-spacing:0px;word-spacing:0px;fill:#000000;fill-opacity:1;stroke:none;font-family:Georgia;-inkscape-font-specification:Georgia"
       d="m 197.43966,52.733711 -0.64453,6.5625 -1.13281,10.800781 -1.52344,0 -1.06445,-10.800781 -0.63477,-6.5625 0.70313,-1.875 1.79687,-0.761719 1.79688,0.751954 z m 0.17578,23.554688 -0.79101,1.865234 -1.88477,0.771484 -1.88476,-0.771484 -0.79102,-1.865234 0.79102,-1.884766 1.88476,-0.791016 1.88477,0.791016 z"
       sodipodi:nodetypes="ccccccccccccccccccc" />
    <path
       inkscape:connector-curvature="0"
       id="path3006"
       style="font-size:40px;font-style:normal;font-variant:normal;font-weight:normal;font-stretch:normal;line-height:125%;letter-spacing:0px;word-spacing:0px;fill:#000000;fill-opacity:1;stroke:none;font-family:Georgia;-inkscape-font-specification:Georgia"
       d="m 210.72091,52.733711 -0.64453,6.5625 -1.13281,10.800781 -1.52344,0 -1.06445,-10.800781 -0.63477,-6.5625 0.70313,-1.875 1.79687,-0.761719 1.79688,0.751954 z m 0.17578,23.554688 -0.79101,1.865234 -1.88477,0.771484 -1.88476,-0.771484 -0.79102,-1.865234 0.79102,-1.884766 1.88476,-0.791016 1.88477,0.791016 z"
       sodipodi:nodetypes="ccccccccccccccccccc" />
    <path
       inkscape:connector-curvature="0"
       id="path3008"
       style="font-size:40px;font-style:normal;font-variant:normal;font-weight:normal;font-stretch:normal;line-height:125%;letter-spacing:0px;word-spacing:0px;fill:#000000;fill-opacity:1;stroke:none;font-family:Georgia;-inkscape-font-specification:Georgia"
       d="m 224.00216,52.733711 -0.64453,6.5625 -1.13281,10.800781 -1.52344,0 -1.06445,-10.800781 -0.63477,-6.5625 0.70313,-1.875 1.79687,-0.761719 1.79688,0.751954 z m 0.17578,23.554688 -0.79101,1.865234 -1.88477,0.771484 -1.88476,-0.771484 -0.79102,-1.865234 0.79102,-1.884766 1.88476,-0.791016 1.88477,0.791016 z"
       sodipodi:nodetypes="ccccccccccccccccccc" />
  </g>
</svg>
