<?xml version="1.0" encoding="UTF-8" standalone="no"?>
<!-- Created with Inkscape (http://www.inkscape.org/) -->

<svg
   xmlns:dc="http://purl.org/dc/elements/1.1/"
   xmlns:cc="http://creativecommons.org/ns#"
   xmlns:rdf="http://www.w3.org/1999/02/22-rdf-syntax-ns#"
   xmlns:svg="http://www.w3.org/2000/svg"
   xmlns="http://www.w3.org/2000/svg"
   xmlns:sodipodi="http://sodipodi.sourceforge.net/DTD/sodipodi-0.dtd"
   xmlns:inkscape="http://www.inkscape.org/namespaces/inkscape"
   width="744.09448819"
   height="1052.3622047"
   id="svg2"
   version="1.1"
   inkscape:version="0.48.4 r9939"
   sodipodi:docname="New document 1">
  <defs
     id="defs4" />
  <sodipodi:namedview
     id="base"
     pagecolor="#ffffff"
     bordercolor="#666666"
     borderopacity="1.0"
     inkscape:pageopacity="0.0"
     inkscape:pageshadow="2"
     inkscape:zoom="0.35"
     inkscape:cx="375"
     inkscape:cy="520"
     inkscape:document-units="px"
     inkscape:current-layer="layer1"
     showgrid="false"
     inkscape:window-width="1366"
     inkscape:window-height="705"
     inkscape:window-x="-8"
     inkscape:window-y="-8"
     inkscape:window-maximized="1" />
  <metadata
     id="metadata7">
    <rdf:RDF>
      <cc:Work
         rdf:about="">
        <dc:format>image/svg+xml</dc:format>
        <dc:type
           rdf:resource="http://purl.org/dc/dcmitype/StillImage" />
        <dc:title></dc:title>
      </cc:Work>
    </rdf:RDF>
  </metadata>
  <g
     inkscape:label="Layer 1"
     inkscape:groupmode="layer"
     id="layer1">
    <path
       inkscape:connector-curvature="0"
       id="path3000"
       style="font-size:40px;font-style:normal;font-variant:normal;font-weight:normal;font-stretch:normal;line-height:125%;letter-spacing:0px;word-spacing:0px;fill:#000000;fill-opacity:1;stroke:none;font-family:Georgia;-inkscape-font-specification:Georgia"
       d="m 168.77131,201.76508 -26.721,0 -14.97453,-21.6996 -16.58854,-22.50661 -7.35275,6.9044 0,20.98225 1.1657,5.33524 3.76603,3.09355 4.12473,1.34502 4.57305,0.62768 0,5.91807 -43.399251,0 0,-5.91807 4.30405,-0.40354 3.76609,-0.67249 3.76603,-2.82457 1.25536,-5.24557 0,-102.759306 -1.38987,-6.23191 -3.63152,-4.43857 -5.87326,-1.88299 -6.41123,-0.62768 0,-5.73874 32.728731,-2.06237 1.25536,1.34502 0,93.523516 15.109,-15.01934 13.67436,-14.30204 1.5692,-2.10717 0.85182,-2.10722 -3.90056,-3.58672 -7.48722,-1.61401 0,-5.73874 38.91582,0 0,5.55942 -13.31566,5.60422 -8.83229,6.05258 -6.09744,5.82841 -11.02912,10.58081 16.54373,21.6996 13.40533,18.29226 7.08376,6.90439 9.14609,1.97271 z"
       sodipodi:nodetypes="cccccccccccccccccccccccccccccccccccccccccccc" />
  </g>
</svg>
