<?xml version="1.0" encoding="UTF-8" standalone="no"?>
<svg xmlns:rdf="http://www.w3.org/1999/02/22-rdf-syntax-ns#" xmlns="http://www.w3.org/2000/svg" height="478.5" width="445" version="1.1" xmlns:cc="http://creativecommons.org/ns#" xmlns:xlink="http://www.w3.org/1999/xlink" xmlns:dc="http://purl.org/dc/elements/1.1/">
	<defs>
		<clipPath id="d" clipPathUnits="userSpaceOnUse">
			<path d="m0 0h792v612h-792v-612z"/>
		</clipPath>
		<linearGradient id="c" gradientUnits="userSpaceOnUse" gradientTransform="matrix(335,-59.125,59.125,335,177.75,927.50009)">
			<stop stop-color="#f58023" offset="0"/>
			<stop stop-color="#f58023" offset=".40000001"/>
			<stop stop-color="#ed7d23" offset=".51999998"/>
			<stop stop-color="#dc7424" offset=".62"/>
			<stop stop-color="#c56824" offset=".70999998"/>
			<stop stop-color="#a75821" offset=".79000002"/>
			<stop stop-color="#83441d" offset=".87"/>
			<stop stop-color="#7b401b" offset=".88"/>
			<stop stop-color="#5f3215" offset=".97000003"/>
			<stop stop-color="#532b11" offset="1"/>
		</linearGradient>
		<linearGradient id="b" gradientUnits="userSpaceOnUse" gradientTransform="matrix(-146.25,312.5,-312.5,-146.25,-364.75,-273.74991)" y1="614.25586" y2="614.25586">
			<stop stop-color="#f58023" offset="0"/>
			<stop stop-color="#f58023" offset=".40109301"/>
			<stop stop-color="#ed7d23" offset=".51989251"/>
			<stop stop-color="#dc7424" offset=".61641848"/>
			<stop stop-color="#c56824" offset=".70515078"/>
			<stop stop-color="#a75821" offset=".78916937"/>
			<stop stop-color="#83441d" offset=".86920989"/>
			<stop stop-color="#7b401b" offset=".88461298"/>
			<stop stop-color="#5f3215" offset=".96567822"/>
			<stop stop-color="#532b11" offset="1"/>
		</linearGradient>
		<linearGradient id="a" gradientUnits="userSpaceOnUse" gradientTransform="matrix(-197.5,-282.5,282.5,-197.5,899,-86.24991)" y1="614.29688" y2="614.29688">
			<stop stop-color="#f58023" offset="0"/>
			<stop stop-color="#f58023" offset=".40109301"/>
			<stop stop-color="#ed7d23" offset=".51989251"/>
			<stop stop-color="#dc7424" offset=".61641848"/>
			<stop stop-color="#c56824" offset=".70515078"/>
			<stop stop-color="#a75821" offset=".78916937"/>
			<stop stop-color="#83441d" offset=".86920989"/>
			<stop stop-color="#7b401b" offset=".88461298"/>
			<stop stop-color="#5f3215" offset=".96567822"/>
			<stop stop-color="#532b11" offset="1"/>
		</linearGradient>
	</defs>
	<g transform="matrix(1.25,0,0,-1.25,-451,617.50009)" clip-path="url(#d)">
		<g transform="translate(641,446)">
			<path fill="#f46f19" d="m0 0c-1.69 2.04-3.443 4.001-5.259 5.897-26.775 25.771-63.128 41.613-103.21 41.613-66.24-0.016-122.38-45.613-141.67-105.43l0.175 0.463c-0.988-2.629-1.865-5.275-2.629-7.953-8.942-36.066-4.479-75.479 15.554-110.19 33.133-57.359 100.69-83.178 162.13-69.981h-0.033c2.615 0.446 5.196 0.971 7.745 1.609 35.7 10.295 67.608 33.867 87.64 68.578 33.098 57.36 21.702 128.79-20.452 175.39m-249.36-55.844v-0.016 0.016zm218.14-98.605c-29.755-21.388-66.141-39.875-93.824-49.31-3.441-1.195-7.092-2.503-10.853-3.682-3.729-1.163-7.587-2.215-11.428-2.852-7.697-1.323-15.363-1.021-22.168 2.916-3.889 2.232-7.889 5.02-10.343 8.75-6.886 14.997-11.332 33.914-13.229 57.311-3.649 36.464-1.449 77.216 4.207 105.92 0.702 3.57 1.387 7.379 2.248 11.235 0.862 3.81 1.88 7.682 3.236 11.332 2.708 7.315 6.805 13.802 13.61 17.722 3.889 2.263 8.304 4.319 12.766 4.59l-0.016 0.016c16.432-1.562 35.031-7.156 56.243-17.213 33.405-15.076 67.607-37.341 89.616-56.593 2.757-2.391 5.705-4.892 8.605-7.555 2.887-2.661 5.738-5.466 8.209-8.478 4.972-6.008 8.542-12.798 8.542-20.655 0.017-4.494-0.414-9.355-2.406-13.355-9.548-13.452-23.699-26.759-43.015-40.099"/>
		</g>
	</g>
	<path fill="url(#a)" d="m46.05 113.05009c-2.9075 5.27875-5.4775 10.67625-7.63 16.135l-0.97625 2.59125 0.22-0.57875c-0.615 1.63875-1.19625 3.28125-1.7425 4.93-0.005 0.0175-0.0087 0.0325-0.01625 0.0488-0.10125 0.30875-0.2025 0.62125-0.3025 0.93-0.21875 0.6825-0.4325 1.365-0.63875 2.0475-0.03125 0.1-0.06125 0.20125-0.09125 0.30125-0.06875 0.23-0.13875 0.46-0.20625 0.68875-0.09625 0.3325-0.195 0.6625-0.28875 0.99625-3.66875 14.7925-5.53125 30.03625-5.495 45.3725 0.07375 31.4075 8.1125 63.21375 24.9375 92.365 34.2925 59.3675 98.09875 91.7075 162.625 91.7075 13.30875 0 26.645-1.375 39.76375-4.17375-6.745 1.15125-13.66125 1.815-20.70375 1.935-1.365 0.0238-2.71875 0.0362-4.0625 0.0362-50.47 0-86.33125-17.25-106.165-60.6975l0.0275-0.0275c-2.94875-6.43375-5.54-13.44625-7.76625-21.05875-0.01-0.0375-0.0237-0.0763-0.0337-0.115-0.0775-0.265-0.15625-0.53625-0.2325-0.80375-0.0325-0.10875-0.0625-0.21375-0.0925-0.3225-0.06-0.21125-0.12125-0.4225-0.18-0.635-0.0387-0.13625-0.0775-0.2725-0.11375-0.40875-0.0425-0.15125-0.0825-0.29375-0.125-0.4475-0.21125-0.76125-0.415-1.52625-0.61875-2.2975l-0.002-0.005c-3.18875-12.1275-5.5075-25.70375-6.94375-40.83125-0.008-0.095-0.0188-0.1975-0.0275-0.29125-0.0238-0.26125-0.0475-0.52125-0.0713-0.78375-0.0175-0.17-0.0325-0.335-0.0475-0.5075-0.02-0.23125-0.0412-0.46375-0.0625-0.69625-0.0175-0.2025-0.035-0.41375-0.0525-0.61625-0.0162-0.19-0.0325-0.375-0.0487-0.565-0.035-0.41375-0.07-0.83125-0.105-1.2475-1.5325-15.31125-2.23875-31.22875-2.23375-46.97625 0.008-31.12875 2.79875-61.5975 7.49375-85.4225 0.87875-4.4625 1.7325-9.22375 2.81-14.04375 1.07625-4.7625 2.35-9.60375 4.04375-14.165 3.385-9.145 8.5075-17.25375 17.0125-22.1525 4.8625-2.83 10.38-5.39875 15.95875-5.7375l-0.0113-0.0125c-3.95375-0.3725-7.805-0.55875-11.56125-0.55875-42.565 0-72.73625 23.70375-96.245 66.09375"/>
	<path fill="url(#b)" d="m362.3 76.53759c27.13375 45.10375 31.03875 85.86375 2.58875 125.7875h-0.02875c-5.21 7.33625-11.515 14.6375-18.97125 21.92-0.065 0.0637-0.13375 0.13125-0.20125 0.1975-0.17875 0.17375-0.36125 0.35-0.5425 0.52625-0.0888 0.0863-0.18125 0.17375-0.27125 0.2625-0.15 0.145-0.305 0.2925-0.455 0.4375-0.1125 0.10625-0.225 0.21375-0.3375 0.32-0.13625 0.13125-0.27625 0.265-0.415 0.395-0.12 0.115-0.2425 0.23-0.3625 0.34375-0.0837 0.08-0.16625 0.1575-0.25125 0.23625-0.365 0.34375-0.73375 0.6875-1.10375 1.03125-0.0263 0.025-0.055 0.0512-0.08 0.075-0.22375 0.205-0.44375 0.40875-0.66625 0.61375-0.0213 0.02-0.035 0.0312-0.0587 0.0538-0.23 0.21125-0.46 0.42125-0.69375 0.63375-0.009 0.006-0.0125 0.0112-0.0213 0.0187-7.70625 7.01-16.49625 14.01-26.42 21.015-0.0725 0.0513-0.15125 0.105-0.225 0.15875-0.24125 0.17125-0.4875 0.3425-0.7325 0.515-0.1075 0.075-0.2125 0.14875-0.31875 0.22375-0.215 0.15-0.42625 0.29875-0.6425 0.4475-0.33625 0.23375-0.67125 0.465-1.00875 0.69875-37.1925 26.73625-82.67625 49.84375-117.28 61.63875-4.30125 1.4925-8.86375 3.1275-13.56625 4.60125-4.66 1.45375-9.4825 2.77-14.28375 3.56625-3.24 0.5575-6.47625 0.88375-9.67 0.88375-6.285 0-12.39875-1.26625-18.04-4.53-4.86125-2.78875-9.8625-6.275-12.92875-10.9375-0.002-0.004-0.005-0.009-0.006-0.0125l-0.008 0.006c19.88625 43.39625 56.03875 60.64375 106.69125 60.64375 1.31125 0 2.63375-0.0112 3.96625-0.035 6.0375-0.12 11.97375-0.6175 17.81-1.47375l2.71-0.43875h-0.04c2.35125-0.40125 4.68-0.855 6.99-1.37375 0.89875-0.20375 1.7975-0.4175 2.69125-0.63875 44.625-12.86875 84.51-42.33375 109.55-85.7225 23.8775-41.37625 29.235-88.60625 19.36625-132.35-0.0188-0.0838-0.0362-0.16125-0.0562-0.24375-0.007-0.0387-0.0175-0.0762-0.0263-0.11125-3.35875-14.76-8.4525-29.125-15.14875-42.725-7.73225-15.69475-17.59725-30.3735-29.411-43.49225 4.32625 5.22875 8.31875 10.84625 11.90875 16.83875"/>
	<path fill="url(#c)" d="m37.475 131.65009c2.385-6.46125 5.28625-12.8275 8.70375-19.03 23.4-42.21875 53.38125-65.705 95.81875-65.705 3.84125 0 7.78625 0.1925 11.83625 0.58125l0.0112 0.02c2.925 0.28 5.9075 0.66125 8.9475 1.145 0.0475 0.0075 0.10125 0.01625 0.15125 0.025 0.295 0.0475 0.59 0.095 0.88875 0.145 0.1875 0.03125 0.3775 0.06375 0.56875 0.095 0.14375 0.02625 0.2875 0.05 0.4325 0.075 0.25 0.04375 0.49875 0.0875 0.75125 0.1325 0.0762 0.0125 0.15 0.025 0.2225 0.03875 10.05875 1.805 20.72375 4.7325 32.06125 8.82875 0.0375 0.01375 0.075 0.0275 0.11 0.04 0.3475 0.12625 0.69625 0.2525 1.045 0.38 0.05 0.01875 0.10125 0.03875 0.15125 0.05625 0.3325 0.1225 0.66375 0.245 0.9975 0.3675 0.0887 0.035 0.18 0.07 0.27125 0.1025 0.5775 0.21625 1.16125 0.4375 1.7425 0.65875 0.1225 0.0475 0.24625 0.09375 0.37125 0.14 0.1925 0.07625 0.385 0.15 0.58 0.225 0.2375 0.09125 0.47625 0.18375 0.7125 0.27625 0.17 0.06625 0.33625 0.13 0.505 0.1975 0.3 0.1175 0.6025 0.23625 0.905 0.35625 0.1225 0.0475 0.24 0.095 0.36375 0.145 0.32875 0.13 0.66125 0.26125 0.99 0.395 0.11 0.045 0.22375 0.09 0.3325 0.13375 0.4275 0.17125 0.85875 0.3475 1.28625 0.5225 0.006 0.0025 0.006 0.0025 0.0138 0.005 0.93125 0.38125 1.87 0.77125 2.80875 1.16625 0.0175 0.0075 0.04 0.0175 0.0537 0.02375 0.4375 0.185 0.875 0.36875 1.31375 0.55625 0.0575 0.02375 0.1025 0.04375 0.16125 0.06875 1.87625 0.8025 3.77 1.63375 5.68 2.49625 0.47125 0.21375 0.94125 0.42625 1.415 0.64125 0.0362 0.01875 0.0712 0.03375 0.1075 0.05125 0.42625 0.19375 0.85125 0.38875 1.2775 0.58625 0.0687 0.0325 0.14125 0.065 0.21 0.0975 0.42375 0.19625 0.84625 0.3925 1.27375 0.5925 0.0487 0.0225 0.105 0.0475 0.1525 0.0725 0.48 0.22375 0.9575 0.4475 1.4375 0.67625 41.7575 18.845 84.51 46.67625 112.02125 70.7425 3.445 2.9875 7.13125 6.115 10.75625 9.4425 3.6075 3.3275 7.1725 6.8325 10.26125 10.5975 6.215 7.51125 10.67625 15.9975 10.67625 25.81875 0.001 0.17625 0.001 0.3525 0.001 0.52875-0.0163 5.4675-0.59625 11.32125-3.0075 16.165h0.009c28.355-39.925 24.31375-80.91875-2.84-126.125-3.1275-5.18-6.5125-10.08-10.17875-14.6825l-1.57875-1.9625c-0.0525-0.05625-0.1025-0.11375-0.155-0.17-2.11125-2.54875-4.3025-5-6.5725-7.37125-33.4875-32.2125-78.925-52.0125-129.025-52.0125-82.75 0.025-152.9 56.95-177.05 131.65"/>
	<g transform="matrix(1.25,0,0,-1.25,89,477.50009)">
		<path d="m0 0v44.188c0 4.283 3.472 7.769 7.761 7.769h22.021c11.296 0 20.455-9.156 20.455-20.445v-31.512h-7.056v31.512c0 7.399-6.001 13.391-13.399 13.391l-22.021-0.008c-0.392 0-0.709-0.318-0.709-0.707v-44.188h-7.052z" fill="#f46f19"/>
	</g>
	<g transform="matrix(1.25,0,0,-1.25,34,420.00009)">
		<path d="m0 0c-10.881 0-19.963-9.177-19.963-20.246 0-11.355 8.797-20.343 19.963-20.343 11.068 0 19.773 8.988 19.773 20.626 0 10.885-8.987 19.963-19.773 19.963m0 6.625c14.568 0 26.683-12.396 26.683-27.251 0-14.192-12.399-26.588-26.683-26.588-15.045 0-26.967 12.015-26.967 27.251 0 14.382 12.392 26.588 26.967 26.588" fill="#f46f19"/>
	</g>
	<g transform="matrix(1.25,0,0,-1.25,315.25,466.25009)">
		<path d="m0 0 17.834 42.835h7.639l-20.52-49.291c-0.806-1.969-2.734-3.303-4.953-3.303-1.859 0-4.066 1.048-4.929 3.261l-20.542 49.333h7.635l17.836-42.835z" fill="#231f20"/>
	</g>
	<path fill="#231f20" d="m251.525 412.37509h8.63125v64.93625h-8.63125v-64.93625z"/>
	<g transform="matrix(1.25,0,0,-1.25,369,440.00009)">
		<path d="m0 0h39.238c-2.538 10.071-10.161 16.56-19.569 16.56-9.784 0-17.881-6.776-19.669-16.56m46.377-5.985-46.564-0.13c0.469-9.695 9.498-17.69 19.945-17.69 5.587 0 11.379 2.825 14.994 6.992h7.914c-4.619-8.129-13.553-13.58-22.908-13.58-14.959 0-26.812 11.852-26.812 26.722 0 14.963 11.758 26.821 26.627 26.821 9.414 0 18.161-5.176 23.058-13.545 2.348-4.05 3.559-8.155 3.746-15.59" fill="#231f20"/>
	</g>
	<g transform="matrix(1.25,0,0,-1.25,226.5,477.50009)">
		<path d="m0 0h-23.752c-9.658 0-17.489 7.829-17.489 17.487v34.47h7.051v-34.47c0-5.764 4.674-10.437 10.438-10.437h23.752v-7.05z" fill="#231f20"/>
	</g>
	<g transform="matrix(1.25,0,0,-1.25,430.25,418.75009)">
		<path d="m0 0v0.034c0 3.229 2.622 5.933 5.949 5.933s5.918-2.672 5.918-5.9v-0.033c0-3.23-2.622-5.934-5.953-5.934-3.325 0-5.914 2.671-5.914 5.9m11.178 0.034v0.033c0 2.901-2.246 5.244-5.229 5.244-2.999 0-5.261-2.376-5.261-5.277v-0.034c0-2.901 2.245-5.244 5.226-5.244 3.003 0 5.264 2.375 5.264 5.278m-7.688 3.327h2.805c0.851 0 1.504-0.246 1.95-0.688 0.343-0.345 0.525-0.821 0.525-1.378v-0.032c0-1.017-0.559-1.656-1.362-1.95l1.54-2.262h-1.622l-1.344 2.032h-1.098v-2.032h-1.394v6.31zm2.786-3.083c0.707 0 1.082 0.378 1.082 0.902v0.033c0 0.607-0.423 0.918-1.115 0.918h-1.359v-1.853h1.392z" fill="#231f20"/>
	</g>
</svg>
