<?xml version="1.0" encoding="UTF-8" standalone="no"?>
<!-- Created with Inkscape (http://www.inkscape.org/) -->

<svg
   xmlns:dc="http://purl.org/dc/elements/1.1/"
   xmlns:cc="http://creativecommons.org/ns#"
   xmlns:rdf="http://www.w3.org/1999/02/22-rdf-syntax-ns#"
   xmlns:svg="http://www.w3.org/2000/svg"
   xmlns="http://www.w3.org/2000/svg"
   xmlns:sodipodi="http://sodipodi.sourceforge.net/DTD/sodipodi-0.dtd"
   xmlns:inkscape="http://www.inkscape.org/namespaces/inkscape"
   width="744.09448819"
   height="1052.3622047"
   id="svg2"
   version="1.1"
   inkscape:version="0.48.4 r9939"
   sodipodi:docname="r.svg">
  <defs
     id="defs4" />
  <sodipodi:namedview
     id="base"
     pagecolor="#ffffff"
     bordercolor="#666666"
     borderopacity="1.0"
     inkscape:pageopacity="0.0"
     inkscape:pageshadow="2"
     inkscape:zoom="1"
     inkscape:cx="375"
     inkscape:cy="960"
     inkscape:document-units="px"
     inkscape:current-layer="layer1"
     showgrid="false"
     inkscape:window-width="1366"
     inkscape:window-height="705"
     inkscape:window-x="-8"
     inkscape:window-y="-8"
     inkscape:window-maximized="1" />
  <metadata
     id="metadata7">
    <rdf:RDF>
      <cc:Work
         rdf:about="">
        <dc:format>image/svg+xml</dc:format>
        <dc:type
           rdf:resource="http://purl.org/dc/dcmitype/StillImage" />
        <dc:title></dc:title>
      </cc:Work>
    </rdf:RDF>
  </metadata>
  <g
     inkscape:label="Layer 1"
     inkscape:groupmode="layer"
     id="layer1">
    <path
       inkscape:connector-curvature="0"
       id="path2998"
       style="font-size:40px;font-style:normal;font-variant:normal;font-weight:normal;font-stretch:normal;line-height:125%;letter-spacing:0px;word-spacing:0px;fill:#000000;fill-opacity:1;stroke:none;font-family:Georgia;-inkscape-font-specification:Georgia"
       d="m 181.59116,83.18263 -3.7556,13.59532 -11.56732,5.93386 -12.84417,-4.35651 -4.43161,-9.61436 0.5261,-6.00898 0.97643,-5.40808 -16.52463,5.70852 -16.07406,16.22424 0,86.22882 2.02801,8.56286 6.38456,4.9574 9.68951,2.25337 10.29037,1.05151 0,9.91487 -78.11672,0 0,-9.91487 7.13563,-0.60071 6.38455,-1.20179 6.23434,-4.73204 2.02801,-8.78815 0,-91.48668 -2.17823,-9.16369 -6.08412,-7.21078 -6.76013,-2.62893 -8.41257,-1.12668 0,-9.764593 49.27362,-3.304934 2.10317,2.103138 0,20.881199 0.75145,0 20.73096,-18.477607 20.88117,-6.309424 15.39806,6.159201 5.93383,16.52469 z"
       sodipodi:nodetypes="cccccccccccccccccccccccccccccccccccc" />
  </g>
</svg>
