<?xml version="1.0" encoding="UTF-8" standalone="no"?>
<!-- Created with Inkscape (http://www.inkscape.org/) -->

<svg
   xmlns:dc="http://purl.org/dc/elements/1.1/"
   xmlns:cc="http://creativecommons.org/ns#"
   xmlns:rdf="http://www.w3.org/1999/02/22-rdf-syntax-ns#"
   xmlns:svg="http://www.w3.org/2000/svg"
   xmlns="http://www.w3.org/2000/svg"
   xmlns:sodipodi="http://sodipodi.sourceforge.net/DTD/sodipodi-0.dtd"
   xmlns:inkscape="http://www.inkscape.org/namespaces/inkscape"
   width="744.09448819"
   height="1052.3622047"
   id="svg2"
   version="1.1"
   inkscape:version="0.48.4 r9939"
   sodipodi:docname="New document 1">
  <defs
     id="defs4" />
  <sodipodi:namedview
     id="base"
     pagecolor="#ffffff"
     bordercolor="#666666"
     borderopacity="1.0"
     inkscape:pageopacity="0.0"
     inkscape:pageshadow="2"
     inkscape:zoom="0.7"
     inkscape:cx="257.91631"
     inkscape:cy="741.6712"
     inkscape:document-units="px"
     inkscape:current-layer="layer1"
     showgrid="false"
     inkscape:window-width="1366"
     inkscape:window-height="705"
     inkscape:window-x="-8"
     inkscape:window-y="-8"
     inkscape:window-maximized="1" />
  <metadata
     id="metadata7">
    <rdf:RDF>
      <cc:Work
         rdf:about="">
        <dc:format>image/svg+xml</dc:format>
        <dc:type
           rdf:resource="http://purl.org/dc/dcmitype/StillImage" />
        <dc:title></dc:title>
      </cc:Work>
    </rdf:RDF>
  </metadata>
  <g
     inkscape:label="Layer 1"
     inkscape:groupmode="layer"
     id="layer1">
    <path
       style="fill:#000000;fill-opacity:1;fill-rule:nonzero;stroke:none"
       d="m 144.59724,47.134126 c -0.49324,0.007 -0.97842,0.0811 -1.46826,0.19151 -0.18245,0.0411 -0.36009,0.1044 -0.54262,0.1596 -0.15873,0.0448 -0.3206,0.072 -0.47878,0.12767 -0.0219,0.008 -0.0419,0.0235 -0.0639,0.0317 -0.25476,0.0922 -0.51208,0.19865 -0.76606,0.31918 -0.0422,0.0203 -0.0855,0.0429 -0.12766,0.0639 -0.20235,0.0997 -0.40412,0.20157 -0.60647,0.31918 -0.0341,0.0197 -0.0614,0.0435 -0.0956,0.0639 -0.0972,0.0578 -0.19004,0.12957 -0.28727,0.1915 -0.15725,0.10024 -0.3212,0.17646 -0.47877,0.28726 -0.0365,0.0234 -0.0597,0.0714 -0.0956,0.0956 -0.0381,0.0256 -0.0901,0.0375 -0.12766,0.0639 -0.10363,0.0668 -0.20267,0.12568 -0.3192,0.19151 -0.86443,0.48826 -2.05364,0.92951 -3.2557,1.24482 -0.0202,0.006 -0.0435,-0.006 -0.0638,0 -0.13884,0.007 -0.27072,0.0181 -0.38303,0 -0.89841,-0.14374 -2.68806,0.13526 -4.05366,0.63838 -1.32966,0.50311 -2.87222,1.09304 -3.44722,1.30865 -0.53906,0.17969 -2.08562,1.91755 -3.41529,3.89408 -0.36646,0.54361 -0.68739,1.03222 -1.02139,1.46824 -0.8856,0.85087 -1.76349,1.70918 -2.64925,2.55352 -0.52325,0.28411 -1.03688,0.41838 -1.53209,0.38301 -0.28616,-0.0358 -1.46883,0.9808 -2.64924,2.26621 -0.006,0.006 0.006,0.0261 0,0.0318 -0.18702,0.17202 -0.37982,0.37039 -0.57455,0.60644 -0.97975,0.97366 -1.82895,1.62211 -1.97894,1.5321 -0.21563,-0.10781 -0.26741,-0.0241 -0.1596,0.19151 0.61093,1.11405 -2.98358,6.19669 -3.98982,5.58576 -0.61092,-0.3953 -0.39175,0.39394 0.54261,1.72361 0.84291,1.18576 1.36624,2.13102 1.56402,2.77691 -0.12832,0.44085 -0.3502,0.65596 -0.70222,0.67029 -0.006,-0.003 -0.0258,0.003 -0.0317,0 -0.18502,-0.10915 -0.3904,-0.2743 -0.63837,-0.47877 -1.09366,-0.91789 -1.57195,-0.81432 -1.43633,-0.0639 -0.16856,0.0689 0.0127,0.40988 0.41494,1.08524 0.0346,0.0582 0.0887,0.15973 0.12768,0.22343 0.26582,0.52107 0.59399,1.13828 1.05331,1.81936 l 0.25536,0.38302 c 0.24459,0.49278 0.39906,0.90653 0.41494,1.18099 l -1.14923,-0.98932 c -1.86872,-1.65309 -2.20238,-1.6848 -2.20238,-0.3192 0,0.10702 0.0191,0.20952 0.0317,0.3192 -0.007,0.0839 -0.0317,0.14737 -0.0317,0.25535 0,0.38843 0.20994,0.8186 0.54261,1.18098 0.15572,0.22849 0.34666,0.42735 0.54262,0.54262 0.575,0.35936 0.74643,1.43164 0.3511,2.33007 -1.3891,3.22964 -1.30567,8.99051 0.0639,9.89476 0.16229,0.23321 0.33265,0.3917 0.54261,0.41494 0.10718,0.32022 0.20086,0.70034 0.28727,1.11717 -0.055,0.0921 -0.14257,0.18843 -0.22343,0.28726 -0.53903,0.61092 -0.65065,2.71952 -0.25535,4.6601 0.61092,2.982774 1.25082,3.606604 3.76641,3.894084 4.02492,0.46718 5.52191,1.89253 5.52191,5.23466 0,2.44485 -0.72947,3.4612 -3.51105,3.60681 l -1.50016,0 c -0.983,-0.0337 -2.09279,-0.10756 -3.47914,-0.25536 -4.49212,-0.46717 -6.22632,-0.19666 -8.49035,1.27674 -1.54527,1.04219 -3.175558,1.80351 -3.606798,1.65979 -0.46719,-0.14376 -0.57879,0.19506 -0.25536,0.73412 0.19849,0.30874 -0.17689,0.97686 -0.86181,1.7236 -0.53841,0.4844 -1.08813,0.9623 -1.59593,1.40442 -0.0127,0.009 -0.0192,0.0228 -0.0317,0.0317 -0.0122,0.0107 -0.0196,0.0213 -0.0317,0.0318 l -3.06419,2.17047 1.7236,-3.67064 c 0.9703,-1.97654 2.03453,-3.63873 2.39391,-3.63873 0.7906,0 0.41159,-12.6786 -0.41495,-14.04419 -0.35938,-0.539054 -0.16407,-1.300404 0.44686,-1.659764 0.25295,-0.15811 0.45837,-0.83753 0.60646,-1.78745 0.11056,-0.31977 0.18736,-0.65624 0.22342,-1.02139 0.0294,-0.26011 0.0348,-0.5588 0.0317,-0.86181 -8.4e-4,-0.0383 9e-4,-0.0885 0,-0.12768 -0.002,-0.10608 -0.0261,-0.23862 -0.0317,-0.3511 0.0275,-0.72323 0.0269,-1.50752 0,-2.29816 -0.0944,-2.76713 0.22855,-5.92124 0.79796,-7.53278 0.0814,-0.23022 0.19744,-0.41281 0.28728,-0.57453 0.10745,-0.2006 0.1701,-0.36013 0.25534,-0.54262 0.1471,-0.31489 0.26759,-0.60358 0.35111,-0.86181 0.0103,-0.0315 0.0227,-0.0652 0.0318,-0.0956 0.16837,-0.31482 0.22602,-0.53089 0.15958,-0.60646 0.008,-0.0212 0.0249,-0.0433 0.0318,-0.0639 9.1e-4,-0.008 -8.9e-4,-0.024 0,-0.0317 0.219788,-0.64364 0.12832,-0.86774 -0.28728,-0.73412 -0.3777,-0.23867 -1.18719,0.0584 -2.29812,1.05332 -0.36453,0.32732 -0.63614,0.56248 -0.89371,0.73413 -0.15691,0.0516 -0.30808,0.098 -0.44687,0.0956 -0.0196,-0.003 -0.0444,0.005 -0.0639,0 -0.53842,-0.11404 -1.02858,-0.76283 -1.81936,-2.10662 -0.0276,-0.21465 -0.221,-0.52105 -0.47876,-0.86181 -0.025,-0.033 -0.0374,-0.0622 -0.0639,-0.0956 -2.22834,-4.3688 -4.56419,-5.4158 -8.17115,-3.54296 -1.61717,0.86248 -3.33516,2.18183 -3.7664,2.93651 -0.43123,0.79062 -1.38388,1.21314 -2.13855,0.92564 -0.79061,-0.32343 -1.715341,-0.0683 -2.074711,0.54261 -0.3953,0.64687 -0.0445,0.81025 0.92563,0.41494 1.050251,-0.39383 1.305601,-0.14402 1.021401,0.79798 -0.864931,0.70277 -1.531651,1.15985 -1.755521,1.08523 -0.52245,-0.15168 -0.75109,0.18565 -0.73413,0.67029 l -0.5107,-0.1596 0.47879,0.57455 -0.47879,-0.0957 0.86181,0.70222 c 0.043,0.0649 0.10901,0.13054 0.15959,0.1915 0.42997,1.45524 0.1969,1.78202 -0.95756,1.34059 -1.72498,-0.64686 -2.21959,1.10442 -0.63838,2.07471 0.34582,0.22231 1.70337,1.8957 3.319551,4.08558 0.005,0.009 -0.005,0.0231 0,0.0318 0.13925,0.32793 0.31304,0.58044 0.5107,0.67029 0.57904,0.79741 1.18087,1.64161 1.78744,2.52157 l 4.34092,6.160304 0,0.0317 c 0.0336,0.28353 0.0518,0.5614 0.0318,0.8618 -0.0854,0.22213 -0.17882,0.47581 -0.3192,0.79797 -0.0701,0.16058 -0.20463,0.45499 -0.28726,0.63837 l -1.27675,2.61733 c -1.18592,2.47965 -2.50928,4.43669 -2.9046,4.43669 -0.43124,0 -0.79797,0.58993 -0.79797,1.30868 -0.0719,2.12026 -4.990671,9.91531 -5.745341,9.16063 -0.43123,-0.43123 -0.43123,0.1069 0,1.14908 0.53905,1.43747 0.39977,1.72808 -0.60645,1.11714 -0.79061,-0.50311 -1.1214,-0.47524 -0.79797,0.0639 0.32344,0.50311 -0.52161,4.29379 -1.85127,8.42652 -1.21673,3.75796 -1.96511,7.23558 -2.26623,10.05436 -0.30608,1.84462 -0.33967,3.3266 -0.0638,4.24519 0.0107,0.0357 0.0202,0.0615 0.0318,0.0956 0.21424,1.22019 0.68388,1.94704 1.40441,1.94704 0.86247,0 4.11098,-0.92875 7.30936,-2.0428 3.162451,-1.11404 5.865001,-2.01086 5.936861,-2.01086 0.10782,0 -0.0315,5.55239 -0.31918,12.41633 -0.43125,9.66701 -0.0332,15.73461 1.69169,27.45003 1.94059,13.33256 2.1111,17.41323 1.50018,35.52542 -0.087,2.47363 -0.14409,4.66663 -0.19153,6.76673 -0.13857,1.65041 -0.17496,3.73736 -0.0639,5.49001 -0.0256,10.5184 0.76551,16.08667 3.00034,21.92809 0.0255,0.0978 0.045,0.21121 0.0956,0.3192 0.0175,0.0449 0.0461,0.0828 0.0639,0.12766 0.44801,1.13813 0.97058,2.2937 1.53209,3.51105 1.43748,3.09058 3.65366,6.91315 4.94738,8.45844 1.25779,1.58121 4.04003,5.90199 6.160308,9.63942 3.70148,6.61239 3.79451,7.01908 3.54296,15.89548 -0.10782,5.03116 -1.14815,17.19239 -2.29813,27.00315 -0.83073,7.08708 -1.48783,15.0174 -1.72361,20.55559 -0.005,0.064 0.005,0.12797 0,0.19152 -0.0148,0.35689 -0.0208,0.71854 -0.0318,1.05332 -0.26329,5.28721 -0.0653,8.79399 0.60646,10.69274 0.39057,1.4644 1.02496,2.18578 2.20238,3.06419 3.34213,2.47963 10.74713,3.5898 32.81235,4.88354 19.87309,1.14998 42.71183,1.14998 56.94283,0 13.54819,-1.11403 31.19495,-3.03182 33.09961,-3.6068 1.18256,-0.35478 2.6098,-1.88291 3.47913,-3.31954 0.97243,-1.07251 1.3592,-2.12349 0.60646,-2.58542 -0.003,-0.002 -0.0278,0.002 -0.0317,0 -0.0218,-0.019 -0.0384,-0.0481 -0.0639,-0.0639 -0.0166,-0.009 -0.0971,-0.0203 -0.12767,-0.0317 -0.0989,-0.31843 -0.36506,-0.5107 -0.82988,-0.5107 -0.52265,0 -1.29244,-0.0224 -2.17047,-0.0956 -2.85291,-0.51643 -7.26329,-1.24401 -12.3206,-1.94703 -23.50269,-3.3062 -32.41566,-5.15717 -34.53594,-7.27746 -1.04217,-1.04215 -1.57631,-2.42134 -1.18099,-3.03226 0.39531,-0.64687 0.25982,-0.87007 -0.35111,-0.5107 -0.57499,0.35938 -1.64726,6.7e-4 -2.33006,-0.86179 -0.71868,-0.82656 -2.00613,-1.50018 -2.90454,-1.50018 -0.33236,0 -0.68489,-0.0552 -1.08523,-0.1596 -0.008,-0.005 -0.0235,0.005 -0.0317,0 -0.20196,-0.0989 -0.40857,-0.2304 -0.60645,-0.31919 -3.36125,-1.49662 -4.64874,-2.28745 -6.54333,-5.49 -0.0959,-1.086 -1.21178,-3.46633 -2.5854,-5.45809 -0.51819,-0.78392 -1.07425,-1.76389 -1.62784,-2.77691 -1.27955,-2.71315 -2.27937,-5.12611 -3.15996,-7.91582 -2.22325,-8.95247 -7.24222,-33.29501 -8.33076,-40.72815 -0.79061,-5.53428 -3.44313,-15.53098 -8.61803,-32.49318 -5.21083,-17.14187 -5.62731,-20.68069 -3.54298,-28.98208 0.93438,-3.77338 1.72362,-9.95164 1.72362,-13.72503 0,-7.9061 -1.21102,-10.53814 -8.64995,-19.34268 -0.36386,-0.43125 -0.69747,-0.86663 -1.02138,-1.27674 -2.26746,-2.87081 -3.50537,-5.14789 -3.12803,-5.74535 0.43123,-0.71873 0.33169,-0.93794 -0.35111,-0.54261 -0.56468,0.36537 -1.21949,-0.43418 -1.62785,-1.91512 -0.0856,-0.59612 -0.11606,-1.25322 -0.12768,-1.97895 0.36085,-3.93151 3.2344,-10.95408 4.50054,-10.18205 0.39529,0.25154 0.73413,-0.2029 0.73413,-0.95756 0,-2.29995 6.78121,-10.62488 8.64993,-10.66082 1.18591,0 2.92264,2.42976 5.33041,7.5328 1.97653,4.16867 3.5749,8.10688 3.5749,8.68185 0,0.61095 1.35528,3.70007 2.9365,6.86252 1.61716,3.19837 3.27133,6.96515 3.70256,8.33075 1.18592,3.88119 7.31757,13.1504 12.09717,18.28937 2.3359,2.51559 5.90335,7.15129 7.91582,10.2778 2.91089,4.52804 4.53754,6.03551 8.20309,7.43705 5.82425,-0.1128 3.6758,-0.53355 7.97965,1.11713 0.0831,0.0604 0.19255,0.10362 0.31918,0.0956 0.12975,0.15576 0.22217,0.19856 0.28729,0.12768 0.24176,0.0767 0.43882,0.0464 0.57452,-0.0317 0.0358,-0.0103 0.0631,-0.0167 0.0956,-0.0317 0.0318,-0.0198 0.0693,-0.0371 0.0956,-0.0639 0.0175,-0.012 0.0156,-0.0502 0.0317,-0.0639 0.5946,-0.49729 0.43815,-1.99689 -0.57453,-3.60681 -7.68632,-5.09386 5.61943,-5.45684 9.51174,-5.10697 1.08323,0.0993 1.56224,-0.20855 1.50018,-0.70222 7.3e-4,-0.0201 0.002,-0.0428 0,-0.0638 -0.006,-0.0309 -0.0216,-0.0628 -0.0317,-0.0956 0,-0.0112 7.3e-4,-0.0203 0,-0.0317 -0.002,-0.008 0.002,-0.0239 0,-0.0317 -0.0219,-0.17796 -0.1623,-0.37846 -0.35111,-0.60646 -0.027,-0.0373 -0.066,-0.0888 -0.0956,-0.12768 l -0.0317,-0.0317 c -0.0731,-0.0775 -0.13279,-0.14062 -0.22344,-0.22342 -0.99991,-0.0623 -2.5233,0.016 -3.53156,-0.22107 -13.64117,-0.20032 1.08854,-2.45987 2.66976,-2.74738 0.44379,-0.0864 0.7893,-0.21911 1.05331,-0.3511 0.0263,-0.008 0.039,-0.0233 0.0639,-0.0317 0.021,-0.0114 0.0441,-0.0202 0.0639,-0.0317 0.11026,-0.0439 0.18327,-0.10504 0.25535,-0.1596 0.15197,-0.11501 0.23554,-0.23139 0.22344,-0.38302 0.002,-0.009 -9.2e-4,-0.0221 0,-0.0317 0.0936,-0.67105 -6.18737,-0.48385 -9.20774,-0.38942 -1.53495,-0.42135 3.59388,-2.57878 3.74965,-2.73863 0.0555,-0.0182 0.10589,-0.0433 0.15959,-0.0638 0.009,-0.005 0.0226,0.005 0.0318,0 0.62888,-0.0313 1.12494,-0.41171 1.24482,-0.89372 0.0104,-0.029 -0.006,-0.0661 0,-0.0956 0.0165,-0.0465 0.0263,-0.0818 0.0317,-0.12767 0,-0.011 4.6e-4,-0.0211 0,-0.0317 -5.2e-4,-0.0117 9e-4,-0.0204 0,-0.0317 0,-0.0465 0.007,-0.0849 0,-0.12768 0,-0.49862 -0.39541,-0.73172 -1.08523,-0.76604 -0.0753,-0.0135 -0.14932,-0.006 -0.25535,0 -0.0212,-9e-4 -0.0423,9e-4 -0.0638,0 -0.0392,-0.006 -0.0873,0.005 -0.12767,0 -0.29828,-0.028 -0.64266,-0.0194 -0.98948,0 -1.65976,0.0929 -3.72019,0.70922 -4.85163,1.72361 -0.30912,0.27938 -0.48802,0.42488 -0.70222,0.60645 -0.034,0.0208 -0.0959,0.0775 -0.12766,0.0956 -0.61206,0.35376 -0.78597,0.2366 -0.67029,-0.47878 0.0578,-0.35767 2.20573,-2.51537 2.37642,-3.18919 0.47243,-1.90712 -1.79089,-0.83553 -2.47219,-0.3857 -0.29909,0.4177 -0.3111,1.00754 -0.93437,1.61549 -0.46918,1.29373 -4.42302,6.08098 -5.60894,6.04504 -0.80857,0 -2.09415,-1.36642 -3.38338,-3.38338 -0.31485,-0.49257 -0.61713,-1.03741 -0.92564,-1.59592 -0.006,-0.0119 -0.0256,-0.02 -0.0317,-0.0317 -0.37771,-0.70827 -0.73977,-1.47775 -1.11717,-2.26622 -0.22107,-0.46186 -0.42064,-0.95218 -0.63838,-1.43634 -0.25765,-0.64216 -0.49555,-1.27274 -0.7022,-1.91512 -1.79684,-5.53427 -4.59713,-10.99152 -8.58611,-16.59769 -5.10305,-7.22331 -6.39707,-10.24769 -9.70327,-23.07716 -3.37805,-13.04507 -5.87499,-19.46072 -8.42652,-21.54505 -0.93436,-0.75469 -1.38076,-1.85085 -1.02139,-2.42583 0.3953,-0.61093 0.16809,-0.77833 -0.47878,-0.38302 -0.53006,0.32487 -1.25573,0.30702 -2.64925,-0.3511 -0.71385,-0.5162 -1.333,-0.91504 -1.78744,-1.02142 -1.45929,-0.84759 -3.40284,-2.04919 -6.06453,-3.7983 -2.5607,-1.68936 -4.51951,-4.39403 -5.61768,-7.43704 -0.0787,-0.2178 -0.12177,-0.44942 -0.19152,-0.67029 -0.3414,-1.28868 -0.53954,-2.67697 -0.63838,-4.21326 -0.0405,-0.65584 -0.0806,-1.23961 -0.0957,-1.78745 -0.002,-0.0815 0.002,-0.14409 0,-0.22342 0.0814,-0.92227 0.24443,-1.80932 0.51069,-2.68117 0.53907,-1.653084 1.04126,-2.470254 1.14907,-1.787434 0.10781,0.682794 0.33503,1.727154 0.47879,2.266224 0.11042,0.44173 0.19957,0.89991 0.28726,1.27674 l -0.0639,0.28725 0.0956,-0.12765 c 0.0135,0.0585 0.054,0.17936 0.0638,0.22342 0.0719,0.35938 0.71357,0.13616 1.46824,-0.5107 0.75467,-0.61092 1.62762,-0.86203 1.91512,-0.57453 0.2875,0.28749 0.54262,-0.27053 0.54262,-1.27675 -0.0225,-2.582954 0.142,-3.921964 0.86181,-4.883554 0.43187,-0.57696 1.06255,-1.03348 1.97895,-1.5321 1.40153,-0.75467 4.21165,-3.50497 6.22413,-6.12837 2.01246,-2.62339 4.70295,-5.3458 6.03262,-6.06454 3.91711,-2.08434 6.21206,-8.48709 6.31988,-17.651 l 0.0317,-4.97931 0.19152,-2.71308 -0.1596,-0.15958 0,-0.19151 -2.80883,-2.71308 c -0.019,-0.0219 -0.0446,-0.0419 -0.0638,-0.0639 -0.55822,-0.63779 -1.25464,-1.30212 -2.04278,-1.97895 -0.0331,-0.0283 -0.0622,-0.0672 -0.0956,-0.0956 -3.50384,-3.39154 -6.4064,-5.02178 -9.19256,-4.97931 z m -59.783588,31.12065 c 0.0197,0.15011 0.0317,0.27995 0.0317,0.51071 0,2.08433 -2.36554,4.45389 -2.90458,2.87267 -0.12105,-0.34298 0.0245,-0.89558 0.31917,-1.46826 0.006,-0.0127 0.0254,-0.0192 0.0317,-0.0317 0.71172,-0.84383 1.66714,-1.54951 2.52157,-1.88319 z m 4.37285,1.43634 c 0.71875,0 0.61117,0.41048 -0.28726,1.0214 -0.0571,0.0364 -0.0733,0.0614 -0.12768,0.0957 -0.0759,0.0261 -0.14184,0.0581 -0.22343,0.0956 -0.15457,0.0713 -0.31365,0.14931 -0.47877,0.25533 -0.11102,0.0299 -0.19632,0.0266 -0.31919,0.0639 -0.32463,0.0935 -0.49735,0.12585 -0.73413,0.19152 0.045,-0.15723 0.16244,-0.38776 0.35111,-0.7022 0.35935,-0.575 1.17249,-1.02141 1.81935,-1.02141 z m 2.17047,1.50018 c 0.283,0.0136 0.43693,0.12152 0.38303,0.31918 -0.15529,0.79865 0.42481,2.24256 1.05331,3.12803 0.008,0.0601 0.0238,0.097 0.0317,0.1596 0.054,0.45819 0.39191,0.67224 0.82989,0.57454 0.0104,8.9e-4 0.0217,-6e-4 0.0317,0 0.0627,0.005 0.13796,2.1e-4 0.19153,-0.0318 0.20649,-0.14454 0.41249,0.0448 0.57454,0.41495 -0.016,0.0317 -0.0117,0.0644 -0.0317,0.0956 -0.11351,0.18918 -0.14495,0.33587 -0.12768,0.47877 -0.093,0.11099 -0.16608,0.21925 -0.12768,0.28726 0.052,0.0921 0.24417,0.14338 0.54262,0.1596 0.002,0.0233 -0.002,0.0402 0,0.0639 0.10782,1.3656 -0.50954,1.97896 -1.94703,1.97896 -0.67382,0 -1.13175,0.0693 -1.40443,0.28726 -0.3124,-0.22671 -0.42215,0.25457 -0.44687,1.56401 0,0.74232 0.2027,1.28012 0.44687,1.56401 0.20871,1.05943 0.24586,1.75747 0.12769,2.10664 -0.39035,0.21623 -0.84107,0.26623 -1.27676,0.0956 -0.0779,-0.0271 -0.17295,-0.0375 -0.25534,-0.0639 -0.34424,-0.12159 -0.70114,-0.23944 -1.05332,-0.31916 -0.011,-0.002 -0.021,0.002 -0.0317,0 -0.0232,-0.007 -0.0406,-0.0261 -0.0639,-0.0318 -0.0645,-0.0162 -0.12609,-0.0188 -0.1915,-0.0317 -0.0424,-0.008 -0.0849,-0.0249 -0.12769,-0.0317 -0.0509,-0.009 -0.11085,0.007 -0.1596,0 -0.0119,-0.008 -0.0201,-0.0233 -0.0317,-0.0317 -0.85914,-0.62585 -1.2808,-1.42806 -1.08523,-2.26621 0.0706,-0.28253 0.11259,-0.50538 0.0956,-0.70221 0.0411,-0.10398 0.0761,-0.20873 0.0956,-0.28727 0.25662,-0.29121 0.40186,-0.52162 0.31919,-0.57454 0.0442,-0.0828 -0.0213,-0.0516 -0.12768,0 -0.0836,0.009 -0.23746,0.0525 -0.38303,0.0957 -0.0879,-0.23249 -0.23677,-0.35111 -0.44685,-0.35111 -0.0684,0 -0.12913,-0.0194 -0.19151,-0.0317 -0.16361,-0.2686 -0.35684,-0.50043 -0.57453,-0.70222 0.24186,-0.32966 0.3982,-0.58187 0.47877,-0.76604 0.25346,-0.41157 0.28746,-0.60204 -0.0318,-0.35109 -0.006,0.006 -0.0252,-0.006 -0.0317,0 -0.0269,-0.1752 -0.0836,-0.40078 -0.19151,-0.67031 -0.19625,-0.51868 -0.37902,-0.8198 -0.60646,-0.95756 -0.13669,-0.3203 -0.26663,-0.65425 -0.44686,-1.0214 -0.0577,-0.12008 -0.10423,-0.2073 -0.15959,-0.31918 0.44172,-0.66331 0.49249,-1.08947 0.22343,-1.21291 -0.0162,-0.0163 -0.0435,-0.0197 -0.0638,-0.0317 -0.15067,-0.09 -0.41051,-0.0581 -0.76603,0.0956 -0.22724,-0.38543 -0.43919,-0.67517 -0.63838,-0.89371 0.0133,-0.0561 0.0275,-0.10929 0.0317,-0.15958 0.72807,-0.87203 1.38854,-1.22309 1.75552,-0.95757 0.0355,0.29301 0.15834,0.56921 0.31919,0.82989 0.006,0.008 -0.006,0.024 0,0.0317 5.4e-4,0.0238 0,0.0391 0,0.0639 0,0.21563 0.0863,0.35821 0.22343,0.44687 -0.007,0.0123 -0.0254,0.0521 -0.0317,0.0639 -0.18042,0.31669 -0.088,0.39716 0.19152,0.28727 0.18435,0.49548 0.28341,0.93331 0.19152,1.11714 -0.0139,0.025 -0.0276,0.0627 -0.0317,0.0956 -0.71419,0.94688 -0.62714,1.12891 0.31918,0.79797 0.20025,0.33555 0.48348,0.72579 0.82989,1.11715 -0.6073,0.96042 -0.11902,1.28131 0.8299,0.8618 0.12183,0.10807 0.24314,0.21039 0.38303,0.28726 0.0112,0.008 0.0208,0.024 0.0317,0.0318 0.0407,0.0213 0.0857,0.0455 0.12768,0.0639 0.0973,0.0617 0.19467,0.15224 0.28727,0.19151 -0.13518,0.25253 -0.23889,0.46776 -0.19151,0.54261 -0.21262,0.83569 0.56453,0.84203 2.17046,-0.31919 0.52441,-0.39331 0.88104,-0.9951 1.05332,-1.59592 0.73087,-0.6093 0.74304,-0.92271 0.0956,-1.24483 -0.0946,-1.02768 -0.66784,-1.73478 -1.65977,-1.11715 -0.61094,0.35937 -0.81025,0.16406 -0.41495,-0.44686 0.11551,-0.18482 0.16435,-0.38653 0.15959,-0.57454 -2.7e-4,-0.0105 6.1e-4,-0.0216 0,-0.0317 0.43477,-0.33735 0.41978,-0.51546 0,-0.57452 -0.0431,-0.0376 -0.0956,-0.0639 -0.19151,-0.0639 -0.0292,0 -0.0647,0.0289 -0.0957,0.0317 -0.006,-0.006 -0.0261,0.006 -0.0317,0 -0.11117,-0.0962 -0.25264,-0.2041 -0.41495,-0.25533 -0.12656,-0.0422 -0.21308,-0.078 -0.28726,-0.12769 -0.0497,-0.15099 -0.0548,-0.32716 -0.0318,-0.47877 0.14972,-0.14594 0.42562,-0.31707 0.8299,-0.47877 0.46719,-0.1797 0.86606,-0.23694 1.14906,-0.22344 z m -3.86216,1.85128 c 0.0238,-0.009 0.0408,0.008 0.0639,0 0.0155,-5.6e-4 0.0465,7e-5 0.0639,0 -0.005,0.0501 -0.0573,0.14166 -0.0956,0.22343 -0.10317,-0.0597 -0.19867,-0.12688 -0.19151,-0.15959 0.0506,-0.0188 0.0736,-0.0115 0.12768,-0.0317 0.0162,-0.006 0.016,-0.026 0.0317,-0.0318 z m 6.41566,18.448964 0.19151,4.05367 c 0.32341,6.68427 -0.22184,9.89962 -2.23431,13.85268 -0.52707,1.01821 -1.17513,1.98759 -1.85127,2.84075 -0.77819,0.82683 -1.5043,1.51957 -2.17048,2.13856 -0.14295,0.10443 -0.27033,0.22477 -0.41494,0.31919 -0.26431,0.16871 -0.4535,0.29212 -0.67029,0.41494 -0.0196,0.0111 -0.0446,0.0212 -0.0639,0.0317 -0.19913,0.0791 -0.39773,0.1395 -0.57452,0.15959 -0.17971,0 -0.0362,-1.45887 0.28725,-3.25569 1.43748,-8.12174 3.92865,-16.30482 5.61768,-18.35321 z m 1.56399,0.38302 c 0.15668,-0.0117 0.25536,0.97821 0.25536,2.64925 0,2.22807 -0.1953,3.01331 -0.44687,1.75553 -0.25154,-1.25779 -0.21954,-3.08337 0.0318,-4.05367 0.063,-0.24258 0.10736,-0.34717 0.1596,-0.35111 z m 2.01089,31.79095 0.0317,0.6703 -0.70219,1.81937 c -0.93437,2.47963 -0.74353,4.16518 1.0533,9.4479 2.623388,7.72643 2.690788,10.32186 0.60645,20.20449 -1.83277,8.91235 -1.31897,21.3886 1.627858,37.63205 1.04216,5.85772 2.61261,17.70801 3.51105,26.33285 1.58121,15.45286 3.02893,43.63276 2.20238,43.63276 -0.21561,0 -2.18473,-2.83401 -4.34093,-6.31988 -2.156218,-3.48589 -3.846308,-6.68661 -3.702558,-7.11785 0.14376,-0.43124 -0.19509,-0.76606 -0.73412,-0.76606 -1.43748,0 -4.27377,-5.97968 -3.44722,-7.30935 0.39532,-0.64686 0.25984,-0.84216 -0.35111,-0.44685 -0.68279,0.3953 -1.6352,-1.45773 -2.42581,-4.69205 -1.32967,-5.24677 -1.60443,-17.24936 -0.95756,-40.82391 0.25157,-8.69672 -0.20244,-14.90055 -1.53209,-21.80042 -1.22188,-6.50457 -1.81535,-14.60252 -1.85129,-25.0242 -0.0212,-4.41988 -0.028,-7.47468 0.0317,-9.79902 0.17422,-2.14165 0.35984,-4.08222 0.57453,-5.49 0.36346,-1.16769 0.91714,-1.82273 1.78744,-2.74502 1.36562,-1.43745 3.1115,-2.3941 3.83024,-2.10661 0.75467,0.28749 1.14931,0.148 0.8618,-0.31919 -0.28749,-0.46718 0.54952,-1.90215 1.91512,-3.15994 l 1.62785,-1.5321 z m -13.24623,25.886 c 0.1415,-0.23246 0.25535,1.77268 0.25535,5.33041 0,4.74368 -0.1674,6.68086 -0.38302,4.30903 -0.21563,-2.37183 -0.21563,-6.27812 0,-8.64995 0.0539,-0.59297 0.0804,-0.91199 0.12767,-0.98949 z m 1.14908,15.95932 c 0.18024,0.0136 0.2823,0.77602 0.25535,2.04278 0,1.68904 -0.25915,2.21512 -0.51071,1.24484 -0.25155,-1.00624 -0.21955,-2.34947 0.0318,-3.03227 0.0719,-0.17069 0.16334,-0.25983 0.22342,-0.25535 z m 1.02138,6.06454 c 0.16678,0.0218 0.28727,0.80297 0.28727,2.04278 -0.036,1.68905 -0.25913,2.28298 -0.51069,1.27675 -0.2875,-0.97031 -0.2555,-2.34542 0.0317,-3.06418 0.063,-0.1707 0.13593,-0.26266 0.19152,-0.25535 z m 1.0214,6.12837 c 0.0912,0.007 0.14472,0.27801 0.19151,0.6703 0.0119,0.10035 0.0232,0.16456 0.0317,0.28727 0.007,0.0858 -0.007,0.16904 0,0.25535 0.0127,0.25326 0.0317,0.50689 0.0317,0.82988 -0.036,1.65307 -0.25916,2.21914 -0.51072,1.2129 -0.25155,-0.97028 -0.25557,-2.34947 0.0318,-3.03227 0.0719,-0.17069 0.16616,-0.22793 0.22343,-0.22343 z m 0.67029,9.00106 c 0.0443,1.22235 0.0641,2.54196 0.0956,3.92598 -0.21345,-1.06725 -0.24453,-2.68627 -0.0956,-3.92598 z m -0.73412,38.01507 c 0.15666,-0.0118 0.25534,1.01013 0.25534,2.68116 0,2.22809 -0.22721,3.01332 -0.47878,1.75553 -0.2156,-1.25778 -0.21964,-3.08339 0.0317,-4.05367 0.063,-0.24257 0.13929,-0.37909 0.19151,-0.38302 z m 0.8618,8.64994 c 0.12578,0.0764 0.32889,0.60365 0.67029,1.62785 0.0484,0.15497 0.0835,0.29537 0.12767,0.44687 0.16446,1.10248 0.38028,2.00912 0.63838,2.87267 0.008,0.0291 -0.009,0.0669 0,0.0956 0.14283,1.31908 -0.10968,1.73488 -0.76605,0.15958 -0.50312,-1.11404 -0.86181,-2.93962 -0.86181,-4.05366 0.0181,-0.82654 0.0656,-1.22543 0.19152,-1.14907 z m 1.78745,8.36268 c 0.24921,-0.0376 1.21312,1.26548 2.39389,3.22378 1.13391,2.2808 2.42906,4.55176 3.41529,5.90495 0.0295,0.0412 0.0653,0.11673 0.0956,0.1596 1.73758,2.91954 3.76261,6.19444 5.394238,8.80953 2.27379,3.62577 4.17773,7.2504 4.66011,8.80955 0.0819,0.26436 0.13291,0.47098 0.12769,0.60644 0.005,0.0205 -0.005,0.0434 0,0.0639 -0.0292,0.9035 -0.63338,0.28723 -1.40443,-1.50018 -0.75466,-1.72497 -1.91065,-3.47087 -2.52157,-3.83024 -0.64687,-0.3953 -0.86605,-1.15665 -0.54261,-1.65978 0.2875,-0.53903 0.0644,-0.92562 -0.51069,-0.92562 -0.61094,0 -1.08523,-0.61783 -1.08523,-1.3725 0,-0.75468 -0.900858,-2.18965 -1.978968,-3.15994 -2.26404,-2.0484 -8.1792,-12.98929 -8.10733,-15.00177 0,-0.09 0.0201,-0.12107 0.0639,-0.12767 z m 92.372488,82.98842 c -0.24763,0.0438 -0.45773,0.17142 -0.57453,0.35111 -0.2875,0.50311 0.13503,0.8618 0.92563,0.8618 0.82657,0 1.46826,-0.1116 1.46826,-0.25534 0,-0.64687 -1.07647,-1.08896 -1.81936,-0.95757 z"
       id="path3826"
       inkscape:connector-curvature="0"
       sodipodi:nodetypes="cscccccccccccccccccccccccccccccccccscccccscscccccccccsccccccccccccscccccccsccsccccccccccccccccccccccccccccccccccccccscccccccccscsccccccccccccscccccccccccccsccscccsccccccccccscscccccsccsccccccccccccccccccccccccccccccccccccccccccccccccccccccsccscccccccccccccscccccccccccscsccccccccccscccsccsccsccccssccccccccccccscccccccccccccccccccscccccccccccccccccscccccccccccccccccccccsccccccsscccccscccccccccccccsscccccccccssssccccccccccsccccssscccccccccccccccccccscccscscsccccccssccccsccccccsccsscssscssccccccssc"
       inkscape:export-filename="C:\Users\Richard\SkyDrive\Documents\Graphic Design Projects\8 Storeys Up\NMT Poster\ElementSpotlight.png"
       inkscape:export-xdpi="120"
       inkscape:export-ydpi="120" />
  </g>
</svg>
