<?xml version="1.0" encoding="UTF-8" standalone="no"?>
<!-- Created with Inkscape (http://www.inkscape.org/) -->

<svg
   xmlns:dc="http://purl.org/dc/elements/1.1/"
   xmlns:cc="http://creativecommons.org/ns#"
   xmlns:rdf="http://www.w3.org/1999/02/22-rdf-syntax-ns#"
   xmlns:svg="http://www.w3.org/2000/svg"
   xmlns="http://www.w3.org/2000/svg"
   xmlns:sodipodi="http://sodipodi.sourceforge.net/DTD/sodipodi-0.dtd"
   xmlns:inkscape="http://www.inkscape.org/namespaces/inkscape"
   width="744.09448819"
   height="1052.3622047"
   id="svg2"
   version="1.1"
   inkscape:version="0.48.4 r9939"
   sodipodi:docname="Singer.svg">
  <defs
     id="defs4" />
  <sodipodi:namedview
     id="base"
     pagecolor="#ffffff"
     bordercolor="#666666"
     borderopacity="1.0"
     inkscape:pageopacity="0.0"
     inkscape:pageshadow="2"
     inkscape:zoom="1.4"
     inkscape:cx="141.10557"
     inkscape:cy="857.06765"
     inkscape:document-units="px"
     inkscape:current-layer="layer1"
     showgrid="false"
     inkscape:window-width="1366"
     inkscape:window-height="705"
     inkscape:window-x="-8"
     inkscape:window-y="-8"
     inkscape:window-maximized="1" />
  <metadata
     id="metadata7">
    <rdf:RDF>
      <cc:Work
         rdf:about="">
        <dc:format>image/svg+xml</dc:format>
        <dc:type
           rdf:resource="http://purl.org/dc/dcmitype/StillImage" />
        <dc:title></dc:title>
      </cc:Work>
    </rdf:RDF>
  </metadata>
  <g
     inkscape:label="Layer 1"
     inkscape:groupmode="layer"
     id="layer1">
    <path
       style="fill:#000000;fill-opacity:1;fill-rule:nonzero;stroke:none"
       d="m 144.59724,47.134126 c -11.01795,2.89253 -21.05825,7.659788 -28.51943,16.759627 -6.41065,3.695167 -5.17446,12.064929 -5.72198,13.644319 -2.4378,3.038763 -0.98372,14.514077 -0.0363,21.882264 1.23212,5.267684 15.18577,7.046684 4.90493,13.525034 -8.81734,-2.50028 -16.529447,1.59123 -22.334568,8.52663 7.014451,-9.37287 2.933353,-22.067645 5.10612,-32.537823 6.003638,-9.698689 -5.799723,-5.908511 -8.741341,-13.271021 -10.01773,0.223608 -18.50783,11.236965 -8.141091,19.531325 11.210738,13.014639 -11.053711,24.681359 -10.745238,39.162509 -4.014878,8.04517 -1.209098,18.44423 8.939804,11.75419 10.52122,-1.67432 0.02633,16.34284 3.833367,22.66029 1.650055,18.64879 5.137008,37.2951 2.881945,56.06413 -1.052652,16.54833 1.54034,34.45833 13.468131,46.9157 10.148151,14.19334 4.694001,31.91166 3.521531,47.80372 -1.26834,10.62574 -2.45189,21.40268 -1.09087,32.08214 11.44828,11.11316 29.1777,5.58313 43.46782,8.38526 27.23984,1.17717 54.62076,0.0733 81.58935,-4.04433 11.92482,-10.05133 -12.58737,-6.84706 -17.87638,-9.80279 -13.92508,0.35995 -25.8681,-4.72906 -36.62903,-12.53804 -13.91186,-9.47747 -14.82512,-27.96463 -18.62626,-42.86352 -3.30029,-20.35802 -8.08826,-40.40735 -14.65658,-59.95939 -6.97826,-14.95602 5.93393,-30.56231 -2.038,-45.12716 -7.14544,-10.55566 -17.939,-22.65078 -5.96459,-34.56495 7.70889,-14.81079 16.04107,2.92378 17.71373,11.62478 4.95468,13.09585 12.13606,25.35228 21.48399,35.71917 2.89577,7.16456 17.03106,17.24404 20.71309,11.91616 -8.39243,-10.69707 18.96739,-4.88044 7.06282,-9.44567 -15.7926,0.84184 13.75684,-4.12568 -0.66995,-3.85342 -10.89739,2.34802 7.66604,-6.33649 -3.21302,-4.29543 -8.33485,5.75069 0.79634,-7.24272 -5.89806,0.0329 -11.1517,13.58111 -11.96948,-12.73518 -18.87695,-18.26222 -11.48008,-15.09591 -11.45965,-35.00249 -20.95654,-51.06733 -11.73037,1.45211 -22.02007,-18.75428 -15.91098,-22.07444 4.98036,4.20383 8.81904,-11.911546 15.07124,-13.610443 9.48083,-7.879603 16.60076,-24.634797 7.28554,-34.591026 -2.95977,-2.6805 -6.08654,-6.044341 -10.39626,-6.081165 z m -59.783588,31.12065 c -0.05141,6.920279 -6.390878,2.551176 0,0 z m 4.37285,1.43634 c 0.521778,2.644577 -4.928748,0.622283 0,0 z m 2.17047,1.50018 c 4.738252,4.956759 1.510447,7.10694 0.287944,10.517498 -4.457434,9.882756 -10.045551,-20.24434 -3.793158,-4.478564 9.608397,4.886979 -1.493725,-5.911138 3.505214,-6.038934 z m -3.86216,1.85128 c 0.854308,0.06596 -0.78707,0.482056 0,0 z m 6.41566,18.448964 c 2.046174,7.35404 -1.651349,23.52405 -7.570092,22.29266 1.143892,-7.74769 2.206824,-16.16428 7.570092,-22.29266 z m 1.56399,0.38302 c 1.60731,6.10523 -1.429745,5.25321 0,0 z m 2.01089,31.79095 c -1.646717,13.00934 5.526108,25.81828 0.241032,38.76621 -1.244543,24.59079 6.957756,48.4214 7.142026,72.97255 0.0638,7.69669 2.82002,24.40856 -0.18153,26.49377 -5.876285,-9.95454 -13.835939,-19.7658 -14.620932,-31.65857 -1.948475,-21.15268 2.060624,-42.65355 -2.706498,-63.57273 0.612239,-12.34294 -6.178099,-30.12532 5.664679,-38.15612 1.628293,-1.47884 3.037694,-3.1748 4.461223,-4.84511 z m -13.24623,25.886 c 1.051669,6.78227 -0.734663,13.30525 -0.237188,2.65139 l 0.237188,-2.65139 z m 1.14908,15.95932 c 1.615553,4.61484 -1.411997,4.4929 0,0 z m 1.02138,6.06454 c 1.509041,3.87483 -1.131763,5.27483 0,0 z m 1.0214,6.12837 c 1.051284,5.06458 -1.500572,4.33525 0,0 z m 0.67029,9.00106 c 0.328955,3.94651 -0.256757,5.18012 0,0 z m -0.73412,38.01507 c 1.324785,6.18317 -1.175384,5.39927 0,0 z m 0.8618,8.64994 c 2.9674,6.23512 -0.257367,8.26947 0,0 z m 1.78745,8.36268 c 4.89374,7.63114 14.565268,22.29716 15.222598,26.24837 -5.22259,-8.50972 -12.333615,-16.76715 -15.222598,-26.24837 z m 92.372488,82.98842 c -1.96768,2.86226 4.26047,-0.41009 0,0 z"
       id="path3826"
       inkscape:connector-curvature="0" />
  </g>
</svg>
