<?xml version="1.0" encoding="UTF-8" standalone="no"?>
<!-- Created with Inkscape (http://www.inkscape.org/) -->

<svg
   xmlns:dc="http://purl.org/dc/elements/1.1/"
   xmlns:cc="http://creativecommons.org/ns#"
   xmlns:rdf="http://www.w3.org/1999/02/22-rdf-syntax-ns#"
   xmlns:svg="http://www.w3.org/2000/svg"
   xmlns="http://www.w3.org/2000/svg"
   xmlns:sodipodi="http://sodipodi.sourceforge.net/DTD/sodipodi-0.dtd"
   xmlns:inkscape="http://www.inkscape.org/namespaces/inkscape"
   width="744.09448819"
   height="1052.3622047"
   id="svg2"
   version="1.1"
   inkscape:version="0.48.4 r9939"
   sodipodi:docname="Singer4.svg">
  <defs
     id="defs4" />
  <sodipodi:namedview
     id="base"
     pagecolor="#ffffff"
     bordercolor="#666666"
     borderopacity="1.0"
     inkscape:pageopacity="0.0"
     inkscape:pageshadow="2"
     inkscape:zoom="1.4"
     inkscape:cx="141.10557"
     inkscape:cy="857.06765"
     inkscape:document-units="px"
     inkscape:current-layer="layer1"
     showgrid="false"
     inkscape:window-width="1366"
     inkscape:window-height="705"
     inkscape:window-x="-8"
     inkscape:window-y="-8"
     inkscape:window-maximized="1" />
  <metadata
     id="metadata7">
    <rdf:RDF>
      <cc:Work
         rdf:about="">
        <dc:format>image/svg+xml</dc:format>
        <dc:type
           rdf:resource="http://purl.org/dc/dcmitype/StillImage" />
        <dc:title />
      </cc:Work>
    </rdf:RDF>
  </metadata>
  <g
     inkscape:label="Layer 1"
     inkscape:groupmode="layer"
     id="layer1">
    <path
       style="fill:#000000;fill-opacity:1;fill-rule:nonzero;stroke:#ff0000"
       d="m 144.59724,47.134126 c -21.16744,1.770305 -38.64175,23.43404 -34.95008,44.543363 -11.34866,4.568735 -27.101852,2.310429 -34.059995,14.359161 -6.846639,26.81558 5.762592,53.27436 9.376615,79.61866 2.385745,28.93137 -2.851376,60.50419 13.130138,86.56306 9.240252,17.81916 10.159452,39.4298 2.783782,58.0055 -1.93823,18.23475 16.43149,34.68774 34.34779,31.50388 19.45794,-0.6875 39.15552,-5.4076 58.4922,-0.96802 13.90818,-2.5103 8.28073,-21.40903 -2.2445,-24.80722 -11.94853,-0.21928 -25.35349,-3.45106 -30.08301,-16.62114 -6.26452,-14.99713 -7.66733,-31.52943 -11.13621,-47.31443 -2.24665,-16.10583 -7.21488,-31.72102 -9.43918,-47.77613 -1.08338,-13.45695 -1.86034,-27.86011 -10.17455,-39.15824 -9.16639,-12.51952 3.2578,-34.28443 18.39993,-23.25336 14.79632,7.69925 -0.34816,28.82317 14.5099,35.01921 14.5141,5.78201 21.72926,-13.98771 9.11188,-21.10519 -11.21499,-11.03646 -13.56526,-26.89239 -20.98117,-40.03589 -5.14098,-10.87546 -18.36668,-20.21361 -14.46307,-33.54816 3.53862,-13.833465 19.62641,-20.849473 21.32024,-35.276107 0.7988,-8.737898 -4.29171,-19.027865 -13.94071,-19.748947 z M 97.485352,133.66551 c 0.447771,15.19381 3.414168,30.58771 0.1257,45.66355 1.615718,28.86596 8.864188,57.23348 8.510678,86.23963 -14.551764,-9.7029 -20.451467,-29.21668 -16.252603,-45.81617 0.283824,-23.06713 -2.497518,-46.02031 -3.133682,-69.05807 1.235345,-6.71521 4.574612,-13.58673 10.749907,-17.02894 z m -13.24623,25.886 c -0.996045,-4.82669 2.06712,2.55452 0,0 z m 1.14908,15.95932 c -3.309307,3.56998 0.0087,-4.51009 0,0 z m 1.02138,6.06454 c -5.546891,0.58222 0.334185,-2.85897 0,0 z m 1.0214,6.12837 c -3.66461,2.77476 -0.326566,-3.83343 0,0 z m 0.67029,9.00106 c 3.465322,2.36982 -3.41221,0.97493 0,0 z m -0.73412,38.01507 c -3.739998,2.53334 -0.192841,-3.95792 0,0 z m 0.8618,8.64994 c -3.475806,1.17357 -0.366722,-3.16239 0,0 z m 1.78745,8.36268 c -1.743923,-8.10086 6.458989,1.03492 0,0 z m 92.372488,82.98842 c 4.36161,4.59966 0.95864,-2.80611 0,0 z"
       id="path3826"
       inkscape:connector-curvature="0"
       sodipodi:nodetypes="cccccccccccccccccccccccccccccccccccccccccccc" />
  </g>
</svg>
