<?xml version="1.0" encoding="UTF-8" standalone="no"?>
<!-- Created with Inkscape (http://www.inkscape.org/) -->

<svg
   xmlns:dc="http://purl.org/dc/elements/1.1/"
   xmlns:cc="http://creativecommons.org/ns#"
   xmlns:rdf="http://www.w3.org/1999/02/22-rdf-syntax-ns#"
   xmlns:svg="http://www.w3.org/2000/svg"
   xmlns="http://www.w3.org/2000/svg"
   xmlns:sodipodi="http://sodipodi.sourceforge.net/DTD/sodipodi-0.dtd"
   xmlns:inkscape="http://www.inkscape.org/namespaces/inkscape"
   width="744.09448819"
   height="1052.3622047"
   id="svg2"
   version="1.1"
   inkscape:version="0.48.4 r9939"
   sodipodi:docname="Singer2.svg">
  <defs
     id="defs4" />
  <sodipodi:namedview
     id="base"
     pagecolor="#ffffff"
     bordercolor="#666666"
     borderopacity="1.0"
     inkscape:pageopacity="0.0"
     inkscape:pageshadow="2"
     inkscape:zoom="1.4"
     inkscape:cx="141.10557"
     inkscape:cy="857.06765"
     inkscape:document-units="px"
     inkscape:current-layer="layer1"
     showgrid="false"
     inkscape:window-width="1366"
     inkscape:window-height="705"
     inkscape:window-x="-8"
     inkscape:window-y="-8"
     inkscape:window-maximized="1" />
  <metadata
     id="metadata7">
    <rdf:RDF>
      <cc:Work
         rdf:about="">
        <dc:format>image/svg+xml</dc:format>
        <dc:type
           rdf:resource="http://purl.org/dc/dcmitype/StillImage" />
        <dc:title></dc:title>
      </cc:Work>
    </rdf:RDF>
  </metadata>
  <g
     inkscape:label="Layer 1"
     inkscape:groupmode="layer"
     id="layer1">
    <path
       style="fill:#000000;fill-opacity:1;fill-rule:nonzero;stroke:none"
       d="m 143.46875,49.40625 c -18.14222,3.568069 -36.40032,20.888061 -31.95415,40.659328 7.95864,11.028852 -0.55948,34.720252 -15.593853,24.281482 -18.496385,1.09024 -1.166996,-14.598718 2.186485,-21.537449 0.479399,-6.359788 -3.984976,-8.180219 -8.286168,-4.289508 -4.683628,-4.10596 -8.865208,-7.149724 -8.655136,1.999828 4.249435,10.992829 5.489383,22.773179 -4.518769,31.183739 -6.668888,10.65219 -2.366598,26.63486 6.824211,33.24263 2.231838,-7.80258 5.956589,-25.99774 16.056862,-21.52656 0.963868,16.02934 2.805708,32.44183 0.268216,48.51512 1.912552,28.83331 9.105682,57.2336 8.328552,86.25264 -4.64284,-1.65595 -16.583973,-7.48302 -8.0625,1.46875 12.55046,19.74641 6.42911,44.03507 1.94667,65.25973 -1.69506,15.38125 15.59991,26.41993 29.57797,22.91704 26.8519,0.81731 53.70875,-0.25927 80.5626,-0.33957 14.76746,-3.18307 -3.29359,-15.35985 -10.32051,-9.40585 -20.55339,-2.6244 -41.64558,-16.27233 -45.45623,-37.8708 -7.2519,-27.17367 -9.35551,-55.74804 -20.19274,-81.9211 -1.90967,-14.67246 6.33471,-31.42193 -3.89901,-44.3582 -9.22325,-9.33281 -12.50505,-33.19396 4.66037,-35.16698 16.53604,1.45663 16.85774,21.1273 22.90147,32.57287 6.78775,9.38594 16.55293,33.32149 30.7454,22.44215 6.08026,-13.5472 -18.90037,-9.73488 -21.30145,-22.12916 -7.33047,-16.60917 -12.61845,-34.11334 -19.71968,-50.85498 -11.17168,-8.2317 -26.59858,-23.80023 -12.26136,-36.760344 7.97861,-9.198293 22.36842,-17.132578 19.63316,-31.353804 -0.98447,-6.512174 -6.18682,-13.773219 -13.47041,-13.281002 z"
       id="path3826"
       inkscape:connector-curvature="0"
       sodipodi:nodetypes="ccccccccccccccccccccccccccc" />
  </g>
</svg>
